WorkSans-Bold.ufo
<glyph name="exclam" format="2">
  <advance width="301"/>
  <unicode hex="0021"/>
  <outline>
    <contour>
      <point x="62" y="660" type="line"/>
      <point x="62" y="447" type="line"/>
      <point x="81" y="215" type="line"/>
      <point x="220" y="215" type="line"/>
      <point x="239" y="447" type="line"/>
      <point x="239" y="660" type="line"/>
    </contour>
    <contour>
      <point x="54" y="75" type="curve" smooth="yes"/>
      <point x="54" y="23"/>
      <point x="90" y="-8"/>
      <point x="150" y="-8" type="curve" smooth="yes"/>
      <point x="210" y="-8"/>
      <point x="247" y="23"/>
      <point x="247" y="75" type="curve" smooth="yes"/>
      <point x="247" y="128"/>
      <point x="210" y="159"/>
      <point x="150" y="159" type="curve" smooth="yes"/>
      <point x="90" y="159"/>
      <point x="54" y="128"/>
    </contour>
  </outline>
</glyph>
<glyph name="quotesingle" format="2">
  <advance width="250"/>
  <unicode hex="0027"/>
  <outline>
    <contour>
      <point x="63" y="678" type="line"/>
      <point x="63" y="401" type="line"/>
      <point x="176" y="401" type="line"/>
      <point x="205" y="678" type="line"/>
    </contour>
  </outline>
</glyph>
<glyph name="plus" format="2">
  <advance width="604"/>
  <unicode hex="002B"/>
  <outline>
    <contour>
      <point x="235" y="589" type="line"/>
      <point x="235" y="60" type="line"/>
      <point x="370" y="60" type="line"/>
      <point x="370" y="589" type="line"/>
    </contour>
    <contour>
      <point x="51" y="386" type="line"/>
      <point x="51" y="264" type="line"/>
      <point x="553" y="264" type="line"/>
      <point x="553" y="386" type="line"/>
    </contour>
  </outline>
</glyph>
<glyph name="period" format="2">
  <advance width="290"/>
  <unicode hex="002E"/>
  <anchor x="45" y="81" name="_center"/>
  <outline>
    <contour>
      <point x="45" y="81" type="curve" smooth="yes"/>
      <point x="45" y="25"/>
      <point x="83" y="-9"/>
      <point x="145" y="-9" type="curve" smooth="yes"/>
      <point x="207" y="-9"/>
      <point x="245" y="25"/>
      <point x="245" y="81" type="curve" smooth="yes"/>
      <point x="245" y="138"/>
      <point x="207" y="172"/>
      <point x="145" y="172" type="curve" smooth="yes"/>
      <point x="83" y="172"/>
      <point x="45" y="138"/>
    </contour>
  </outline>
</glyph>
<glyph name="zero" format="2">
  <advance width="644"/>
  <unicode hex="0030"/>
  <outline>
    <contour>
      <point x="596" y="330" type="curve" smooth="yes"/>
      <point x="596" y="555"/>
      <point x="506" y="670"/>
      <point x="322" y="670" type="curve" smooth="yes"/>
      <point x="138" y="670"/>
      <point x="48" y="555"/>
      <point x="48" y="330" type="curve" smooth="yes"/>
      <point x="48" y="105"/>
      <point x="138" y="-10"/>
      <point x="322" y="-10" type="curve" smooth="yes"/>
      <point x="506" y="-10"/>
      <point x="596" y="105"/>
    </contour>
    <contour>
      <point x="218" y="330" type="curve" smooth="yes"/>
      <point x="218" y="478"/>
      <point x="249" y="536"/>
      <point x="322" y="536" type="curve" smooth="yes"/>
      <point x="395" y="536"/>
      <point x="426" y="478"/>
      <point x="426" y="330" type="curve" smooth="yes"/>
      <point x="426" y="182"/>
      <point x="395" y="124"/>
      <point x="322" y="124" type="curve" smooth="yes"/>
      <point x="249" y="124"/>
      <point x="218" y="182"/>
    </contour>
  </outline>
</glyph>
<glyph name="one" format="2">
  <advance width="439"/>
  <unicode hex="0031"/>
  <outline>
    <contour>
      <point x="365" y="660" type="line"/>
      <point x="228" y="660" type="line"/>
      <point x="211" y="609"/>
      <point x="199" y="543"/>
      <point x="199" y="497" type="curve" smooth="yes"/>
      <point x="199" y="0" type="line"/>
      <point x="365" y="0" type="line"/>
      <point x="365" y="506" type="line"/>
    </contour>
    <contour>
      <point x="297" y="624" type="curve"/>
      <point x="228" y="660" type="line"/>
      <point x="195" y="611"/>
      <point x="95" y="557"/>
      <point x="27" y="549" type="curve"/>
      <point x="43" y="407" type="line"/>
      <point x="158" y="428"/>
      <point x="262" y="539"/>
    </contour>
  </outline>
</glyph>
<glyph name="three" format="2">
  <advance width="593"/>
  <unicode hex="0033"/>
  <outline>
    <contour>
      <point x="46" y="499" type="curve"/>
      <point x="197" y="448" type="line"/>
      <point x="203" y="511"/>
      <point x="238" y="537"/>
      <point x="289" y="537" type="curve" smooth="yes"/>
      <point x="339" y="537"/>
      <point x="368" y="510"/>
      <point x="367" y="459" type="curve" smooth="yes"/>
      <point x="367" y="408"/>
      <point x="338" y="383"/>
      <point x="275" y="383" type="curve" smooth="yes"/>
      <point x="246" y="383" type="line"/>
      <point x="246" y="274" type="line"/>
      <point x="283" y="274" type="line" smooth="yes"/>
      <point x="350" y="274"/>
      <point x="380" y="254"/>
      <point x="381" y="203" type="curve" smooth="yes"/>
      <point x="382" y="152"/>
      <point x="347" y="123"/>
      <point x="289" y="123" type="curve" smooth="yes"/>
      <point x="230" y="123"/>
      <point x="194" y="150"/>
      <point x="187" y="221" type="curve"/>
      <point x="31" y="154" type="line"/>
      <point x="68" y="38"/>
      <point x="152" y="-10"/>
      <point x="291" y="-10" type="curve" smooth="yes"/>
      <point x="440" y="-10"/>
      <point x="547" y="66"/>
      <point x="547" y="180" type="curve" smooth="yes"/>
      <point x="547" y="297"/>
      <point x="456" y="330"/>
      <point x="410" y="330" type="curve"/>
      <point x="410" y="333" type="line"/>
      <point x="448" y="333"/>
      <point x="534" y="374"/>
      <point x="534" y="485" type="curve" smooth="yes"/>
      <point x="534" y="597"/>
      <point x="449" y="670"/>
      <point x="299" y="670" type="curve" smooth="yes"/>
      <point x="171" y="670"/>
      <point x="69" y="622"/>
    </contour>
  </outline>
</glyph>
<glyph name="four" format="2">
  <advance width="646"/>
  <unicode hex="0034"/>
  <outline>
    <contour>
      <point x="517" y="263" type="line"/>
      <point x="517" y="660" type="line"/>
      <point x="316" y="660" type="line"/>
      <point x="33" y="226" type="line"/>
      <point x="33" y="145" type="line"/>
      <point x="365" y="145" type="line"/>
      <point x="365" y="0" type="line"/>
      <point x="517" y="0" type="line"/>
      <point x="517" y="145" type="line"/>
      <point x="618" y="145" type="line"/>
      <point x="618" y="263" type="line"/>
    </contour>
    <contour>
      <point x="367" y="547" type="curve"/>
      <point x="369" y="547" type="line"/>
      <point x="365" y="439" type="line"/>
      <point x="365" y="263" type="line"/>
      <point x="193" y="263" type="line"/>
      <point x="309" y="439" type="line" smooth="yes"/>
      <point x="330" y="472"/>
      <point x="353" y="512"/>
    </contour>
  </outline>
</glyph>
<glyph name="seven" format="2">
  <advance width="614"/>
  <unicode hex="0037"/>
  <outline>
    <contour>
      <point x="42" y="525" type="line"/>
      <point x="500" y="525" type="line"/>
      <point x="464" y="570" type="line"/>
      <point x="278" y="402"/>
      <point x="199" y="218"/>
      <point x="199" y="0" type="curve"/>
      <point x="369" y="0" type="line"/>
      <point x="369" y="203"/>
      <point x="420" y="378"/>
      <point x="585" y="538" type="curve"/>
      <point x="585" y="660" type="line"/>
      <point x="42" y="660" type="line"/>
    </contour>
  </outline>
</glyph>
<glyph name="nine" format="2">
  <advance width="615"/>
  <unicode hex="0039"/>
  <outline>
    <contour>
      <point x="41" y="446" type="curve" smooth="yes"/>
      <point x="41" y="318"/>
      <point x="137" y="236"/>
      <point x="255" y="236" type="curve" smooth="yes"/>
      <point x="327" y="236"/>
      <point x="395" y="265"/>
      <point x="413" y="323" type="curve"/>
      <point x="416" y="323" type="line"/>
      <point x="416" y="317"/>
      <point x="416" y="312"/>
      <point x="416" y="307" type="curve" smooth="yes"/>
      <point x="416" y="187"/>
      <point x="378" y="120"/>
      <point x="294" y="120" type="curve" smooth="yes"/>
      <point x="236" y="120"/>
      <point x="214" y="149"/>
      <point x="203" y="195" type="curve"/>
      <point x="49" y="134" type="line"/>
      <point x="90" y="34"/>
      <point x="171" y="-10"/>
      <point x="291" y="-10" type="curve" smooth="yes"/>
      <point x="465" y="-10"/>
      <point x="571" y="90"/>
      <point x="571" y="326" type="curve" smooth="yes"/>
      <point x="571" y="552"/>
      <point x="473" y="670"/>
      <point x="298" y="670" type="curve" smooth="yes"/>
      <point x="135" y="670"/>
      <point x="41" y="586"/>
    </contour>
    <contour>
      <point x="387" y="447" type="curve" smooth="yes"/>
      <point x="387" y="393"/>
      <point x="352" y="359"/>
      <point x="293" y="359" type="curve" smooth="yes"/>
      <point x="233" y="359"/>
      <point x="199" y="391"/>
      <point x="199" y="447" type="curve" smooth="yes"/>
      <point x="199" y="503"/>
      <point x="233" y="535"/>
      <point x="293" y="535" type="curve" smooth="yes"/>
      <point x="352" y="535"/>
      <point x="387" y="501"/>
    </contour>
  </outline>
</glyph>
<glyph name="equal" format="2">
  <advance width="604"/>
  <unicode hex="003D"/>
  <outline>
    <contour>
      <point x="65" y="483" type="line"/>
      <point x="65" y="366" type="line"/>
      <point x="539" y="366" type="line"/>
      <point x="539" y="483" type="line"/>
    </contour>
    <contour>
      <point x="65" y="267" type="line"/>
      <point x="65" y="150" type="line"/>
      <point x="539" y="150" type="line"/>
      <point x="539" y="267" type="line"/>
    </contour>
  </outline>
</glyph>
<glyph name="A" format="2">
  <advance width="677"/>
  <unicode hex="0041"/>
  <anchor x="338" y="660" name="top"/>
  <anchor x="673" y="0" name="ogonek"/>
  <anchor x="338" y="0" name="bottom"/>
  <anchor x="589" y="0" name="bottomC"/>
  <outline>
    <contour>
      <point x="177" y="0" type="line"/>
      <point x="309" y="425" type="line"/>
      <point x="336" y="528" type="line"/>
      <point x="338" y="528" type="line"/>
      <point x="367" y="424" type="line"/>
      <point x="496" y="0" type="line"/>
      <point x="673" y="0" type="line"/>
      <point x="442" y="660" type="line"/>
      <point x="236" y="660" type="line"/>
      <point x="4" y="0" type="line"/>
    </contour>
    <contour>
      <point x="522" y="149" type="line"/>
      <point x="522" y="266" type="line"/>
      <point x="155" y="266" type="line"/>
      <point x="155" y="149" type="line"/>
    </contour>
  </outline>
</glyph>
<glyph name="C" format="2">
  <advance width="681"/>
  <unicode hex="0043"/>
  <anchor x="362" y="660" name="top"/>
  <anchor x="461" y="0" name="ogonek"/>
  <anchor x="362" y="0" name="bottom"/>
  <anchor x="368" y="0" name="bottomC"/>
  <outline>
    <contour>
      <point x="502" y="233" type="line"/>
      <point x="486" y="159"/>
      <point x="445" y="125"/>
      <point x="371" y="125" type="curve" smooth="yes"/>
      <point x="274" y="125"/>
      <point x="221" y="196"/>
      <point x="221" y="330" type="curve" smooth="yes"/>
      <point x="221" y="465"/>
      <point x="278" y="535"/>
      <point x="374" y="535" type="curve" smooth="yes"/>
      <point x="442" y="535"/>
      <point x="480" y="509"/>
      <point x="499" y="427" type="curve"/>
      <point x="650" y="488" type="line"/>
      <point x="617" y="613"/>
      <point x="506" y="670"/>
      <point x="368" y="670" type="curve" smooth="yes"/>
      <point x="169" y="670"/>
      <point x="45" y="543"/>
      <point x="45" y="330" type="curve" smooth="yes"/>
      <point x="45" y="117"/>
      <point x="168" y="-10"/>
      <point x="369" y="-10" type="curve" smooth="yes"/>
      <point x="509" y="-10"/>
      <point x="619" y="51"/>
      <point x="658" y="189" type="curve"/>
    </contour>
  </outline>
</glyph>
<glyph name="E" format="2">
  <advance width="631"/>
  <unicode hex="0045"/>
  <anchor x="323" y="660" name="top"/>
  <anchor x="601" y="0" name="ogonek"/>
  <anchor x="333" y="0" name="bottom"/>
  <anchor x="333" y="0" name="bottomC"/>
  <outline>
    <contour>
      <point x="73" y="660" type="line"/>
      <point x="73" y="0" type="line"/>
      <point x="245" y="0" type="line"/>
      <point x="245" y="660" type="line"/>
    </contour>
    <contour>
      <point x="157" y="133" type="line"/>
      <point x="157" y="0" type="line"/>
      <point x="600" y="0" type="line"/>
      <point x="600" y="133" type="line"/>
    </contour>
    <contour>
      <point x="157" y="393" type="line"/>
      <point x="157" y="268" type="line"/>
      <point x="517" y="268" type="line"/>
      <point x="517" y="393" type="line"/>
    </contour>
    <contour>
      <point x="157" y="660" type="line"/>
      <point x="157" y="527" type="line"/>
      <point x="587" y="527" type="line"/>
      <point x="587" y="660" type="line"/>
    </contour>
  </outline>
</glyph>
<glyph name="H" format="2">
  <advance width="742"/>
  <unicode hex="0048"/>
  <anchor x="371" y="660" name="top"/>
  <anchor x="675" y="0" name="ogonek"/>
  <anchor x="371" y="0" name="bottom"/>
  <anchor x="590" y="0" name="bottomC"/>
  <outline>
    <contour>
      <point x="497" y="660" type="line"/>
      <point x="497" y="0" type="line"/>
      <point x="669" y="0" type="line"/>
      <point x="669" y="660" type="line"/>
    </contour>
    <contour>
      <point x="73" y="660" type="line"/>
      <point x="73" y="0" type="line"/>
      <point x="245" y="0" type="line"/>
      <point x="245" y="660" type="line"/>
    </contour>
    <contour>
      <point x="157" y="399" type="line"/>
      <point x="157" y="266" type="line"/>
      <point x="589" y="266" type="line"/>
      <point x="589" y="399" type="line"/>
    </contour>
  </outline>
</glyph>
<glyph name="I" format="2">
  <advance width="318"/>
  <unicode hex="0049"/>
  <anchor x="159" y="660" name="top"/>
  <anchor x="245" y="0" name="ogonek"/>
  <anchor x="159" y="0" name="bottom"/>
  <anchor x="159" y="0" name="bottomC"/>
  <outline>
    <contour>
      <point x="73" y="660" type="line"/>
      <point x="73" y="0" type="line"/>
      <point x="245" y="0" type="line"/>
      <point x="245" y="660" type="line"/>
    </contour>
  </outline>
</glyph>
<glyph name="K" format="2">
  <advance width="693"/>
  <unicode hex="004B"/>
  <anchor x="357" y="660" name="top"/>
  <anchor x="684" y="0" name="ogonek"/>
  <anchor x="363" y="0" name="bottom"/>
  <anchor x="598" y="0" name="bottomC"/>
  <outline>
    <contour>
      <point x="481" y="660" type="line"/>
      <point x="161" y="263" type="line"/>
      <point x="194" y="124" type="line"/>
      <point x="351" y="315" type="line"/>
      <point x="362" y="289" type="line"/>
      <point x="672" y="660" type="line"/>
    </contour>
    <contour>
      <point x="73" y="660" type="line"/>
      <point x="73" y="0" type="line"/>
      <point x="245" y="0" type="line"/>
      <point x="245" y="660" type="line"/>
    </contour>
    <contour>
      <point x="289" y="346" type="line"/>
      <point x="489" y="0" type="line"/>
      <point x="684" y="0" type="line"/>
      <point x="418" y="442" type="line"/>
    </contour>
  </outline>
</glyph>
<glyph name="N" format="2">
  <advance width="741"/>
  <unicode hex="004E"/>
  <anchor x="372" y="660" name="top"/>
  <anchor x="668" y="0" name="ogonek"/>
  <anchor x="383" y="0" name="bottom"/>
  <anchor x="551" y="0" name="bottomC"/>
  <outline>
    <contour>
      <point x="516" y="660" type="line"/>
      <point x="516" y="327" type="line"/>
      <point x="520" y="203" type="line"/>
      <point x="519" y="203" type="line"/>
      <point x="469" y="303" type="line"/>
      <point x="264" y="660" type="line"/>
      <point x="73" y="660" type="line"/>
      <point x="73" y="0" type="line"/>
      <point x="225" y="0" type="line"/>
      <point x="225" y="333" type="line"/>
      <point x="221" y="457" type="line"/>
      <point x="222" y="457" type="line"/>
      <point x="272" y="357" type="line"/>
      <point x="477" y="0" type="line"/>
      <point x="668" y="0" type="line"/>
      <point x="668" y="660" type="line"/>
    </contour>
  </outline>
</glyph>
<glyph name="O" format="2">
  <advance width="737"/>
  <unicode hex="004F"/>
  <anchor x="369" y="660" name="top"/>
  <anchor x="452" y="0" name="ogonek"/>
  <anchor x="369" y="0" name="bottom"/>
  <anchor x="369" y="0" name="bottomC"/>
  <outline>
    <contour>
      <point x="45" y="330" type="curve" smooth="yes"/>
      <point x="45" y="117"/>
      <point x="168" y="-10"/>
      <point x="369" y="-10" type="curve" smooth="yes"/>
      <point x="570" y="-10"/>
      <point x="692" y="117"/>
      <point x="692" y="330" type="curve" smooth="yes"/>
      <point x="692" y="543"/>
      <point x="570" y="670"/>
      <point x="369" y="670" type="curve" smooth="yes"/>
      <point x="168" y="670"/>
      <point x="45" y="543"/>
    </contour>
    <contour>
      <point x="516" y="330" type="curve" smooth="yes"/>
      <point x="516" y="195"/>
      <point x="464" y="125"/>
      <point x="369" y="125" type="curve" smooth="yes"/>
      <point x="273" y="125"/>
      <point x="221" y="195"/>
      <point x="221" y="330" type="curve" smooth="yes"/>
      <point x="221" y="465"/>
      <point x="273" y="535"/>
      <point x="369" y="535" type="curve" smooth="yes"/>
      <point x="464" y="535"/>
      <point x="516" y="465"/>
    </contour>
  </outline>
</glyph>
<glyph name="Q" format="2">
  <advance width="737"/>
  <unicode hex="0051"/>
  <anchor x="369" y="660" name="top"/>
  <anchor x="573" y="-197" name="ogonek"/>
  <anchor x="369" y="-210" name="bottom"/>
  <anchor x="533" y="-197" name="bottomC"/>
  <outline>
    <contour>
      <point x="314" y="19" type="line"/>
      <point x="293" y="-117"/>
      <point x="366" y="-204"/>
      <point x="517" y="-204" type="curve" smooth="yes"/>
      <point x="593" y="-204"/>
      <point x="653" y="-186"/>
      <point x="687" y="-156" type="curve"/>
      <point x="646" y="-31" type="line"/>
      <point x="619" y="-56"/>
      <point x="578" y="-70"/>
      <point x="523" y="-70" type="curve" smooth="yes"/>
      <point x="453" y="-70"/>
      <point x="412" y="-51"/>
      <point x="423" y="32" type="curve"/>
    </contour>
    <component base="O"/>
  </outline>
</glyph>
<glyph name="S" format="2">
  <advance width="644"/>
  <unicode hex="0053"/>
  <anchor x="329" y="660" name="top"/>
  <anchor x="416" y="0" name="ogonek"/>
  <anchor x="346" y="0" name="bottom"/>
  <anchor x="330" y="0" name="bottomC"/>
  <outline>
    <contour>
      <point x="46" y="455" type="curve" smooth="yes"/>
      <point x="46" y="317"/>
      <point x="166" y="278"/>
      <point x="302" y="254" type="curve" smooth="yes"/>
      <point x="391" y="239"/>
      <point x="433" y="221"/>
      <point x="433" y="184" type="curve" smooth="yes"/>
      <point x="433" y="146"/>
      <point x="396" y="123"/>
      <point x="321" y="123" type="curve" smooth="yes"/>
      <point x="227" y="123"/>
      <point x="160" y="157"/>
      <point x="113" y="220" type="curve"/>
      <point x="25" y="103" type="line"/>
      <point x="92" y="35"/>
      <point x="175" y="-10"/>
      <point x="331" y="-10" type="curve" smooth="yes"/>
      <point x="490" y="-10"/>
      <point x="610" y="64"/>
      <point x="610" y="193" type="curve" smooth="yes"/>
      <point x="610" y="309"/>
      <point x="538" y="371"/>
      <point x="351" y="404" type="curve" smooth="yes"/>
      <point x="264" y="419"/>
      <point x="223" y="435"/>
      <point x="223" y="470" type="curve" smooth="yes"/>
      <point x="223" y="508"/>
      <point x="265" y="537"/>
      <point x="335" y="537" type="curve" smooth="yes"/>
      <point x="419" y="537"/>
      <point x="473" y="510"/>
      <point x="526" y="442" type="curve"/>
      <point x="615" y="551" type="line"/>
      <point x="538" y="636"/>
      <point x="454" y="670"/>
      <point x="330" y="670" type="curve" smooth="yes"/>
      <point x="150" y="670"/>
      <point x="46" y="579"/>
    </contour>
  </outline>
</glyph>
<glyph name="T" format="2">
  <advance width="653"/>
  <unicode hex="0054"/>
  <anchor x="327" y="0" name="bottom"/>
  <anchor x="327" y="660" name="top"/>
  <anchor x="413" y="0" name="ogonek"/>
  <anchor x="327" y="330" name="center"/>
  <anchor x="356" y="0" name="bottomC"/>
  <outline>
    <contour>
      <point x="241" y="660" type="line"/>
      <point x="241" y="0" type="line"/>
      <point x="413" y="0" type="line"/>
      <point x="413" y="660" type="line"/>
    </contour>
    <contour>
      <point x="25" y="660" type="line"/>
      <point x="25" y="527" type="line"/>
      <point x="628" y="527" type="line"/>
      <point x="628" y="660" type="line"/>
    </contour>
  </outline>
</glyph>
<glyph name="U" format="2">
  <advance width="713"/>
  <unicode hex="0055"/>
  <anchor x="356" y="660" name="top"/>
  <anchor x="487" y="12" name="ogonek"/>
  <anchor x="356" y="0" name="bottom"/>
  <anchor x="356" y="0" name="bottomC"/>
  <outline>
    <contour>
      <point x="480" y="660" type="line"/>
      <point x="480" y="266" type="line" smooth="yes"/>
      <point x="480" y="171"/>
      <point x="439" y="125"/>
      <point x="356" y="125" type="curve" smooth="yes"/>
      <point x="274" y="125"/>
      <point x="234" y="171"/>
      <point x="234" y="266" type="curve" smooth="yes"/>
      <point x="234" y="660" type="line"/>
      <point x="61" y="660" type="line"/>
      <point x="61" y="269" type="line" smooth="yes"/>
      <point x="61" y="83"/>
      <point x="162" y="-10"/>
      <point x="356" y="-10" type="curve" smooth="yes"/>
      <point x="551" y="-10"/>
      <point x="651" y="83"/>
      <point x="651" y="269" type="curve" smooth="yes"/>
      <point x="651" y="660" type="line"/>
    </contour>
  </outline>
</glyph>
<glyph name="V" format="2">
  <advance width="683"/>
  <unicode hex="0056"/>
  <anchor x="342" y="660" name="top"/>
  <anchor x="443" y="0" name="ogonek"/>
  <anchor x="342" y="0" name="bottom"/>
  <anchor x="348" y="0" name="bottomC"/>
  <outline>
    <contour>
      <point x="502" y="660" type="line"/>
      <point x="379" y="259" type="line"/>
      <point x="344" y="131" type="line"/>
      <point x="308" y="261" type="line"/>
      <point x="187" y="660" type="line"/>
      <point x="6" y="660" type="line"/>
      <point x="241" y="0" type="line"/>
      <point x="443" y="0" type="line"/>
      <point x="677" y="660" type="line"/>
    </contour>
  </outline>
</glyph>
<glyph name="W" format="2">
  <advance width="997"/>
  <unicode hex="0057"/>
  <anchor x="498" y="660" name="top"/>
  <anchor x="796" y="0" name="ogonek"/>
  <anchor x="498" y="0" name="bottom"/>
  <anchor x="707" y="0" name="bottomC"/>
  <outline>
    <contour>
      <point x="499" y="481" type="line"/>
      <point x="501" y="481" type="line"/>
      <point x="531" y="320" type="line"/>
      <point x="609" y="0" type="line"/>
      <point x="796" y="0" type="line"/>
      <point x="987" y="660" type="line"/>
      <point x="809" y="660" type="line"/>
      <point x="700" y="136" type="line"/>
      <point x="579" y="660" type="line"/>
      <point x="423" y="660" type="line"/>
      <point x="304" y="135" type="line"/>
      <point x="195" y="660" type="line"/>
      <point x="10" y="660" type="line"/>
      <point x="200" y="0" type="line"/>
      <point x="393" y="0" type="line"/>
      <point x="470" y="320" type="line"/>
    </contour>
  </outline>
</glyph>
<glyph name="bracketleft" format="2">
  <advance width="391"/>
  <unicode hex="005B"/>
  <outline>
    <contour>
      <point x="85" y="713" type="line"/>
      <point x="85" y="-168" type="line"/>
      <point x="232" y="-168" type="line"/>
      <point x="232" y="713" type="line"/>
    </contour>
    <contour>
      <point x="160" y="-49" type="line"/>
      <point x="160" y="-168" type="line"/>
      <point x="365" y="-168" type="line"/>
      <point x="365" y="-49" type="line"/>
    </contour>
    <contour>
      <point x="160" y="713" type="line"/>
      <point x="160" y="594" type="line"/>
      <point x="365" y="594" type="line"/>
      <point x="365" y="713" type="line"/>
    </contour>
  </outline>
</glyph>
<glyph name="asciicircum" format="2">
  <advance width="612"/>
  <unicode hex="005E"/>
  <outline>
    <contour>
      <point x="175" y="355" type="line"/>
      <point x="361" y="724" type="line"/>
      <point x="234" y="724" type="line"/>
      <point x="25" y="355" type="line"/>
    </contour>
    <contour>
      <point x="378" y="724" type="line"/>
      <point x="251" y="724" type="line"/>
      <point x="438" y="355" type="line"/>
      <point x="588" y="355" type="line"/>
    </contour>
  </outline>
</glyph>
<glyph name="grave" format="2">
  <advance width="500"/>
  <unicode hex="0060"/>
  <anchor x="250" y="500" name="_top"/>
  <outline>
    <contour>
      <point x="92" y="738" type="line"/>
      <point x="193" y="565" type="line"/>
      <point x="317" y="565" type="line"/>
      <point x="250" y="738" type="line"/>
    </contour>
  </outline>
</glyph>
<glyph name="a" format="2">
  <advance width="579"/>
  <unicode hex="0061"/>
  <anchor x="277" y="500" name="top"/>
  <anchor x="563" y="6" name="ogonek"/>
  <anchor x="277" y="0" name="bottom"/>
  <anchor x="504" y="0" name="bottomC"/>
  <outline>
    <contour>
      <point x="40" y="353" type="curve"/>
      <point x="177" y="318" type="line"/>
      <point x="189" y="373"/>
      <point x="223" y="393"/>
      <point x="266" y="393" type="curve" smooth="yes"/>
      <point x="314" y="393"/>
      <point x="340" y="364"/>
      <point x="340" y="319" type="curve" smooth="yes"/>
      <point x="340" y="112" type="line"/>
      <point x="359" y="111" type="line" smooth="yes"/>
      <point x="359" y="26"/>
      <point x="412" y="-10"/>
      <point x="494" y="-10" type="curve" smooth="yes"/>
      <point x="519" y="-10"/>
      <point x="543" y="-4"/>
      <point x="563" y="6" type="curve"/>
      <point x="575" y="101" type="line"/>
      <point x="567" y="98"/>
      <point x="556" y="97"/>
      <point x="544" y="97" type="curve" smooth="yes"/>
      <point x="520" y="97"/>
      <point x="509" y="110"/>
      <point x="509" y="136" type="curve" smooth="yes"/>
      <point x="509" y="318" type="line" smooth="yes"/>
      <point x="509" y="447"/>
      <point x="427" y="510"/>
      <point x="274" y="510" type="curve" smooth="yes"/>
      <point x="137" y="510"/>
      <point x="56" y="449"/>
    </contour>
    <contour>
      <point x="227" y="274" type="line" smooth="yes"/>
      <point x="91" y="247"/>
      <point x="32" y="195"/>
      <point x="32" y="115" type="curve" smooth="yes"/>
      <point x="32" y="33"/>
      <point x="92" y="-10"/>
      <point x="193" y="-10" type="curve" smooth="yes"/>
      <point x="313" y="-10"/>
      <point x="386" y="61"/>
      <point x="386" y="148" type="curve"/>
      <point x="340" y="166" type="line"/>
      <point x="340" y="119"/>
      <point x="299" y="93"/>
      <point x="253" y="93" type="curve" smooth="yes"/>
      <point x="218" y="93"/>
      <point x="195" y="108"/>
      <point x="195" y="140" type="curve" smooth="yes"/>
      <point x="195" y="173"/>
      <point x="223" y="196"/>
      <point x="275" y="208" type="curve" smooth="yes"/>
      <point x="388" y="234" type="line"/>
      <point x="373" y="303" type="line"/>
    </contour>
  </outline>
</glyph>
<glyph name="b" format="2">
  <advance width="628"/>
  <unicode hex="0062"/>
  <anchor x="146" y="712" name="top"/>
  <anchor x="474" y="13" name="ogonek"/>
  <anchor x="319" y="0" name="bottom"/>
  <anchor x="393" y="0" name="bottomC"/>
  <outline>
    <contour>
      <point x="61" y="712" type="line"/>
      <point x="61" y="178" type="line"/>
      <point x="61" y="0" type="line"/>
      <point x="210" y="0" type="line"/>
      <point x="217" y="144" type="line"/>
      <point x="231" y="198" type="line"/>
      <point x="231" y="712" type="line"/>
    </contour>
    <component base="bowl" xScale="-1.0" xOffset="668"/>
  </outline>
</glyph>
<glyph name="c" format="2">
  <advance width="571"/>
  <unicode hex="0063"/>
  <anchor x="297" y="500" name="top"/>
  <anchor x="420" y="13" name="ogonek"/>
  <anchor x="297" y="0" name="bottom"/>
  <anchor x="308" y="0" name="bottomC"/>
  <outline>
    <contour>
      <point x="37" y="250" type="curve" smooth="yes"/>
      <point x="37" y="86"/>
      <point x="132" y="-10"/>
      <point x="307" y="-10" type="curve" smooth="yes"/>
      <point x="447" y="-10"/>
      <point x="528" y="56"/>
      <point x="542" y="143" type="curve"/>
      <point x="389" y="192" type="line"/>
      <point x="381" y="140"/>
      <point x="354" y="111"/>
      <point x="306" y="111" type="curve" smooth="yes"/>
      <point x="246" y="111"/>
      <point x="207" y="149"/>
      <point x="207" y="248" type="curve" smooth="yes"/>
      <point x="207" y="346"/>
      <point x="242" y="389"/>
      <point x="306" y="389" type="curve" smooth="yes"/>
      <point x="351" y="389"/>
      <point x="376" y="361"/>
      <point x="383" y="303" type="curve"/>
      <point x="541" y="355" type="line"/>
      <point x="525" y="436"/>
      <point x="462" y="510"/>
      <point x="300" y="510" type="curve" smooth="yes"/>
      <point x="134" y="510"/>
      <point x="37" y="414"/>
    </contour>
  </outline>
</glyph>
<glyph name="h" format="2">
  <advance width="620"/>
  <unicode hex="0068"/>
  <anchor x="146" y="712" name="top"/>
  <anchor x="562" y="0" name="ogonek"/>
  <anchor x="319" y="0" name="bottom"/>
  <anchor x="477" y="0" name="bottomC"/>
  <outline>
    <contour>
      <point x="61" y="712" type="line"/>
      <point x="61" y="0" type="line"/>
      <point x="231" y="0" type="line"/>
      <point x="231" y="712" type="line"/>
    </contour>
    <contour>
      <point x="206" y="272" type="curve"/>
      <point x="231" y="263" type="line"/>
      <point x="231" y="347"/>
      <point x="272" y="381"/>
      <point x="321" y="381" type="curve" smooth="yes"/>
      <point x="363" y="381"/>
      <point x="392" y="357"/>
      <point x="392" y="286" type="curve" smooth="yes"/>
      <point x="392" y="0" type="line"/>
      <point x="562" y="0" type="line"/>
      <point x="562" y="333" type="line" smooth="yes"/>
      <point x="562" y="449"/>
      <point x="492" y="510"/>
      <point x="389" y="510" type="curve" smooth="yes"/>
      <point x="277" y="510"/>
      <point x="206" y="430"/>
    </contour>
  </outline>
</glyph>
<glyph name="j" format="2">
  <advance width="290"/>
  <unicode hex="006A"/>
  <anchor x="145" y="711" name="top"/>
  <anchor x="119" y="-204" name="ogonek"/>
  <anchor x="69" y="-210" name="bottom"/>
  <anchor x="69" y="-210" name="bottomC"/>
  <outline>
    <contour>
      <point x="47" y="639" type="curve" smooth="yes"/>
      <point x="47" y="584"/>
      <point x="77" y="558"/>
      <point x="145" y="558" type="curve" smooth="yes"/>
      <point x="214" y="558"/>
      <point x="245" y="584"/>
      <point x="245" y="639" type="curve" smooth="yes"/>
      <point x="245" y="694"/>
      <point x="214" y="721"/>
      <point x="145" y="721" type="curve" smooth="yes"/>
      <point x="77" y="721"/>
      <point x="47" y="694"/>
    </contour>
    <component base="jdotless"/>
  </outline>
</glyph>
<glyph name="k" format="2">
  <advance width="622"/>
  <unicode hex="006B"/>
  <anchor x="146" y="712" name="top"/>
  <anchor x="328" y="0" name="bottom"/>
  <outline>
    <contour>
      <point x="422" y="500" type="line"/>
      <point x="194" y="249" type="line"/>
      <point x="195" y="75" type="line"/>
      <point x="338" y="235" type="line"/>
      <point x="370" y="244" type="line"/>
      <point x="610" y="500" type="line"/>
    </contour>
    <contour>
      <point x="61" y="712" type="line"/>
      <point x="61" y="0" type="line"/>
      <point x="231" y="0" type="line"/>
      <point x="231" y="712" type="line"/>
    </contour>
    <contour>
      <point x="285" y="250" type="line"/>
      <point x="433" y="0" type="line"/>
      <point x="621" y="0" type="line"/>
      <point x="396" y="350" type="line"/>
    </contour>
  </outline>
</glyph>
<glyph name="l" format="2">
  <advance width="327"/>
  <unicode hex="006C"/>
  <anchor x="294" y="353" name="center"/>
  <anchor x="190" y="0" name="bottom"/>
  <anchor x="138" y="712" name="top"/>
  <anchor x="213" y="0" name="bottomC"/>
  <anchor x="289" y="712" name="topright"/>
  <anchor x="273" y="0" name="ogonek"/>
  <outline>
    <contour>
      <point x="59" y="712" type="line"/>
      <point x="59" y="148" type="line" smooth="yes"/>
      <point x="59" y="37"/>
      <point x="104" y="-10"/>
      <point x="211" y="-10" type="curve" smooth="yes"/>
      <point x="248" y="-10"/>
      <point x="291" y="0"/>
      <point x="315" y="15" type="curve"/>
      <point x="326" y="120" type="line"/>
      <point x="308" y="114"/>
      <point x="295" y="111"/>
      <point x="275" y="111" type="curve" smooth="yes"/>
      <point x="240" y="111"/>
      <point x="229" y="129"/>
      <point x="229" y="173" type="curve" smooth="yes"/>
      <point x="229" y="712" type="line"/>
    </contour>
  </outline>
</glyph>
<glyph name="s" format="2">
  <advance width="533"/>
  <unicode hex="0073"/>
  <anchor x="275" y="500" name="top"/>
  <anchor x="398" y="13" name="ogonek"/>
  <anchor x="275" y="0" name="bottom"/>
  <anchor x="270" y="0" name="bottomC"/>
  <outline>
    <contour>
      <point x="506" y="157" type="curve" smooth="yes"/>
      <point x="506" y="245"/>
      <point x="445" y="293"/>
      <point x="298" y="314" type="curve" smooth="yes"/>
      <point x="230" y="325"/>
      <point x="207" y="337"/>
      <point x="207" y="359" type="curve" smooth="yes"/>
      <point x="207" y="379"/>
      <point x="234" y="399"/>
      <point x="284" y="399" type="curve" smooth="yes"/>
      <point x="338" y="399"/>
      <point x="387" y="384"/>
      <point x="418" y="336" type="curve"/>
      <point x="502" y="418" type="line"/>
      <point x="468" y="472"/>
      <point x="398" y="510"/>
      <point x="278" y="510" type="curve" smooth="yes"/>
      <point x="115" y="510"/>
      <point x="36" y="427"/>
      <point x="36" y="346" type="curve" smooth="yes"/>
      <point x="36" y="264"/>
      <point x="94" y="217"/>
      <point x="238" y="189" type="curve" smooth="yes"/>
      <point x="312" y="176"/>
      <point x="336" y="161"/>
      <point x="336" y="139" type="curve" smooth="yes"/>
      <point x="336" y="116"/>
      <point x="307" y="101"/>
      <point x="261" y="101" type="curve" smooth="yes"/>
      <point x="197" y="101"/>
      <point x="141" y="127"/>
      <point x="109" y="171" type="curve"/>
      <point x="23" y="80" type="line"/>
      <point x="73" y="17"/>
      <point x="158" y="-10"/>
      <point x="268" y="-10" type="curve" smooth="yes"/>
      <point x="429" y="-10"/>
      <point x="506" y="65"/>
    </contour>
  </outline>
</glyph>
<glyph name="t" format="2">
  <advance width="435"/>
  <unicode hex="0074"/>
  <anchor x="159" y="250" name="center"/>
  <anchor x="253" y="0" name="bottom"/>
  <anchor x="184" y="712" name="top"/>
  <anchor x="290" y="0" name="bottomC"/>
  <anchor x="337" y="767" name="topright"/>
  <anchor x="393" y="13" name="ogonek"/>
  <outline>
    <contour>
      <point x="99" y="612" type="line"/>
      <point x="99" y="150" type="line" smooth="yes"/>
      <point x="100" y="34"/>
      <point x="170" y="-10"/>
      <point x="283" y="-10" type="curve" smooth="yes"/>
      <point x="335" y="-10"/>
      <point x="391" y="5"/>
      <point x="424" y="28" type="curve"/>
      <point x="407" y="133" type="line"/>
      <point x="387" y="119"/>
      <point x="366" y="111"/>
      <point x="335" y="111" type="curve" smooth="yes"/>
      <point x="293" y="111"/>
      <point x="269" y="130"/>
      <point x="269" y="178" type="curve" smooth="yes"/>
      <point x="269" y="659" type="line"/>
    </contour>
    <contour>
      <point x="13" y="500" type="line"/>
      <point x="13" y="379" type="line"/>
      <point x="419" y="379" type="line"/>
      <point x="419" y="500" type="line"/>
    </contour>
  </outline>
</glyph>
<glyph name="w" format="2">
  <advance width="908"/>
  <unicode hex="0077"/>
  <anchor x="454" y="500" name="top"/>
  <anchor x="747" y="0" name="ogonek"/>
  <anchor x="454" y="0" name="bottom"/>
  <anchor x="652" y="0" name="bottomC"/>
  <outline>
    <contour>
      <point x="402" y="500" type="line"/>
      <point x="543" y="0" type="line"/>
      <point x="667" y="0" type="line"/>
      <point x="538" y="500" type="line"/>
    </contour>
    <contour>
      <point x="9" y="500" type="line"/>
      <point x="161" y="0" type="line"/>
      <point x="300" y="0" type="line"/>
      <point x="188" y="500" type="line"/>
    </contour>
    <contour>
      <point x="370" y="500" type="line"/>
      <point x="240" y="0" type="line"/>
      <point x="364" y="0" type="line"/>
      <point x="502" y="500" type="line"/>
    </contour>
    <contour>
      <point x="720" y="500" type="line"/>
      <point x="608" y="0" type="line"/>
      <point x="747" y="0" type="line"/>
      <point x="898" y="500" type="line"/>
    </contour>
  </outline>
</glyph>
<glyph name="x" format="2">
  <advance width="589"/>
  <unicode hex="0078"/>
  <anchor x="295" y="500" name="top"/>
  <anchor x="583" y="0" name="ogonek"/>
  <anchor x="295" y="0" name="bottom"/>
  <anchor x="488" y="0" name="bottomC"/>
  <outline>
    <contour>
      <point x="12" y="500" type="line"/>
      <point x="203" y="228" type="line"/>
      <point x="262" y="228" type="line"/>
      <point x="391" y="0" type="line"/>
      <point x="583" y="0" type="line"/>
      <point x="386" y="280" type="line"/>
      <point x="330" y="275" type="line"/>
      <point x="205" y="500" type="line"/>
    </contour>
    <contour>
      <point x="391" y="500" type="line"/>
      <point x="264" y="274" type="line"/>
      <point x="206" y="282" type="line"/>
      <point x="5" y="0" type="line"/>
      <point x="193" y="0" type="line"/>
      <point x="327" y="234" type="line"/>
      <point x="390" y="230" type="line"/>
      <point x="579" y="500" type="line"/>
    </contour>
  </outline>
</glyph>
<glyph name="y" format="2">
  <advance width="570"/>
  <unicode hex="0079"/>
  <anchor x="303" y="500" name="top"/>
  <anchor x="193" y="-210" name="ogonek"/>
  <anchor x="187" y="-210" name="bottom"/>
  <anchor x="151" y="-210" name="bottomC"/>
  <outline>
    <contour>
      <point x="400" y="500" type="line"/>
      <point x="323" y="219" type="line"/>
      <point x="296" y="109" type="line"/>
      <point x="272" y="215" type="line"/>
      <point x="195" y="500" type="line"/>
      <point x="8" y="500" type="line"/>
      <point x="157" y="125" type="line"/>
      <point x="215" y="-11" type="line"/>
      <point x="203" y="-42" type="line" smooth="yes"/>
      <point x="188" y="-80"/>
      <point x="165" y="-90"/>
      <point x="125" y="-90" type="curve" smooth="yes"/>
      <point x="85" y="-90"/>
      <point x="61" y="-84"/>
      <point x="39" y="-64" type="curve"/>
      <point x="3" y="-178" type="line"/>
      <point x="36" y="-202"/>
      <point x="81" y="-215"/>
      <point x="139" y="-215" type="curve" smooth="yes"/>
      <point x="266" y="-215"/>
      <point x="332" y="-159"/>
      <point x="387" y="0" type="curve" smooth="yes"/>
      <point x="570" y="500" type="line"/>
    </contour>
  </outline>
</glyph>
<glyph name="asciitilde" format="2">
  <advance width="597"/>
  <unicode hex="007E"/>
  <outline>
    <contour>
      <point x="422" y="425" type="line"/>
      <point x="416" y="385"/>
      <point x="402" y="366"/>
      <point x="374" y="366" type="curve" smooth="yes"/>
      <point x="326" y="366"/>
      <point x="297" y="430"/>
      <point x="204" y="430" type="curve" smooth="yes"/>
      <point x="103" y="430"/>
      <point x="49" y="362"/>
      <point x="43" y="236" type="curve"/>
      <point x="175" y="236" type="line"/>
      <point x="181" y="275"/>
      <point x="195" y="295"/>
      <point x="223" y="295" type="curve" smooth="yes"/>
      <point x="272" y="295"/>
      <point x="300" y="231"/>
      <point x="393" y="231" type="curve" smooth="yes"/>
      <point x="494" y="231"/>
      <point x="548" y="298"/>
      <point x="554" y="425" type="curve"/>
    </contour>
  </outline>
</glyph>
<glyph name="sterling" format="2">
  <advance width="624"/>
  <unicode hex="00A3"/>
  <outline>
    <contour>
      <point x="53" y="355" type="line"/>
      <point x="53" y="256" type="line"/>
      <point x="498" y="256" type="line"/>
      <point x="498" y="355" type="line"/>
    </contour>
    <component base="sterling.part" xOffset="12"/>
  </outline>
</glyph>
<glyph name="yen" format="2">
  <advance width="678"/>
  <unicode hex="00A5"/>
  <outline>
    <contour>
      <point x="19" y="660" type="line"/>
      <point x="262" y="271" type="line"/>
      <point x="416" y="271" type="line"/>
      <point x="659" y="660" type="line"/>
      <point x="483" y="660" type="line"/>
      <point x="384" y="455" type="line"/>
      <point x="340" y="352" type="line"/>
      <point x="338" y="352" type="line"/>
      <point x="295" y="454" type="line"/>
      <point x="195" y="660" type="line"/>
    </contour>
    <contour>
      <point x="421" y="0" type="line"/>
      <point x="421" y="262" type="line"/>
      <point x="257" y="262" type="line"/>
      <point x="257" y="0" type="line"/>
    </contour>
    <contour>
      <point x="613" y="121" type="line"/>
      <point x="613" y="179" type="line"/>
      <point x="66" y="179" type="line"/>
      <point x="66" y="121" type="line"/>
    </contour>
    <contour>
      <point x="613" y="245" type="line"/>
      <point x="613" y="305" type="line"/>
      <point x="495" y="305" type="line"/>
      <point x="339" y="295" type="line"/>
      <point x="183" y="305" type="line"/>
      <point x="66" y="305" type="line"/>
      <point x="66" y="245" type="line"/>
    </contour>
  </outline>
</glyph>
<glyph name="section" format="2">
  <advance width="623"/>
  <unicode hex="00A7"/>
  <outline>
    <contour>
      <point x="83" y="491" type="curve" smooth="yes"/>
      <point x="83" y="388"/>
      <point x="154" y="334"/>
      <point x="339" y="316" type="curve" smooth="yes"/>
      <point x="446" y="305"/>
      <point x="479" y="287"/>
      <point x="479" y="253" type="curve" smooth="yes"/>
      <point x="479" y="212"/>
      <point x="430" y="195"/>
      <point x="364" y="178" type="curve"/>
      <point x="425" y="88" type="line"/>
      <point x="516" y="112"/>
      <point x="600" y="167"/>
      <point x="600" y="278" type="curve" smooth="yes"/>
      <point x="600" y="374"/>
      <point x="527" y="426"/>
      <point x="346" y="444" type="curve" smooth="yes"/>
      <point x="241" y="455"/>
      <point x="210" y="473"/>
      <point x="210" y="507" type="curve" smooth="yes"/>
      <point x="210" y="538"/>
      <point x="247" y="559"/>
      <point x="318" y="559" type="curve" smooth="yes"/>
      <point x="390" y="559"/>
      <point x="427" y="537"/>
      <point x="461" y="493" type="curve"/>
      <point x="548" y="574" type="line"/>
      <point x="499" y="634"/>
      <point x="440" y="670"/>
      <point x="318" y="670" type="curve" smooth="yes"/>
      <point x="171" y="670"/>
      <point x="83" y="597"/>
    </contour>
    <contour>
      <point x="541" y="60" type="curve" smooth="yes"/>
      <point x="541" y="164"/>
      <point x="470" y="217"/>
      <point x="285" y="236" type="curve" smooth="yes"/>
      <point x="178" y="247"/>
      <point x="145" y="264"/>
      <point x="145" y="299" type="curve" smooth="yes"/>
      <point x="145" y="340"/>
      <point x="193" y="357"/>
      <point x="260" y="373" type="curve"/>
      <point x="199" y="464" type="line"/>
      <point x="107" y="440"/>
      <point x="24" y="385"/>
      <point x="24" y="274" type="curve" smooth="yes"/>
      <point x="24" y="178"/>
      <point x="97" y="125"/>
      <point x="278" y="108" type="curve" smooth="yes"/>
      <point x="383" y="97"/>
      <point x="414" y="79"/>
      <point x="414" y="45" type="curve" smooth="yes"/>
      <point x="414" y="14"/>
      <point x="377" y="1"/>
      <point x="307" y="1" type="curve" smooth="yes"/>
      <point x="236" y="1"/>
      <point x="197" y="21"/>
      <point x="164" y="68" type="curve"/>
      <point x="76" y="-14" type="line"/>
      <point x="127" y="-76"/>
      <point x="190" y="-110"/>
      <point x="309" y="-110" type="curve" smooth="yes"/>
      <point x="453" y="-110"/>
      <point x="541" y="-45"/>
    </contour>
  </outline>
</glyph>
<glyph name="copyright" format="2">
  <advance width="772"/>
  <unicode hex="00A9"/>
  <outline>
    <contour>
      <point x="42" y="330" type="curve" smooth="yes"/>
      <point x="42" y="125"/>
      <point x="177" y="-10"/>
      <point x="386" y="-10" type="curve" smooth="yes"/>
      <point x="595" y="-10"/>
      <point x="730" y="125"/>
      <point x="730" y="330" type="curve" smooth="yes"/>
      <point x="730" y="535"/>
      <point x="595" y="670"/>
      <point x="386" y="670" type="curve" smooth="yes"/>
      <point x="177" y="670"/>
      <point x="42" y="535"/>
    </contour>
    <contour>
      <point x="204" y="329" type="curve" smooth="yes"/>
      <point x="204" y="212"/>
      <point x="273" y="138"/>
      <point x="382" y="138" type="curve" smooth="yes"/>
      <point x="483" y="138"/>
      <point x="529" y="173"/>
      <point x="561" y="254" type="curve"/>
      <point x="470" y="299" type="line"/>
      <point x="456" y="264"/>
      <point x="432" y="254"/>
      <point x="393" y="254" type="curve" smooth="yes"/>
      <point x="347" y="254"/>
      <point x="323" y="281"/>
      <point x="323" y="329" type="curve" smooth="yes"/>
      <point x="323" y="378"/>
      <point x="347" y="404"/>
      <point x="393" y="404" type="curve" smooth="yes"/>
      <point x="432" y="404"/>
      <point x="452" y="393"/>
      <point x="466" y="363" type="curve"/>
      <point x="562" y="410" type="line"/>
      <point x="539" y="477"/>
      <point x="485" y="520"/>
      <point x="382" y="520" type="curve" smooth="yes"/>
      <point x="273" y="520"/>
      <point x="204" y="446"/>
    </contour>
    <contour>
      <point x="641" y="330" type="curve" smooth="yes"/>
      <point x="641" y="175"/>
      <point x="541" y="74"/>
      <point x="386" y="74" type="curve" smooth="yes"/>
      <point x="231" y="74"/>
      <point x="131" y="175"/>
      <point x="131" y="330" type="curve" smooth="yes"/>
      <point x="131" y="485"/>
      <point x="231" y="586"/>
      <point x="386" y="586" type="curve" smooth="yes"/>
      <point x="541" y="586"/>
      <point x="641" y="485"/>
    </contour>
  </outline>
</glyph>
<glyph name="ordfeminine" format="2">
  <advance width="438"/>
  <unicode hex="00AA"/>
  <outline>
    <contour>
      <point x="130" y="526" type="line"/>
      <point x="138" y="566"/>
      <point x="161" y="577"/>
      <point x="190" y="577" type="curve" smooth="yes"/>
      <point x="222" y="577"/>
      <point x="239" y="559"/>
      <point x="239" y="529" type="curve" smooth="yes"/>
      <point x="239" y="395" type="line"/>
      <point x="257" y="389" type="line"/>
      <point x="257" y="334"/>
      <point x="293" y="306"/>
      <point x="347" y="306" type="curve" smooth="yes"/>
      <point x="371" y="306"/>
      <point x="388" y="311"/>
      <point x="403" y="318" type="curve"/>
      <point x="412" y="385" type="line"/>
      <point x="408" y="383"/>
      <point x="401" y="382"/>
      <point x="392" y="382" type="curve" smooth="yes"/>
      <point x="376" y="382"/>
      <point x="365" y="391"/>
      <point x="365" y="412" type="curve" smooth="yes"/>
      <point x="365" y="527" type="line" smooth="yes"/>
      <point x="365" y="617"/>
      <point x="310" y="662"/>
      <point x="197" y="662" type="curve" smooth="yes"/>
      <point x="95" y="662"/>
      <point x="38" y="619"/>
      <point x="28" y="550" type="curve"/>
    </contour>
    <contour>
      <point x="399" y="151" type="line"/>
      <point x="399" y="240" type="line"/>
      <point x="34" y="240" type="line"/>
      <point x="34" y="151" type="line"/>
    </contour>
    <contour>
      <point x="278" y="420" type="curve"/>
      <point x="239" y="429" type="line"/>
      <point x="239" y="397"/>
      <point x="210" y="381"/>
      <point x="182" y="381" type="curve" smooth="yes"/>
      <point x="159" y="381"/>
      <point x="144" y="389"/>
      <point x="144" y="411" type="curve" smooth="yes"/>
      <point x="144" y="433"/>
      <point x="162" y="447"/>
      <point x="196" y="455" type="curve" smooth="yes"/>
      <point x="270" y="472" type="line"/>
      <point x="260" y="521" type="line"/>
      <point x="159" y="501" type="line" smooth="yes"/>
      <point x="62" y="481"/>
      <point x="23" y="448"/>
      <point x="23" y="390" type="curve" smooth="yes"/>
      <point x="23" y="336"/>
      <point x="61" y="306"/>
      <point x="133" y="306" type="curve" smooth="yes"/>
      <point x="228" y="306"/>
      <point x="278" y="358"/>
    </contour>
  </outline>
</glyph>
<glyph name="logicalnot" format="2">
  <advance width="604"/>
  <unicode hex="00AC"/>
  <outline>
    <contour>
      <point x="407" y="314" type="line"/>
      <point x="407" y="97" type="line"/>
      <point x="544" y="97" type="line"/>
      <point x="544" y="314" type="line"/>
    </contour>
    <contour>
      <point x="60" y="386" type="line"/>
      <point x="60" y="264" type="line"/>
      <point x="544" y="264" type="line"/>
      <point x="544" y="386" type="line"/>
    </contour>
  </outline>
</glyph>
<glyph name="threesuperior" format="2">
  <advance width="379"/>
  <unicode hex="00B3"/>
  <anchor x="183" y="530" name="_indexring"/>
  <outline>
    <contour>
      <point x="19" y="626" type="curve"/>
      <point x="129" y="589" type="line"/>
      <point x="133" y="626"/>
      <point x="153" y="641"/>
      <point x="182" y="641" type="curve" smooth="yes"/>
      <point x="210" y="641"/>
      <point x="226" y="627"/>
      <point x="226" y="600" type="curve" smooth="yes"/>
      <point x="226" y="574"/>
      <point x="210" y="560"/>
      <point x="179" y="560" type="curve" smooth="yes"/>
      <point x="160" y="560" type="line"/>
      <point x="160" y="495" type="line"/>
      <point x="183" y="495" type="line" smooth="yes"/>
      <point x="217" y="495"/>
      <point x="233" y="483"/>
      <point x="233" y="459" type="curve" smooth="yes"/>
      <point x="233" y="433"/>
      <point x="214" y="416"/>
      <point x="183" y="416" type="curve" smooth="yes"/>
      <point x="148" y="416"/>
      <point x="127" y="432"/>
      <point x="124" y="470" type="curve"/>
      <point x="9" y="428" type="line"/>
      <point x="34" y="355"/>
      <point x="96" y="327"/>
      <point x="192" y="327" type="curve" smooth="yes"/>
      <point x="293" y="327"/>
      <point x="355" y="373"/>
      <point x="355" y="445" type="curve" smooth="yes"/>
      <point x="355" y="499"/>
      <point x="320" y="529"/>
      <point x="263" y="530" type="curve"/>
      <point x="263" y="533" type="line"/>
      <point x="312" y="536"/>
      <point x="347" y="568"/>
      <point x="347" y="622" type="curve" smooth="yes"/>
      <point x="347" y="693"/>
      <point x="291" y="735"/>
      <point x="188" y="735" type="curve" smooth="yes"/>
      <point x="102" y="735"/>
      <point x="32" y="703"/>
    </contour>
  </outline>
</glyph>
<glyph name="onesuperior" format="2">
  <advance width="298"/>
  <unicode hex="00B9"/>
  <anchor x="168" y="527" name="_indexring"/>
  <outline>
    <contour>
      <point x="256" y="730" type="line"/>
      <point x="152" y="730" type="line"/>
      <point x="139" y="667"/>
      <point x="133" y="590"/>
      <point x="133" y="549" type="curve" smooth="yes"/>
      <point x="133" y="333" type="line"/>
      <point x="256" y="333" type="line"/>
      <point x="256" y="637" type="line"/>
    </contour>
    <contour>
      <point x="218" y="707" type="curve"/>
      <point x="152" y="730" type="line"/>
      <point x="130" y="703"/>
      <point x="62" y="672"/>
      <point x="19" y="666" type="curve"/>
      <point x="19" y="565" type="line"/>
      <point x="108" y="571"/>
      <point x="194" y="655"/>
    </contour>
  </outline>
</glyph>
<glyph name="ordmasculine" format="2">
  <advance width="422"/>
  <unicode hex="00BA"/>
  <outline>
    <contour>
      <point x="393" y="484" type="curve" smooth="yes"/>
      <point x="393" y="596"/>
      <point x="326" y="662"/>
      <point x="211" y="662" type="curve" smooth="yes"/>
      <point x="97" y="662"/>
      <point x="30" y="596"/>
      <point x="30" y="484" type="curve" smooth="yes"/>
      <point x="30" y="372"/>
      <point x="97" y="306"/>
      <point x="211" y="306" type="curve" smooth="yes"/>
      <point x="326" y="306"/>
      <point x="393" y="372"/>
    </contour>
    <contour>
      <point x="386" y="151" type="line"/>
      <point x="386" y="240" type="line"/>
      <point x="36" y="240" type="line"/>
      <point x="36" y="151" type="line"/>
    </contour>
    <contour>
      <point x="156" y="484" type="curve" smooth="yes"/>
      <point x="156" y="551"/>
      <point x="173" y="580"/>
      <point x="211" y="580" type="curve" smooth="yes"/>
      <point x="250" y="580"/>
      <point x="266" y="551"/>
      <point x="266" y="484" type="curve" smooth="yes"/>
      <point x="266" y="417"/>
      <point x="250" y="388"/>
      <point x="211" y="388" type="curve" smooth="yes"/>
      <point x="173" y="388"/>
      <point x="156" y="417"/>
    </contour>
  </outline>
</glyph>
<glyph name="AE" format="2">
  <advance width="924"/>
  <unicode hex="00C6"/>
  <anchor x="501" y="660" name="top"/>
  <anchor x="894" y="0" name="ogonek"/>
  <anchor x="501" y="0" name="bottom"/>
  <anchor x="524" y="0" name="bottomC"/>
  <outline>
    <contour>
      <point x="279" y="660" type="line"/>
      <point x="-4" y="0" type="line"/>
      <point x="169" y="0" type="line"/>
      <point x="419" y="660" type="line"/>
    </contour>
    <contour>
      <point x="178" y="308" type="line"/>
      <point x="132" y="196" type="line"/>
      <point x="497" y="196" type="line"/>
      <point x="497" y="308" type="line"/>
    </contour>
    <contour>
      <point x="491" y="127" type="line"/>
      <point x="491" y="0" type="line"/>
      <point x="894" y="0" type="line"/>
      <point x="894" y="127" type="line"/>
    </contour>
    <contour>
      <point x="421" y="660" type="line"/>
      <point x="421" y="0" type="line"/>
      <point x="581" y="0" type="line"/>
      <point x="581" y="660" type="line"/>
    </contour>
    <contour>
      <point x="491" y="391" type="line"/>
      <point x="491" y="271" type="line"/>
      <point x="810" y="271" type="line"/>
      <point x="810" y="391" type="line"/>
    </contour>
    <contour>
      <point x="332" y="660" type="line"/>
      <point x="292" y="538" type="line"/>
      <point x="481" y="538" type="line"/>
      <point x="517" y="533" type="line"/>
      <point x="880" y="533" type="line"/>
      <point x="880" y="660" type="line"/>
    </contour>
  </outline>
</glyph>
<glyph name="multiply" format="2">
  <advance width="604"/>
  <unicode hex="00D7"/>
  <outline>
    <contour>
      <point x="54" y="170" type="line"/>
      <point x="458" y="574" type="line"/>
      <point x="550" y="482" type="line"/>
      <point x="146" y="78" type="line"/>
    </contour>
    <contour>
      <point x="54" y="482" type="line"/>
      <point x="146" y="574" type="line"/>
      <point x="550" y="170" type="line"/>
      <point x="458" y="78" type="line"/>
    </contour>
  </outline>
</glyph>
<glyph name="Oslash" format="2">
  <advance width="737"/>
  <unicode hex="00D8"/>
  <anchor x="369" y="660" name="top"/>
  <anchor x="452" y="0" name="ogonek"/>
  <anchor x="369" y="0" name="bottom"/>
  <anchor x="369" y="0" name="bottomC"/>
  <outline>
    <contour>
      <point x="586" y="681" type="line"/>
      <point x="497" y="557" type="line"/>
      <point x="545" y="507" type="line"/>
      <point x="672" y="681" type="line"/>
    </contour>
    <contour>
      <point x="195" y="140" type="line"/>
      <point x="248" y="92" type="line"/>
      <point x="543" y="510" type="line"/>
      <point x="490" y="559" type="line"/>
    </contour>
    <contour>
      <point x="150" y="-27" type="line"/>
      <point x="239" y="96" type="line"/>
      <point x="189" y="146" type="line"/>
      <point x="64" y="-27" type="line"/>
    </contour>
    <component base="O"/>
  </outline>
</glyph>
<glyph name="Thorn" format="2">
  <advance width="666"/>
  <unicode hex="00DE"/>
  <anchor x="159" y="660" name="top"/>
  <anchor x="245" y="0" name="ogonek"/>
  <anchor x="159" y="0" name="bottom"/>
  <anchor x="159" y="0" name="bottomC"/>
  <outline>
    <contour>
      <point x="159" y="559" type="line"/>
      <point x="159" y="430" type="line"/>
      <point x="346" y="430" type="line" smooth="yes"/>
      <point x="417" y="430"/>
      <point x="454" y="401"/>
      <point x="454" y="337" type="curve" smooth="yes"/>
      <point x="454" y="272"/>
      <point x="417" y="243"/>
      <point x="346" y="243" type="curve" smooth="yes"/>
      <point x="159" y="243" type="line"/>
      <point x="159" y="115" type="line"/>
      <point x="366" y="115" type="line" smooth="yes"/>
      <point x="534" y="115"/>
      <point x="628" y="192"/>
      <point x="627" y="337" type="curve" smooth="yes"/>
      <point x="628" y="483"/>
      <point x="534" y="559"/>
      <point x="366" y="559" type="curve" smooth="yes"/>
    </contour>
    <contour>
      <point x="73" y="660" type="line"/>
      <point x="73" y="0" type="line"/>
      <point x="245" y="0" type="line"/>
      <point x="245" y="660" type="line"/>
    </contour>
  </outline>
</glyph>
<glyph name="ae" format="2">
  <advance width="877"/>
  <unicode hex="00E6"/>
  <anchor x="423" y="500" name="top"/>
  <anchor x="704" y="6" name="ogonek"/>
  <anchor x="423" y="0" name="bottom"/>
  <anchor x="613" y="0" name="bottomC"/>
  <outline>
    <contour>
      <point x="832" y="121" type="curve"/>
      <point x="695" y="165" type="line"/>
      <point x="683" y="130"/>
      <point x="662" y="110"/>
      <point x="612" y="110" type="curve" smooth="yes"/>
      <point x="548" y="110"/>
      <point x="502" y="148"/>
      <point x="502" y="248" type="curve" smooth="yes"/>
      <point x="502" y="347"/>
      <point x="536" y="391"/>
      <point x="597" y="391" type="curve" smooth="yes"/>
      <point x="661" y="391"/>
      <point x="683" y="340"/>
      <point x="683" y="253" type="curve"/>
      <point x="763" y="287" type="line"/>
      <point x="442" y="287" type="line"/>
      <point x="442" y="212" type="line"/>
      <point x="837" y="212" type="line"/>
      <point x="840" y="225"/>
      <point x="842" y="248"/>
      <point x="842" y="270" type="curve" smooth="yes"/>
      <point x="842" y="409"/>
      <point x="760" y="510"/>
      <point x="603" y="510" type="curve" smooth="yes"/>
      <point x="469" y="510"/>
      <point x="383" y="410"/>
      <point x="383" y="250" type="curve" smooth="yes"/>
      <point x="383" y="78"/>
      <point x="464" y="-10"/>
      <point x="606" y="-10" type="curve" smooth="yes"/>
      <point x="723" y="-10"/>
      <point x="803" y="35"/>
    </contour>
    <contour>
      <point x="438" y="179" type="curve"/>
      <point x="343" y="176" type="line"/>
      <point x="343" y="116"/>
      <point x="298" y="88"/>
      <point x="252" y="88" type="curve" smooth="yes"/>
      <point x="213" y="88"/>
      <point x="192" y="106"/>
      <point x="192" y="137" type="curve" smooth="yes"/>
      <point x="192" y="174"/>
      <point x="216" y="192"/>
      <point x="272" y="203" type="curve" smooth="yes"/>
      <point x="390" y="226" type="line"/>
      <point x="375" y="295" type="line"/>
      <point x="218" y="268" type="line" smooth="yes"/>
      <point x="89" y="244"/>
      <point x="32" y="198"/>
      <point x="32" y="114" type="curve" smooth="yes"/>
      <point x="32" y="40"/>
      <point x="86" y="-10"/>
      <point x="195" y="-10" type="curve" smooth="yes"/>
      <point x="352" y="-10"/>
      <point x="438" y="72"/>
    </contour>
    <contour>
      <point x="483" y="164" type="line"/>
      <point x="483" y="298" type="line" smooth="yes"/>
      <point x="483" y="433"/>
      <point x="394" y="510"/>
      <point x="263" y="510" type="curve" smooth="yes"/>
      <point x="130" y="510"/>
      <point x="57" y="448"/>
      <point x="40" y="353" type="curve"/>
      <point x="177" y="318" type="line"/>
      <point x="190" y="372"/>
      <point x="220" y="393"/>
      <point x="267" y="393" type="curve" smooth="yes"/>
      <point x="317" y="393"/>
      <point x="343" y="365"/>
      <point x="343" y="319" type="curve" smooth="yes"/>
      <point x="343" y="140" type="line"/>
    </contour>
  </outline>
</glyph>
<glyph name="divide" format="2">
  <advance width="604"/>
  <unicode hex="00F7"/>
  <outline>
    <contour>
      <point x="50" y="386" type="line"/>
      <point x="50" y="264" type="line"/>
      <point x="554" y="264" type="line"/>
      <point x="554" y="386" type="line"/>
    </contour>
    <component base="period" xScale="0.8662000000000001" yScale="0.9178" xOffset="177" yOffset="36"/>
    <component base="period" xScale="0.8662000000000001" yScale="0.9178" xOffset="177" yOffset="466"/>
  </outline>
</glyph>
<glyph name="oslash" format="2">
  <advance width="602"/>
  <unicode hex="00F8"/>
  <anchor x="301" y="500" name="top"/>
  <anchor x="422" y="13" name="ogonek"/>
  <anchor x="301" y="0" name="bottom"/>
  <anchor x="301" y="0" name="bottomC"/>
  <outline>
    <contour>
      <point x="37" y="250" type="curve" smooth="yes"/>
      <point x="37" y="164"/>
      <point x="63" y="98"/>
      <point x="112" y="53" type="curve"/>
      <point x="51" y="-27" type="line"/>
      <point x="118" y="-27" type="line"/>
      <point x="156" y="23" type="line"/>
      <point x="195" y="1"/>
      <point x="244" y="-10"/>
      <point x="301" y="-10" type="curve" smooth="yes"/>
      <point x="468" y="-10"/>
      <point x="565" y="86"/>
      <point x="565" y="250" type="curve" smooth="yes"/>
      <point x="565" y="331"/>
      <point x="541" y="396"/>
      <point x="496" y="441" type="curve"/>
      <point x="560" y="521" type="line"/>
      <point x="493" y="521" type="line"/>
      <point x="455" y="473" type="line"/>
      <point x="414" y="497"/>
      <point x="362" y="510"/>
      <point x="301" y="510" type="curve" smooth="yes"/>
      <point x="134" y="510"/>
      <point x="37" y="414"/>
    </contour>
    <contour>
      <point x="207" y="250" type="curve" smooth="yes"/>
      <point x="207" y="348"/>
      <point x="238" y="389"/>
      <point x="301" y="389" type="curve" smooth="yes"/>
      <point x="327" y="389"/>
      <point x="347" y="382"/>
      <point x="362" y="366" type="curve"/>
      <point x="246" y="213" type="line"/>
      <point x="223" y="178" type="line"/>
      <point x="222" y="178" type="line"/>
      <point x="213" y="198"/>
      <point x="207" y="221"/>
    </contour>
    <contour>
      <point x="247" y="128" type="curve"/>
      <point x="360" y="278" type="line"/>
      <point x="382" y="310" type="line"/>
      <point x="383" y="310" type="line"/>
      <point x="391" y="294"/>
      <point x="395" y="273"/>
      <point x="395" y="250" type="curve" smooth="yes"/>
      <point x="395" y="152"/>
      <point x="364" y="111"/>
      <point x="301" y="111" type="curve" smooth="yes"/>
      <point x="279" y="111"/>
      <point x="260" y="116"/>
    </contour>
  </outline>
</glyph>
<glyph name="aogonek" format="2">
  <advance width="579"/>
  <unicode hex="0105"/>
  <anchor x="277" y="500" name="top"/>
  <anchor x="519" y="-210" name="ogonek"/>
  <anchor x="277" y="-210" name="bottom"/>
  <anchor x="495" y="-210" name="bottomC"/>
  <outline>
    <contour>
      <point x="40" y="353" type="curve"/>
      <point x="177" y="318" type="line"/>
      <point x="189" y="373"/>
      <point x="223" y="393"/>
      <point x="266" y="393" type="curve" smooth="yes"/>
      <point x="314" y="393"/>
      <point x="340" y="364"/>
      <point x="340" y="319" type="curve" smooth="yes"/>
      <point x="340" y="118" type="line"/>
      <point x="368" y="120" type="line" smooth="yes"/>
      <point x="368" y="40"/>
      <point x="420" y="1"/>
      <point x="498" y="1" type="curve" smooth="yes"/>
      <point x="519" y="1"/>
      <point x="543" y="1"/>
      <point x="563" y="3" type="curve"/>
      <point x="575" y="101" type="line"/>
      <point x="567" y="98"/>
      <point x="556" y="97"/>
      <point x="544" y="97" type="curve" smooth="yes"/>
      <point x="520" y="97"/>
      <point x="509" y="110"/>
      <point x="509" y="136" type="curve" smooth="yes"/>
      <point x="509" y="318" type="line" smooth="yes"/>
      <point x="509" y="447"/>
      <point x="427" y="510"/>
      <point x="274" y="510" type="curve" smooth="yes"/>
      <point x="137" y="510"/>
      <point x="56" y="449"/>
    </contour>
    <contour>
      <point x="332" y="-102" type="curve" smooth="yes"/>
      <point x="332" y="-179"/>
      <point x="392" y="-215"/>
      <point x="470" y="-215" type="curve" smooth="yes"/>
      <point x="512" y="-215"/>
      <point x="545" y="-209"/>
      <point x="572" y="-192" type="curve"/>
      <point x="549" y="-110" type="line"/>
      <point x="537" y="-118"/>
      <point x="519" y="-120"/>
      <point x="503" y="-120" type="curve" smooth="yes"/>
      <point x="469" y="-120"/>
      <point x="451" y="-103"/>
      <point x="451" y="-76" type="curve" smooth="yes"/>
      <point x="451" y="-37"/>
      <point x="483" y="-13"/>
      <point x="563" y="3" type="curve"/>
      <point x="485" y="27" type="line"/>
      <point x="389" y="14"/>
      <point x="332" y="-30"/>
    </contour>
    <contour>
      <point x="227" y="274" type="line" smooth="yes"/>
      <point x="91" y="247"/>
      <point x="32" y="195"/>
      <point x="32" y="115" type="curve" smooth="yes"/>
      <point x="32" y="33"/>
      <point x="92" y="-10"/>
      <point x="193" y="-10" type="curve" smooth="yes"/>
      <point x="313" y="-10"/>
      <point x="386" y="61"/>
      <point x="386" y="148" type="curve"/>
      <point x="340" y="166" type="line"/>
      <point x="340" y="119"/>
      <point x="299" y="93"/>
      <point x="253" y="93" type="curve" smooth="yes"/>
      <point x="218" y="93"/>
      <point x="195" y="108"/>
      <point x="195" y="140" type="curve" smooth="yes"/>
      <point x="195" y="173"/>
      <point x="223" y="196"/>
      <point x="275" y="208" type="curve" smooth="yes"/>
      <point x="388" y="234" type="line"/>
      <point x="373" y="303" type="line"/>
    </contour>
  </outline>
</glyph>
<glyph name="Dcroat" format="2">
  <advance width="741"/>
  <unicode hex="0110"/>
  <anchor x="352" y="0" name="bottom"/>
  <anchor x="352" y="660" name="top"/>
  <anchor x="376" y="0" name="ogonek"/>
  <anchor x="179" y="140" name="center"/>
  <anchor x="356" y="0" name="bottomC"/>
  <outline>
    <contour>
      <point x="13" y="387" type="line"/>
      <point x="13" y="273" type="line"/>
      <point x="399" y="273" type="line"/>
      <point x="399" y="387" type="line"/>
    </contour>
    <component base="D" xOffset="23"/>
  </outline>
</glyph>
<glyph name="dcroat" format="2">
  <advance width="628"/>
  <unicode hex="0111"/>
  <anchor x="315" y="250" name="center"/>
  <anchor x="309" y="0" name="bottom"/>
  <anchor x="483" y="712" name="top"/>
  <anchor x="257" y="0" name="bottomC"/>
  <anchor x="631" y="712" name="topright"/>
  <anchor x="330" y="13" name="ogonek"/>
  <outline>
    <contour>
      <point x="268" y="635" type="line"/>
      <point x="268" y="538" type="line"/>
      <point x="644" y="538" type="line"/>
      <point x="644" y="635" type="line"/>
    </contour>
    <component base="d"/>
  </outline>
</glyph>
<glyph name="gbreve" format="2">
  <advance width="560"/>
  <unicode hex="011F"/>
  <outline>
    <contour>
      <point x="412" y="456" type="curve"/>
      <point x="466" y="436" type="line"/>
      <point x="465" y="499"/>
      <point x="509" y="525"/>
      <point x="571" y="521" type="curve"/>
      <point x="552" y="634" type="line"/>
      <point x="464" y="634"/>
      <point x="399" y="552"/>
    </contour>
    <component base="gbase" xOffset="-8"/>
    <component base="breve" xOffset="34"/>
  </outline>
</glyph>
<glyph name="uni0123" format="2">
  <advance width="560"/>
  <unicode hex="0123"/>
  <anchor x="286" y="-210" name="bottomC"/>
  <anchor x="260" y="500" name="top"/>
  <anchor x="414" y="-197" name="ogonek"/>
  <anchor x="286" y="-210" name="bottom"/>
  <outline>
    <contour>
      <point x="276" y="772" type="line"/>
      <point x="205" y="563" type="line"/>
      <point x="347" y="563" type="line"/>
      <point x="383" y="772" type="line"/>
    </contour>
    <component base="g"/>
  </outline>
</glyph>
<glyph name="idotless" format="2">
  <advance width="291"/>
  <unicode hex="0131"/>
  <anchor x="146" y="500" name="top"/>
  <anchor x="219" y="6" name="ogonek"/>
  <anchor x="146" y="0" name="bottom"/>
  <anchor x="146" y="0" name="bottomC"/>
  <outline>
    <contour>
      <point x="61" y="500" type="line"/>
      <point x="61" y="0" type="line"/>
      <point x="231" y="0" type="line"/>
      <point x="231" y="500" type="line"/>
    </contour>
  </outline>
</glyph>
<glyph name="OE" format="2">
  <advance width="1048"/>
  <unicode hex="0152"/>
  <anchor x="577" y="660" name="top"/>
  <anchor x="1018" y="0" name="ogonek"/>
  <anchor x="577" y="0" name="bottom"/>
  <anchor x="642" y="0" name="bottomC"/>
  <outline>
    <contour>
      <point x="45" y="330" type="curve" smooth="yes"/>
      <point x="45" y="117"/>
      <point x="165" y="-10"/>
      <point x="354" y="-10" type="curve" smooth="yes"/>
      <point x="544" y="-10"/>
      <point x="645" y="146"/>
      <point x="645" y="330" type="curve" smooth="yes"/>
      <point x="645" y="514"/>
      <point x="546" y="670"/>
      <point x="356" y="670" type="curve" smooth="yes"/>
      <point x="164" y="670"/>
      <point x="45" y="543"/>
    </contour>
    <contour>
      <point x="506" y="330" type="curve" smooth="yes"/>
      <point x="506" y="195"/>
      <point x="454" y="125"/>
      <point x="363" y="125" type="curve" smooth="yes"/>
      <point x="268" y="125"/>
      <point x="218" y="195"/>
      <point x="218" y="330" type="curve" smooth="yes"/>
      <point x="218" y="465"/>
      <point x="268" y="535"/>
      <point x="363" y="535" type="curve" smooth="yes"/>
      <point x="454" y="535"/>
      <point x="506" y="465"/>
    </contour>
    <contour>
      <point x="590" y="133" type="line"/>
      <point x="590" y="0" type="line"/>
      <point x="1018" y="0" type="line"/>
      <point x="1018" y="133" type="line"/>
    </contour>
    <contour>
      <point x="560" y="660" type="line"/>
      <point x="560" y="0" type="line"/>
      <point x="675" y="0" type="line"/>
      <point x="675" y="660" type="line"/>
    </contour>
    <contour>
      <point x="590" y="393" type="line"/>
      <point x="590" y="268" type="line"/>
      <point x="934" y="268" type="line"/>
      <point x="934" y="393" type="line"/>
    </contour>
    <contour>
      <point x="590" y="660" type="line"/>
      <point x="590" y="527" type="line"/>
      <point x="1005" y="527" type="line"/>
      <point x="1005" y="660" type="line"/>
    </contour>
  </outline>
</glyph>
<glyph name="uni0162" format="2">
  <advance width="653"/>
  <unicode hex="0162"/>
  <anchor x="327" y="-210" name="bottom"/>
  <anchor x="327" y="660" name="top"/>
  <anchor x="349" y="-210" name="ogonek"/>
  <anchor x="327" y="330" name="center"/>
  <anchor x="325" y="-210" name="bottomC"/>
  <outline>
    <contour>
      <point x="360" y="-69" type="curve" smooth="yes"/>
      <point x="360" y="-105"/>
      <point x="334" y="-123"/>
      <point x="304" y="-123" type="curve" smooth="yes"/>
      <point x="271" y="-123"/>
      <point x="252" y="-110"/>
      <point x="236" y="-92" type="curve"/>
      <point x="191" y="-174" type="line"/>
      <point x="216" y="-198"/>
      <point x="256" y="-215"/>
      <point x="318" y="-215" type="curve" smooth="yes"/>
      <point x="400" y="-215"/>
      <point x="462" y="-176"/>
      <point x="462" y="-93" type="curve" smooth="yes"/>
      <point x="462" y="-24"/>
      <point x="417" y="18"/>
      <point x="319" y="34" type="curve"/>
      <point x="284" y="0" type="line"/>
      <point x="334" y="-16"/>
      <point x="360" y="-34"/>
    </contour>
    <component base="T"/>
  </outline>
</glyph>
<glyph name="longs" format="2">
  <advance width="325"/>
  <unicode hex="017F"/>
  <anchor x="203" y="712" name="top"/>
  <anchor x="224" y="0" name="ogonek"/>
  <anchor x="150" y="0" name="bottom"/>
  <anchor x="139" y="0" name="bottomC"/>
  <outline>
    <contour>
      <point x="224" y="0" type="line"/>
      <point x="224" y="533" type="line" smooth="yes"/>
      <point x="224" y="586"/>
      <point x="253" y="607"/>
      <point x="294" y="607" type="curve" smooth="yes"/>
      <point x="312" y="607"/>
      <point x="324" y="604"/>
      <point x="337" y="595" type="curve"/>
      <point x="347" y="701" type="line"/>
      <point x="325" y="719"/>
      <point x="296" y="726"/>
      <point x="250" y="726" type="curve" smooth="yes"/>
      <point x="141" y="726"/>
      <point x="59" y="672"/>
      <point x="59" y="546" type="curve" smooth="yes"/>
      <point x="59" y="0" type="line"/>
    </contour>
  </outline>
</glyph>
<glyph name="florin" format="2">
  <advance width="516"/>
  <unicode hex="0192"/>
  <outline>
    <contour>
      <point x="217" y="552" type="curve" smooth="yes"/>
      <point x="134" y="66" type="line" smooth="yes"/>
      <point x="126" y="17"/>
      <point x="96" y="-10"/>
      <point x="52" y="-10" type="curve" smooth="yes"/>
      <point x="30" y="-10"/>
      <point x="11" y="-5"/>
      <point x="-4" y="6" type="curve"/>
      <point x="-26" y="-101" type="line"/>
      <point x="7" y="-122"/>
      <point x="32" y="-128"/>
      <point x="82" y="-128" type="curve" smooth="yes"/>
      <point x="191" y="-128"/>
      <point x="259" y="-66"/>
      <point x="279" y="47" type="curve" smooth="yes"/>
      <point x="361" y="532" type="line" smooth="yes"/>
      <point x="370" y="582"/>
      <point x="399" y="609"/>
      <point x="444" y="609" type="curve" smooth="yes"/>
      <point x="466" y="609"/>
      <point x="483" y="604"/>
      <point x="499" y="593" type="curve"/>
      <point x="521" y="700" type="line"/>
      <point x="488" y="721"/>
      <point x="463" y="727"/>
      <point x="413" y="727" type="curve" smooth="yes"/>
      <point x="304" y="727"/>
      <point x="236" y="665"/>
    </contour>
    <contour>
      <point x="38" y="417" type="line"/>
      <point x="38" y="299" type="line"/>
      <point x="477" y="299" type="line"/>
      <point x="477" y="417" type="line"/>
    </contour>
  </outline>
</glyph>
<glyph name="jdotless" format="2">
  <advance width="291"/>
  <unicode hex="0237"/>
  <anchor x="146" y="500" name="top"/>
  <anchor x="119" y="-204" name="ogonek"/>
  <anchor x="69" y="-210" name="bottom"/>
  <anchor x="69" y="-210" name="bottomC"/>
  <outline>
    <contour>
      <point x="61" y="500" type="line"/>
      <point x="61" y="-13" type="line" smooth="yes"/>
      <point x="61" y="-72"/>
      <point x="35" y="-93"/>
      <point x="-7" y="-93" type="curve" smooth="yes"/>
      <point x="-33" y="-93"/>
      <point x="-56" y="-85"/>
      <point x="-70" y="-73" type="curve"/>
      <point x="-94" y="-183" type="line"/>
      <point x="-60" y="-204"/>
      <point x="-17" y="-215"/>
      <point x="37" y="-215" type="curve" smooth="yes"/>
      <point x="157" y="-215"/>
      <point x="231" y="-163"/>
      <point x="231" y="-28" type="curve" smooth="yes"/>
      <point x="231" y="500" type="line"/>
    </contour>
  </outline>
</glyph>
<glyph name="caron" format="2">
  <advance width="500"/>
  <unicode hex="02C7"/>
  <anchor x="254" y="500" name="_top"/>
  <outline>
    <contour>
      <point x="319" y="738" type="line"/>
      <point x="250" y="649" type="line"/>
      <point x="181" y="738" type="line"/>
      <point x="59" y="738" type="line"/>
      <point x="168" y="565" type="line"/>
      <point x="332" y="565" type="line"/>
      <point x="441" y="738" type="line"/>
    </contour>
  </outline>
</glyph>
<glyph name="ogonek" format="2">
  <advance width="530"/>
  <unicode hex="02DB"/>
  <anchor x="359" y="12" name="_ogonek"/>
  <outline>
    <contour>
      <point x="291" y="36" type="line"/>
      <point x="191" y="15"/>
      <point x="125" y="-27"/>
      <point x="125" y="-104" type="curve" smooth="yes"/>
      <point x="125" y="-178"/>
      <point x="185" y="-215"/>
      <point x="264" y="-215" type="curve" smooth="yes"/>
      <point x="306" y="-215"/>
      <point x="340" y="-209"/>
      <point x="367" y="-192" type="curve"/>
      <point x="345" y="-110" type="line"/>
      <point x="332" y="-118"/>
      <point x="314" y="-120"/>
      <point x="299" y="-120" type="curve" smooth="yes"/>
      <point x="265" y="-120"/>
      <point x="244" y="-103"/>
      <point x="244" y="-76" type="curve" smooth="yes"/>
      <point x="244" y="-42"/>
      <point x="274" y="-14"/>
      <point x="359" y="12" type="curve"/>
    </contour>
  </outline>
</glyph>
<glyph name="commaaccent" format="2">
  <advance width="300"/>
  <unicode hex="0326"/>
  <anchor x="0" y="0" name="_bottom"/>
  <outline>
    <contour>
      <point x="-71" y="-60" type="line"/>
      <point x="-103" y="-241" type="line"/>
      <point x="7" y="-241" type="line"/>
      <point x="78" y="-60" type="line"/>
    </contour>
  </outline>
</glyph>
<glyph name="Germandbls" format="2">
  <advance width="719"/>
  <unicode hex="1E9E"/>
  <anchor x="375" y="660" name="top"/>
  <anchor x="529" y="0" name="ogonek"/>
  <anchor x="375" y="0" name="bottom"/>
  <anchor x="480" y="0" name="bottomC"/>
  <outline>
    <contour>
      <point x="245" y="0" type="line"/>
      <point x="245" y="394" type="line" smooth="yes"/>
      <point x="245" y="479"/>
      <point x="296" y="530"/>
      <point x="375" y="530" type="curve" smooth="yes"/>
      <point x="494" y="530" type="line"/>
      <point x="347" y="363" type="line"/>
      <point x="459" y="307" type="line"/>
      <point x="658" y="532" type="line"/>
      <point x="658" y="660" type="line"/>
      <point x="345" y="660" type="line" smooth="yes"/>
      <point x="178" y="660"/>
      <point x="73" y="568"/>
      <point x="73" y="419" type="curve" smooth="yes"/>
      <point x="73" y="0" type="line"/>
    </contour>
    <contour>
      <point x="696" y="187" type="curve" smooth="yes"/>
      <point x="696" y="311"/>
      <point x="604" y="363"/>
      <point x="483" y="363" type="curve" smooth="yes"/>
      <point x="347" y="363" type="line"/>
      <point x="347" y="267" type="line"/>
      <point x="435" y="267" type="line" smooth="yes"/>
      <point x="497" y="267"/>
      <point x="535" y="241"/>
      <point x="535" y="193" type="curve" smooth="yes"/>
      <point x="535" y="147"/>
      <point x="499" y="118"/>
      <point x="446" y="118" type="curve" smooth="yes"/>
      <point x="401" y="118"/>
      <point x="369" y="130"/>
      <point x="344" y="153" type="curve"/>
      <point x="298" y="53" type="line"/>
      <point x="330" y="18"/>
      <point x="386" y="-5"/>
      <point x="481" y="-5" type="curve" smooth="yes"/>
      <point x="605" y="-5"/>
      <point x="696" y="62"/>
    </contour>
  </outline>
</glyph>
<glyph name="endash" format="2">
  <advance width="692"/>
  <unicode hex="2013"/>
  <outline>
    <contour>
      <point x="78" y="335" type="line"/>
      <point x="78" y="200" type="line"/>
      <point x="614" y="200" type="line"/>
      <point x="614" y="335" type="line"/>
    </contour>
  </outline>
</glyph>
<glyph name="emdash" format="2">
  <advance width="1006"/>
  <unicode hex="2014"/>
  <outline>
    <contour>
      <point x="78" y="335" type="line"/>
      <point x="78" y="200" type="line"/>
      <point x="928" y="200" type="line"/>
      <point x="928" y="335" type="line"/>
    </contour>
  </outline>
</glyph>
<glyph name="daggerdbl" format="2">
  <advance width="595"/>
  <unicode hex="2021"/>
  <outline>
    <contour>
      <point x="224" y="660" type="line"/>
      <point x="224" y="-100" type="line"/>
      <point x="370" y="-100" type="line"/>
      <point x="370" y="660" type="line"/>
    </contour>
    <contour>
      <point x="40" y="474" type="line"/>
      <point x="40" y="350" type="line"/>
      <point x="555" y="350" type="line"/>
      <point x="555" y="474" type="line"/>
    </contour>
    <contour>
      <point x="40" y="204" type="line"/>
      <point x="40" y="80" type="line"/>
      <point x="555" y="80" type="line"/>
      <point x="555" y="204" type="line"/>
    </contour>
  </outline>
</glyph>
<glyph name="guilsinglleft" format="2">
  <advance width="343"/>
  <unicode hex="2039"/>
  <outline>
    <contour>
      <point x="160" y="461" type="line"/>
      <point x="35" y="265" type="line"/>
      <point x="160" y="69" type="line"/>
      <point x="308" y="69" type="line"/>
      <point x="187" y="265" type="line"/>
      <point x="308" y="461" type="line"/>
    </contour>
  </outline>
</glyph>
<glyph name="foursuperior" format="2">
  <advance width="395"/>
  <unicode hex="2074"/>
  <anchor x="218" y="527" name="_indexring"/>
  <outline>
    <contour>
      <point x="319" y="499" type="line"/>
      <point x="319" y="731" type="line"/>
      <point x="172" y="731" type="line"/>
      <point x="11" y="474" type="line"/>
      <point x="11" y="418" type="line"/>
      <point x="212" y="418" type="line"/>
      <point x="212" y="333" type="line"/>
      <point x="319" y="333" type="line"/>
      <point x="319" y="418" type="line"/>
      <point x="379" y="418" type="line"/>
      <point x="379" y="499" type="line"/>
    </contour>
    <contour>
      <point x="181" y="598" type="line" smooth="yes"/>
      <point x="192" y="615"/>
      <point x="204" y="639"/>
      <point x="212" y="657" type="curve"/>
      <point x="215" y="657" type="line"/>
      <point x="213" y="633"/>
      <point x="212" y="604"/>
      <point x="212" y="577" type="curve" smooth="yes"/>
      <point x="212" y="499" type="line"/>
      <point x="117" y="499" type="line"/>
    </contour>
  </outline>
</glyph>
<glyph name="fivesuperior" format="2">
  <advance width="385"/>
  <unicode hex="2075"/>
  <anchor x="190" y="537" name="_indexring"/>
  <outline>
    <contour>
      <point x="137" y="565" type="curve"/>
      <point x="136" y="565" type="line"/>
      <point x="139" y="572"/>
      <point x="141" y="579"/>
      <point x="142" y="590" type="curve" smooth="yes"/>
      <point x="147" y="638" type="line"/>
      <point x="340" y="638" type="line"/>
      <point x="340" y="730" type="line"/>
      <point x="54" y="730" type="line"/>
      <point x="30" y="497" type="line"/>
      <point x="130" y="487" type="line"/>
      <point x="143" y="502"/>
      <point x="158" y="510"/>
      <point x="187" y="510" type="curve" smooth="yes"/>
      <point x="222" y="510"/>
      <point x="240" y="494"/>
      <point x="240" y="464" type="curve" smooth="yes"/>
      <point x="240" y="434"/>
      <point x="218" y="415"/>
      <point x="185" y="415" type="curve" smooth="yes"/>
      <point x="149" y="415"/>
      <point x="133" y="431"/>
      <point x="125" y="457" type="curve"/>
      <point x="14" y="408" type="line"/>
      <point x="48" y="345"/>
      <point x="108" y="327"/>
      <point x="188" y="327" type="curve" smooth="yes"/>
      <point x="283" y="327"/>
      <point x="357" y="370"/>
      <point x="357" y="466" type="curve" smooth="yes"/>
      <point x="357" y="540"/>
      <point x="314" y="588"/>
      <point x="226" y="588" type="curve" smooth="yes"/>
      <point x="177" y="588"/>
      <point x="152" y="579"/>
    </contour>
  </outline>
</glyph>
<glyph name="Euro" format="2">
  <advance width="702"/>
  <unicode hex="20AC"/>
  <outline>
    <contour>
      <point x="25" y="287" type="line"/>
      <point x="25" y="209" type="line"/>
      <point x="439" y="209" type="line"/>
      <point x="464" y="287" type="line"/>
    </contour>
    <contour>
      <point x="25" y="425" type="line"/>
      <point x="25" y="348" type="line"/>
      <point x="478" y="348" type="line"/>
      <point x="504" y="425" type="line"/>
    </contour>
    <component base="euro.part"/>
  </outline>
</glyph>
<glyph name="uni20BA" format="2">
  <advance width="709"/>
  <unicode hex="20BA"/>
  <outline>
    <contour>
      <point x="509" y="303" type="line"/>
      <point x="509" y="182"/>
      <point x="459" y="129"/>
      <point x="369" y="129" type="curve" smooth="yes"/>
      <point x="227" y="129" type="line"/>
      <point x="227" y="0" type="line"/>
      <point x="387" y="0" type="line" smooth="yes"/>
      <point x="574" y="0"/>
      <point x="671" y="112"/>
      <point x="674" y="303" type="curve"/>
    </contour>
    <contour>
      <point x="142" y="660" type="line"/>
      <point x="142" y="0" type="line"/>
      <point x="312" y="0" type="line"/>
      <point x="312" y="660" type="line"/>
    </contour>
    <contour>
      <point x="38" y="294" type="line"/>
      <point x="38" y="232" type="line"/>
      <point x="487" y="358" type="line"/>
      <point x="487" y="420" type="line"/>
    </contour>
    <contour>
      <point x="38" y="435" type="line"/>
      <point x="38" y="373" type="line"/>
      <point x="487" y="499" type="line"/>
      <point x="487" y="561" type="line"/>
    </contour>
  </outline>
</glyph>
<glyph name="uni20BD" format="2">
  <advance width="687"/>
  <unicode hex="20BD"/>
  <outline>
    <contour>
      <point x="235" y="660" type="line"/>
      <point x="235" y="531" type="line"/>
      <point x="370" y="531" type="line" smooth="yes"/>
      <point x="445" y="531"/>
      <point x="479" y="502"/>
      <point x="479" y="443" type="curve" smooth="yes"/>
      <point x="479" y="383"/>
      <point x="445" y="354"/>
      <point x="370" y="354" type="curve" smooth="yes"/>
      <point x="31" y="354" type="line"/>
      <point x="31" y="271" type="line"/>
      <point x="397" y="271" type="line" smooth="yes"/>
      <point x="561" y="271"/>
      <point x="652" y="334"/>
      <point x="652" y="464" type="curve" smooth="yes"/>
      <point x="652" y="583"/>
      <point x="561" y="660"/>
      <point x="397" y="660" type="curve" smooth="yes"/>
    </contour>
    <contour>
      <point x="119" y="660" type="line"/>
      <point x="119" y="0" type="line"/>
      <point x="288" y="0" type="line"/>
      <point x="288" y="660" type="line"/>
    </contour>
    <contour>
      <point x="469" y="207" type="line"/>
      <point x="31" y="207" type="line"/>
      <point x="31" y="129" type="line"/>
      <point x="469" y="129" type="line"/>
    </contour>
  </outline>
</glyph>
<glyph name="uni2113" format="2">
  <advance width="449"/>
  <unicode hex="2113"/>
  <outline>
    <contour>
      <point x="396" y="8" type="curve"/>
      <point x="403" y="114" type="line"/>
      <point x="380" y="105"/>
      <point x="358" y="101"/>
      <point x="319" y="101" type="curve" smooth="yes"/>
      <point x="271" y="101"/>
      <point x="257" y="126"/>
      <point x="257" y="166" type="curve" smooth="yes"/>
      <point x="257" y="518" type="line" smooth="yes"/>
      <point x="257" y="562"/>
      <point x="266" y="584"/>
      <point x="292" y="584" type="curve" smooth="yes"/>
      <point x="316" y="584"/>
      <point x="325" y="568"/>
      <point x="325" y="528" type="curve" smooth="yes"/>
      <point x="325" y="388"/>
      <point x="235" y="272"/>
      <point x="37" y="252" type="curve"/>
      <point x="37" y="169" type="line"/>
      <point x="248" y="194"/>
      <point x="403" y="346"/>
      <point x="403" y="522" type="curve" smooth="yes"/>
      <point x="403" y="603"/>
      <point x="377" y="670"/>
      <point x="259" y="670" type="curve" smooth="yes"/>
      <point x="144" y="670"/>
      <point x="103" y="604"/>
      <point x="103" y="499" type="curve" smooth="yes"/>
      <point x="103" y="148" type="line" smooth="yes"/>
      <point x="103" y="36"/>
      <point x="156" y="-10"/>
      <point x="282" y="-10" type="curve" smooth="yes"/>
      <point x="330" y="-10"/>
      <point x="364" y="-4"/>
    </contour>
  </outline>
</glyph>
<glyph name="uparrow" format="2">
  <advance width="750"/>
  <unicode hex="2191"/>
  <outline>
    <contour>
      <point x="391" y="604" type="curve"/>
      <point x="357" y="604" type="line"/>
      <point x="381" y="501"/>
      <point x="459" y="358"/>
      <point x="632" y="244" type="curve"/>
      <point x="720" y="371" type="line"/>
      <point x="562" y="466"/>
      <point x="459" y="554"/>
      <point x="377" y="666" type="curve"/>
      <point x="371" y="666" type="line"/>
      <point x="289" y="554"/>
      <point x="186" y="466"/>
      <point x="28" y="371" type="curve"/>
      <point x="116" y="244" type="line"/>
      <point x="289" y="358"/>
      <point x="367" y="501"/>
    </contour>
    <contour>
      <point x="459" y="0" type="line"/>
      <point x="459" y="235" type="line" smooth="yes"/>
      <point x="459" y="344"/>
      <point x="445" y="443"/>
      <point x="425" y="526" type="curve"/>
      <point x="374" y="610" type="line"/>
      <point x="323" y="526" type="line"/>
      <point x="303" y="443"/>
      <point x="289" y="344"/>
      <point x="289" y="235" type="curve" smooth="yes"/>
      <point x="289" y="0" type="line"/>
    </contour>
  </outline>
</glyph>
<glyph name="updownarrow" format="2">
  <advance width="750"/>
  <unicode hex="2195"/>
  <outline>
    <contour>
      <point x="426" y="-50" type="line"/>
      <point x="446" y="29"/>
      <point x="460" y="123"/>
      <point x="460" y="225" type="curve" smooth="yes"/>
      <point x="460" y="435" type="line" smooth="yes"/>
      <point x="460" y="537"/>
      <point x="446" y="631"/>
      <point x="426" y="710" type="curve"/>
      <point x="375" y="794" type="line"/>
      <point x="324" y="710" type="line"/>
      <point x="304" y="631"/>
      <point x="290" y="537"/>
      <point x="290" y="435" type="curve" smooth="yes"/>
      <point x="290" y="225" type="line" smooth="yes"/>
      <point x="290" y="123"/>
      <point x="304" y="29"/>
      <point x="324" y="-50" type="curve"/>
      <point x="375" y="-134" type="line"/>
    </contour>
    <contour>
      <point x="392" y="788" type="curve"/>
      <point x="358" y="788" type="line"/>
      <point x="382" y="685"/>
      <point x="459" y="542"/>
      <point x="636" y="425" type="curve"/>
      <point x="720" y="555" type="line"/>
      <point x="563" y="650"/>
      <point x="459" y="738"/>
      <point x="378" y="850" type="curve"/>
      <point x="372" y="850" type="line"/>
      <point x="290" y="738"/>
      <point x="187" y="650"/>
      <point x="29" y="555" type="curve"/>
      <point x="113" y="425" type="line"/>
      <point x="290" y="542"/>
      <point x="368" y="685"/>
    </contour>
    <contour>
      <point x="29" y="105" type="line"/>
      <point x="187" y="10"/>
      <point x="290" y="-78"/>
      <point x="372" y="-190" type="curve"/>
      <point x="378" y="-190" type="line"/>
      <point x="459" y="-78"/>
      <point x="563" y="10"/>
      <point x="720" y="105" type="curve"/>
      <point x="636" y="235" type="line"/>
      <point x="459" y="118"/>
      <point x="382" y="-25"/>
      <point x="358" y="-128" type="curve"/>
      <point x="392" y="-128" type="line"/>
      <point x="368" y="-25"/>
      <point x="290" y="118"/>
      <point x="113" y="235" type="curve"/>
    </contour>
  </outline>
</glyph>
<glyph name="partialdiff" format="2">
  <advance width="660"/>
  <unicode hex="2202"/>
  <outline>
    <contour>
      <point x="78" y="586" type="curve"/>
      <point x="149" y="479" type="line"/>
      <point x="192" y="519"/>
      <point x="233" y="533"/>
      <point x="288" y="533" type="curve" smooth="yes"/>
      <point x="379" y="533"/>
      <point x="445" y="480"/>
      <point x="445" y="310" type="curve" smooth="yes"/>
      <point x="445" y="172"/>
      <point x="399" y="121"/>
      <point x="329" y="121" type="curve" smooth="yes"/>
      <point x="269" y="121"/>
      <point x="238" y="155"/>
      <point x="238" y="211" type="curve" smooth="yes"/>
      <point x="238" y="267"/>
      <point x="271" y="301"/>
      <point x="330" y="301" type="curve" smooth="yes"/>
      <point x="399" y="301"/>
      <point x="432" y="251"/>
      <point x="441" y="206" type="curve"/>
      <point x="474" y="217" type="line"/>
      <point x="469" y="346"/>
      <point x="404" y="421"/>
      <point x="294" y="421" type="curve" smooth="yes"/>
      <point x="170" y="421"/>
      <point x="64" y="342"/>
      <point x="64" y="206" type="curve" smooth="yes"/>
      <point x="64" y="64"/>
      <point x="177" y="-10"/>
      <point x="303" y="-10" type="curve" smooth="yes"/>
      <point x="496" y="-10"/>
      <point x="601" y="94"/>
      <point x="601" y="341" type="curve" smooth="yes"/>
      <point x="601" y="552"/>
      <point x="501" y="670"/>
      <point x="312" y="670" type="curve" smooth="yes"/>
      <point x="209" y="670"/>
      <point x="147" y="643"/>
    </contour>
  </outline>
</glyph>
<glyph name="product" format="2">
  <advance width="698"/>
  <unicode hex="220F"/>
  <outline>
    <contour>
      <point x="471" y="660" type="line"/>
      <point x="471" y="-128" type="line"/>
      <point x="631" y="-128" type="line"/>
      <point x="631" y="660" type="line"/>
    </contour>
    <contour>
      <point x="66" y="660" type="line"/>
      <point x="66" y="-128" type="line"/>
      <point x="226" y="-128" type="line"/>
      <point x="226" y="660" type="line"/>
    </contour>
    <contour>
      <point x="149" y="660" type="line"/>
      <point x="149" y="527" type="line"/>
      <point x="554" y="527" type="line"/>
      <point x="554" y="660" type="line"/>
    </contour>
  </outline>
</glyph>
<glyph name="summation" format="2">
  <advance width="673"/>
  <unicode hex="2211"/>
  <outline>
    <contour>
      <point x="324" y="267" type="line"/>
      <point x="56" y="-7" type="line"/>
      <point x="207" y="-39" type="line"/>
      <point x="497" y="251" type="line"/>
      <point x="497" y="267" type="line"/>
    </contour>
    <contour>
      <point x="56" y="-7" type="line"/>
      <point x="56" y="-128" type="line"/>
      <point x="615" y="-128" type="line"/>
      <point x="615" y="-7" type="line"/>
    </contour>
    <contour>
      <point x="56" y="533" type="line"/>
      <point x="324" y="267" type="line"/>
      <point x="497" y="267" type="line"/>
      <point x="497" y="282" type="line"/>
      <point x="207" y="565" type="line"/>
    </contour>
    <contour>
      <point x="56" y="660" type="line"/>
      <point x="56" y="533" type="line"/>
      <point x="615" y="533" type="line"/>
      <point x="615" y="660" type="line"/>
    </contour>
  </outline>
</glyph>
<glyph name="radical" format="2">
  <advance width="687"/>
  <unicode hex="221A"/>
  <outline>
    <contour>
      <point x="584" y="818" type="line"/>
      <point x="369" y="242" type="line"/>
      <point x="292" y="0" type="line"/>
      <point x="412" y="0" type="line"/>
      <point x="729" y="818" type="line"/>
    </contour>
    <contour>
      <point x="15" y="448" type="line"/>
      <point x="15" y="319" type="line"/>
      <point x="117" y="319" type="line"/>
      <point x="243" y="0" type="line"/>
      <point x="364" y="0" type="line"/>
      <point x="289" y="232" type="line"/>
      <point x="206" y="448" type="line"/>
    </contour>
  </outline>
</glyph>
<glyph name="integral" format="2">
  <advance width="478"/>
  <unicode hex="222B"/>
  <outline>
    <contour>
      <point x="161" y="578" type="curve" smooth="yes"/>
      <point x="161" y="62" type="line" smooth="yes"/>
      <point x="161" y="9"/>
      <point x="129" y="-10"/>
      <point x="84" y="-10" type="curve" smooth="yes"/>
      <point x="53" y="-10"/>
      <point x="36" y="-3"/>
      <point x="20" y="9" type="curve"/>
      <point x="6" y="-98" type="line"/>
      <point x="31" y="-115"/>
      <point x="64" y="-128"/>
      <point x="123" y="-128" type="curve" smooth="yes"/>
      <point x="229" y="-128"/>
      <point x="317" y="-73"/>
      <point x="317" y="52" type="curve" smooth="yes"/>
      <point x="317" y="568" type="line" smooth="yes"/>
      <point x="317" y="621"/>
      <point x="350" y="640"/>
      <point x="394" y="640" type="curve" smooth="yes"/>
      <point x="425" y="640"/>
      <point x="443" y="633"/>
      <point x="458" y="621" type="curve"/>
      <point x="472" y="728" type="line"/>
      <point x="448" y="745"/>
      <point x="414" y="758"/>
      <point x="356" y="758" type="curve" smooth="yes"/>
      <point x="250" y="758"/>
      <point x="161" y="703"/>
    </contour>
  </outline>
</glyph>
<glyph name="notequal" format="2">
  <advance width="604"/>
  <unicode hex="2260"/>
  <outline>
    <contour>
      <point x="381" y="610" type="line"/>
      <point x="117" y="27" type="line"/>
      <point x="223" y="27" type="line"/>
      <point x="488" y="610" type="line"/>
    </contour>
    <contour>
      <point x="56" y="489" type="line"/>
      <point x="56" y="375" type="line"/>
      <point x="548" y="375" type="line"/>
      <point x="548" y="489" type="line"/>
    </contour>
    <contour>
      <point x="56" y="258" type="line"/>
      <point x="56" y="143" type="line"/>
      <point x="548" y="143" type="line"/>
      <point x="548" y="258" type="line"/>
    </contour>
  </outline>
</glyph>
<glyph name="whiteSmallSquare" format="2">
  <advance width="600"/>
  <unicode hex="25AB"/>
  <outline>
    <contour>
      <point x="556" y="0" type="line"/>
      <point x="556" y="500" type="line"/>
      <point x="44" y="500" type="line"/>
      <point x="44" y="0" type="line"/>
    </contour>
    <contour>
      <point x="165" y="390" type="line"/>
      <point x="435" y="390" type="line"/>
      <point x="435" y="110" type="line"/>
      <point x="165" y="110" type="line"/>
    </contour>
  </outline>
</glyph>
<glyph name="whiteDiamond" format="2">
  <advance width="600"/>
  <unicode hex="25C7"/>
  <outline>
    <contour>
      <point x="565" y="259" type="line"/>
      <point x="300" y="524" type="line"/>
      <point x="35" y="259" type="line"/>
      <point x="300" y="-6" type="line"/>
    </contour>
    <contour>
      <point x="175" y="259" type="line"/>
      <point x="300" y="384" type="line"/>
      <point x="425" y="259" type="line"/>
      <point x="300" y="134" type="line"/>
    </contour>
  </outline>
</glyph>
<glyph name="whiteCircle" format="2">
  <advance width="600"/>
  <unicode hex="25CB"/>
  <outline>
    <contour>
      <point x="568" y="250" type="curve" smooth="yes"/>
      <point x="568" y="398"/>
      <point x="453" y="510"/>
      <point x="300" y="510" type="curve" smooth="yes"/>
      <point x="147" y="510"/>
      <point x="32" y="398"/>
      <point x="32" y="250" type="curve" smooth="yes"/>
      <point x="32" y="102"/>
      <point x="147" y="-10"/>
      <point x="300" y="-10" type="curve" smooth="yes"/>
      <point x="453" y="-10"/>
      <point x="568" y="102"/>
    </contour>
    <contour>
      <point x="157" y="250" type="curve" smooth="yes"/>
      <point x="157" y="333"/>
      <point x="218" y="396"/>
      <point x="300" y="396" type="curve" smooth="yes"/>
      <point x="382" y="396"/>
      <point x="443" y="333"/>
      <point x="443" y="250" type="curve" smooth="yes"/>
      <point x="443" y="167"/>
      <point x="382" y="104"/>
      <point x="300" y="104" type="curve" smooth="yes"/>
      <point x="218" y="104"/>
      <point x="157" y="167"/>
    </contour>
  </outline>
</glyph>
<glyph name="heavyquoteleft" format="2">
  <advance width="700"/>
  <unicode hex="275B"/>
  <outline>
    <contour>
      <point x="59" y="278" type="curve" smooth="yes"/>
      <point x="59" y="110"/>
      <point x="148" y="-10"/>
      <point x="363" y="-10" type="curve" smooth="yes"/>
      <point x="537" y="-10"/>
      <point x="644" y="69"/>
      <point x="644" y="232" type="curve" smooth="yes"/>
      <point x="644" y="385"/>
      <point x="531" y="462"/>
      <point x="384" y="462" type="curve" smooth="yes"/>
      <point x="296" y="462"/>
      <point x="255" y="442"/>
      <point x="218" y="413" type="curve"/>
      <point x="211" y="417" type="line"/>
      <point x="260" y="505"/>
      <point x="361" y="561"/>
      <point x="624" y="561" type="curve"/>
      <point x="571" y="665" type="line"/>
      <point x="193" y="665"/>
      <point x="59" y="507"/>
    </contour>
  </outline>
</glyph>
<glyph name="Adieresis.titl" format="2">
  <advance width="677"/>
  <outline>
    <contour>
      <point x="664" y="586" type="curve" smooth="yes"/>
      <point x="664" y="633"/>
      <point x="633" y="662"/>
      <point x="580" y="662" type="curve" smooth="yes"/>
      <point x="528" y="662"/>
      <point x="497" y="633"/>
      <point x="497" y="586" type="curve" smooth="yes"/>
      <point x="497" y="538"/>
      <point x="528" y="509"/>
      <point x="580" y="509" type="curve" smooth="yes"/>
      <point x="633" y="509"/>
      <point x="664" y="538"/>
    </contour>
    <contour>
      <point x="181" y="586" type="curve" smooth="yes"/>
      <point x="181" y="633"/>
      <point x="149" y="662"/>
      <point x="96" y="662" type="curve" smooth="yes"/>
      <point x="44" y="662"/>
      <point x="13" y="633"/>
      <point x="13" y="586" type="curve" smooth="yes"/>
      <point x="13" y="538"/>
      <point x="44" y="509"/>
      <point x="96" y="509" type="curve" smooth="yes"/>
      <point x="149" y="509"/>
      <point x="181" y="538"/>
    </contour>
    <contour>
      <point x="177" y="0" type="line"/>
      <point x="309" y="425" type="line"/>
      <point x="336" y="528" type="line"/>
      <point x="338" y="528" type="line"/>
      <point x="367" y="424" type="line"/>
      <point x="496" y="0" type="line"/>
      <point x="673" y="0" type="line"/>
      <point x="442" y="660" type="line"/>
      <point x="236" y="660" type="line"/>
      <point x="4" y="0" type="line"/>
    </contour>
    <contour>
      <point x="522" y="149" type="line"/>
      <point x="522" y="266" type="line"/>
      <point x="155" y="266" type="line"/>
      <point x="155" y="149" type="line"/>
    </contour>
  </outline>
</glyph>
<glyph name="Aogonek_j" format="2">
  <advance width="967"/>
  <anchor x="589" y="0" name="bottomC"/>
  <anchor x="338" y="660" name="top"/>
  <anchor x="673" y="0" name="ogonek"/>
  <anchor x="338" y="0" name="bottom"/>
  <outline>
    <contour>
      <point x="908" y="-34" type="curve" smooth="yes"/>
      <point x="908" y="500" type="line"/>
      <point x="738" y="500" type="line"/>
      <point x="738" y="-28" type="line" smooth="yes"/>
      <point x="738" y="-76"/>
      <point x="727" y="-91"/>
      <point x="704" y="-91" type="curve" smooth="yes"/>
      <point x="689" y="-91"/>
      <point x="677" y="-88"/>
      <point x="668" y="-82" type="curve"/>
      <point x="645" y="-201" type="line"/>
      <point x="669" y="-211"/>
      <point x="689" y="-215"/>
      <point x="720" y="-215" type="curve" smooth="yes"/>
      <point x="815" y="-215"/>
      <point x="908" y="-183"/>
    </contour>
    <contour>
      <point x="608" y="-196" type="curve"/>
      <point x="617" y="-109" type="line"/>
      <point x="606" y="-118"/>
      <point x="595" y="-120"/>
      <point x="581" y="-120" type="curve" smooth="yes"/>
      <point x="551" y="-120"/>
      <point x="532" y="-104"/>
      <point x="532" y="-77" type="curve" smooth="yes"/>
      <point x="532" y="-39"/>
      <point x="575" y="-12"/>
      <point x="673" y="0" type="curve"/>
      <point x="589" y="30" type="line"/>
      <point x="492" y="17"/>
      <point x="415" y="-32"/>
      <point x="415" y="-117" type="curve" smooth="yes"/>
      <point x="415" y="-173"/>
      <point x="457" y="-215"/>
      <point x="531" y="-215" type="curve" smooth="yes"/>
      <point x="562" y="-215"/>
      <point x="589" y="-210"/>
    </contour>
    <contour>
      <point x="922" y="639" type="curve" smooth="yes"/>
      <point x="922" y="694"/>
      <point x="891" y="721"/>
      <point x="822" y="721" type="curve" smooth="yes"/>
      <point x="755" y="721"/>
      <point x="724" y="694"/>
      <point x="724" y="639" type="curve" smooth="yes"/>
      <point x="724" y="584"/>
      <point x="755" y="558"/>
      <point x="822" y="558" type="curve" smooth="yes"/>
      <point x="891" y="558"/>
      <point x="922" y="584"/>
    </contour>
    <component base="A"/>
  </outline>
</glyph>
<glyph name="Aogonek_y" format="2">
  <advance width="1187"/>
  <anchor x="589" y="0" name="bottomC"/>
  <anchor x="338" y="660" name="top"/>
  <anchor x="673" y="0" name="ogonek"/>
  <anchor x="338" y="0" name="bottom"/>
  <outline>
    <contour>
      <point x="1016" y="500" type="line"/>
      <point x="940" y="219" type="line"/>
      <point x="912" y="109" type="line"/>
      <point x="888" y="215" type="line"/>
      <point x="811" y="500" type="line"/>
      <point x="624" y="500" type="line"/>
      <point x="774" y="125" type="line"/>
      <point x="831" y="-11" type="line"/>
      <point x="818" y="-44" type="line" smooth="yes"/>
      <point x="803" y="-81"/>
      <point x="780" y="-91"/>
      <point x="748" y="-91" type="curve" smooth="yes"/>
      <point x="728" y="-91"/>
      <point x="709" y="-88"/>
      <point x="698" y="-80" type="curve"/>
      <point x="676" y="-195" type="line"/>
      <point x="699" y="-209"/>
      <point x="724" y="-215"/>
      <point x="769" y="-215" type="curve" smooth="yes"/>
      <point x="879" y="-215"/>
      <point x="948" y="-159"/>
      <point x="999" y="-12" type="curve" smooth="yes"/>
      <point x="1186" y="500" type="line"/>
    </contour>
    <contour>
      <point x="599" y="32" type="line"/>
      <point x="495" y="16"/>
      <point x="421" y="-14"/>
      <point x="421" y="-103" type="curve" smooth="yes"/>
      <point x="421" y="-171"/>
      <point x="473" y="-215"/>
      <point x="545" y="-215" type="curve" smooth="yes"/>
      <point x="582" y="-215"/>
      <point x="609" y="-209"/>
      <point x="635" y="-193" type="curve"/>
      <point x="639" y="-108" type="line"/>
      <point x="624" y="-116"/>
      <point x="604" y="-120"/>
      <point x="584" y="-120" type="curve" smooth="yes"/>
      <point x="554" y="-120"/>
      <point x="540" y="-103"/>
      <point x="540" y="-79" type="curve" smooth="yes"/>
      <point x="540" y="-39"/>
      <point x="581" y="-15"/>
      <point x="673" y="0" type="curve"/>
    </contour>
    <component base="A"/>
  </outline>
</glyph>
<glyph name="Hsuperior" format="2">
  <advance width="482"/>
  <outline>
    <contour>
      <point x="317" y="730" type="line"/>
      <point x="317" y="333" type="line"/>
      <point x="440" y="333" type="line"/>
      <point x="440" y="730" type="line"/>
    </contour>
    <contour>
      <point x="41" y="730" type="line"/>
      <point x="41" y="333" type="line"/>
      <point x="165" y="333" type="line"/>
      <point x="165" y="730" type="line"/>
    </contour>
    <contour>
      <point x="99" y="580" type="line"/>
      <point x="99" y="489" type="line"/>
      <point x="382" y="489" type="line"/>
      <point x="382" y="580" type="line"/>
    </contour>
  </outline>
</glyph>
<glyph name="L.swsh" format="2">
  <advance width="698"/>
  <anchor x="429" y="355" name="center"/>
  <anchor x="370" y="0" name="bottom"/>
  <anchor x="159" y="660" name="top"/>
  <anchor x="330" y="0" name="bottomC"/>
  <anchor x="353" y="701" name="topright"/>
  <anchor x="444" y="0" name="ogonek"/>
  <outline>
    <contour>
      <point x="444" y="0" type="line" smooth="yes"/>
      <point x="601" y="0"/>
      <point x="688" y="72"/>
      <point x="688" y="206" type="curve" smooth="yes"/>
      <point x="688" y="298"/>
      <point x="642" y="398"/>
      <point x="500" y="402" type="curve"/>
      <point x="450" y="292" type="line"/>
      <point x="509" y="290"/>
      <point x="539" y="259"/>
      <point x="539" y="209" type="curve" smooth="yes"/>
      <point x="539" y="159"/>
      <point x="505" y="133"/>
      <point x="437" y="133" type="curve" smooth="yes"/>
      <point x="308" y="133" type="line"/>
      <point x="308" y="0" type="line"/>
    </contour>
    <contour>
      <point x="357" y="0" type="line"/>
      <point x="382" y="133" type="line"/>
      <point x="157" y="133" type="line"/>
      <point x="157" y="0" type="line"/>
    </contour>
    <contour>
      <point x="245" y="0" type="line"/>
      <point x="245" y="660" type="line"/>
      <point x="73" y="660" type="line"/>
      <point x="73" y="0" type="line"/>
    </contour>
  </outline>
</glyph>
<glyph name="Lslash.swsh" format="2">
  <advance width="740"/>
  <anchor x="471" y="355" name="center"/>
  <anchor x="412" y="0" name="bottom"/>
  <anchor x="201" y="660" name="top"/>
  <anchor x="412" y="0" name="bottomC"/>
  <anchor x="395" y="701" name="topright"/>
  <anchor x="486" y="0" name="ogonek"/>
  <outline>
    <contour>
      <point x="5" y="291" type="line"/>
      <point x="5" y="166" type="line"/>
      <point x="457" y="382" type="line"/>
      <point x="457" y="507" type="line"/>
    </contour>
    <component base="L.swsh" xOffset="42"/>
  </outline>
</glyph>
<glyph name="M.swsh" format="2">
  <advance width="1158"/>
  <anchor x="703" y="660" name="top"/>
  <anchor x="1085" y="0" name="ogonek"/>
  <anchor x="703" y="0" name="bottom"/>
  <anchor x="724" y="0" name="bottomC"/>
  <outline>
    <contour>
      <point x="772" y="0" type="line"/>
      <point x="936" y="506" type="line"/>
      <point x="938" y="506" type="line"/>
      <point x="933" y="303" type="line"/>
      <point x="933" y="0" type="line"/>
      <point x="1085" y="0" type="line"/>
      <point x="1085" y="660" type="line"/>
      <point x="850" y="660" type="line"/>
      <point x="747" y="323" type="line"/>
      <point x="709" y="184" type="line"/>
      <point x="707" y="184" type="line"/>
      <point x="669" y="324" type="line"/>
      <point x="566" y="660" type="line"/>
      <point x="321" y="660" type="line"/>
      <point x="321" y="195" type="line"/>
      <point x="474" y="195" type="line"/>
      <point x="474" y="303" type="line"/>
      <point x="468" y="506" type="line"/>
      <point x="471" y="506" type="line"/>
      <point x="634" y="0" type="line"/>
    </contour>
    <contour>
      <point x="254" y="364" type="line"/>
      <point x="198" y="370"/>
      <point x="164" y="405"/>
      <point x="164" y="451" type="curve" smooth="yes"/>
      <point x="164" y="502"/>
      <point x="197" y="534"/>
      <point x="261" y="534" type="curve" smooth="yes"/>
      <point x="489" y="534" type="line"/>
      <point x="489" y="660" type="line"/>
      <point x="254" y="660" type="line" smooth="yes"/>
      <point x="96" y="660"/>
      <point x="10" y="584"/>
      <point x="10" y="454" type="curve" smooth="yes"/>
      <point x="10" y="332"/>
      <point x="92" y="256"/>
      <point x="204" y="248" type="curve"/>
    </contour>
    <component base="swash_bttmleft" xOffset="66"/>
  </outline>
</glyph>
<glyph name="Odieresis.titl.001" format="2">
  <advance width="737"/>
  <outline>
    <contour>
      <point x="45" y="330" type="curve" smooth="yes"/>
      <point x="45" y="117"/>
      <point x="168" y="-10"/>
      <point x="369" y="-10" type="curve" smooth="yes"/>
      <point x="570" y="-10"/>
      <point x="692" y="117"/>
      <point x="692" y="330" type="curve" smooth="yes"/>
      <point x="692" y="543"/>
      <point x="570" y="670"/>
      <point x="369" y="670" type="curve" smooth="yes"/>
      <point x="168" y="670"/>
      <point x="45" y="543"/>
    </contour>
    <contour>
      <point x="516" y="330" type="curve" smooth="yes"/>
      <point x="516" y="195"/>
      <point x="464" y="125"/>
      <point x="369" y="125" type="curve" smooth="yes"/>
      <point x="273" y="125"/>
      <point x="221" y="195"/>
      <point x="221" y="330" type="curve" smooth="yes"/>
      <point x="221" y="465"/>
      <point x="273" y="535"/>
      <point x="369" y="535" type="curve" smooth="yes"/>
      <point x="464" y="535"/>
      <point x="516" y="465"/>
    </contour>
    <contour>
      <point x="678" y="605" type="curve" smooth="yes"/>
      <point x="678" y="645"/>
      <point x="650" y="670"/>
      <point x="605" y="670" type="curve" smooth="yes"/>
      <point x="580" y="670"/>
      <point x="560" y="661"/>
      <point x="549" y="646" type="curve"/>
      <point x="588" y="623"/>
      <point x="625" y="592"/>
      <point x="651" y="552" type="curve"/>
      <point x="668" y="563"/>
      <point x="678" y="582"/>
    </contour>
    <contour>
      <point x="131" y="670" type="curve" smooth="yes"/>
      <point x="88" y="670"/>
      <point x="61" y="645"/>
      <point x="61" y="605" type="curve" smooth="yes"/>
      <point x="61" y="582"/>
      <point x="71" y="564"/>
      <point x="87" y="553" type="curve"/>
      <point x="112" y="591"/>
      <point x="146" y="622"/>
      <point x="189" y="646" type="curve"/>
      <point x="177" y="661"/>
      <point x="157" y="670"/>
    </contour>
  </outline>
</glyph>
<glyph name="Odieresis.titl" format="2">
  <advance width="737"/>
  <outline>
    <contour>
      <point x="158" y="566" type="curve" smooth="yes"/>
      <point x="158" y="530"/>
      <point x="183" y="507"/>
      <point x="222" y="507" type="curve" smooth="yes"/>
      <point x="263" y="507"/>
      <point x="288" y="530"/>
      <point x="288" y="566" type="curve" smooth="yes"/>
      <point x="288" y="603"/>
      <point x="263" y="626"/>
      <point x="222" y="626" type="curve" smooth="yes"/>
      <point x="183" y="626"/>
      <point x="158" y="603"/>
    </contour>
    <contour>
      <point x="451" y="567" type="curve" smooth="yes"/>
      <point x="451" y="530"/>
      <point x="476" y="507"/>
      <point x="515" y="507" type="curve" smooth="yes"/>
      <point x="556" y="507"/>
      <point x="581" y="530"/>
      <point x="581" y="567" type="curve" smooth="yes"/>
      <point x="581" y="603"/>
      <point x="556" y="626"/>
      <point x="515" y="626" type="curve" smooth="yes"/>
      <point x="476" y="626"/>
      <point x="451" y="603"/>
    </contour>
    <contour>
      <point x="45" y="330" type="curve" smooth="yes"/>
      <point x="45" y="117"/>
      <point x="168" y="-10"/>
      <point x="369" y="-10" type="curve" smooth="yes"/>
      <point x="570" y="-10"/>
      <point x="692" y="117"/>
      <point x="692" y="330" type="curve" smooth="yes"/>
      <point x="692" y="543"/>
      <point x="570" y="670"/>
      <point x="369" y="670" type="curve" smooth="yes"/>
      <point x="168" y="670"/>
      <point x="45" y="543"/>
    </contour>
    <contour>
      <point x="516" y="330" type="curve" smooth="yes"/>
      <point x="516" y="195"/>
      <point x="464" y="125"/>
      <point x="369" y="125" type="curve" smooth="yes"/>
      <point x="273" y="125"/>
      <point x="221" y="195"/>
      <point x="221" y="330" type="curve" smooth="yes"/>
      <point x="221" y="465"/>
      <point x="273" y="535"/>
      <point x="369" y="535" type="curve" smooth="yes"/>
      <point x="464" y="535"/>
      <point x="516" y="465"/>
    </contour>
  </outline>
</glyph>
<glyph name="Osuperior" format="2">
  <advance width="470"/>
  <outline>
    <contour>
      <point x="27" y="531" type="curve" smooth="yes"/>
      <point x="27" y="402"/>
      <point x="107" y="327"/>
      <point x="235" y="327" type="curve" smooth="yes"/>
      <point x="363" y="327"/>
      <point x="444" y="402"/>
      <point x="444" y="531" type="curve" smooth="yes"/>
      <point x="444" y="660"/>
      <point x="363" y="735"/>
      <point x="235" y="735" type="curve" smooth="yes"/>
      <point x="107" y="735"/>
      <point x="27" y="660"/>
    </contour>
    <contour>
      <point x="320" y="531" type="curve" smooth="yes"/>
      <point x="320" y="452"/>
      <point x="290" y="415"/>
      <point x="235" y="415" type="curve" smooth="yes"/>
      <point x="180" y="415"/>
      <point x="151" y="452"/>
      <point x="151" y="531" type="curve" smooth="yes"/>
      <point x="151" y="610"/>
      <point x="180" y="647"/>
      <point x="235" y="647" type="curve" smooth="yes"/>
      <point x="290" y="647"/>
      <point x="320" y="610"/>
    </contour>
  </outline>
</glyph>
<glyph name="R.ss03" format="2">
  <advance width="685"/>
  <anchor x="329" y="660" name="top"/>
  <anchor x="647" y="0" name="ogonek"/>
  <anchor x="363" y="0" name="bottom"/>
  <anchor x="567" y="0" name="bottomC"/>
  <outline>
    <contour>
      <point x="242" y="0" type="line"/>
      <point x="242" y="241" type="line"/>
      <point x="329" y="241" type="line" smooth="yes"/>
      <point x="400" y="241"/>
      <point x="433" y="216"/>
      <point x="441" y="154" type="curve" smooth="yes"/>
      <point x="452" y="77"/>
      <point x="453" y="35"/>
      <point x="467" y="0" type="curve"/>
      <point x="647" y="0" type="line"/>
      <point x="647" y="4" type="line"/>
      <point x="628" y="38"/>
      <point x="621" y="77"/>
      <point x="610" y="171" type="curve" smooth="yes"/>
      <point x="604" y="225"/>
      <point x="578" y="269"/>
      <point x="508" y="285" type="curve"/>
      <point x="508" y="287" type="line"/>
      <point x="585" y="309"/>
      <point x="637" y="358"/>
      <point x="637" y="456" type="curve" smooth="yes"/>
      <point x="637" y="586"/>
      <point x="547" y="660"/>
      <point x="388" y="660" type="curve" smooth="yes"/>
      <point x="73" y="660" type="line"/>
      <point x="73" y="0" type="line"/>
    </contour>
    <contour>
      <point x="242" y="530" type="line"/>
      <point x="359" y="530" type="line" smooth="yes"/>
      <point x="432" y="530"/>
      <point x="464" y="505"/>
      <point x="464" y="447" type="curve" smooth="yes"/>
      <point x="464" y="388"/>
      <point x="432" y="363"/>
      <point x="359" y="363" type="curve" smooth="yes"/>
      <point x="242" y="363" type="line"/>
    </contour>
  </outline>
</glyph>
<glyph name="R.swsh.001" format="2">
  <advance width="743"/>
  <anchor x="329" y="660" name="top"/>
  <anchor x="649" y="-96" name="ogonek"/>
  <anchor x="363" y="0" name="bottom"/>
  <anchor x="662" y="-75" name="bottomC"/>
  <outline>
    <contour>
      <point x="388" y="241" type="line" smooth="yes"/>
      <point x="547" y="241"/>
      <point x="637" y="315"/>
      <point x="637" y="450" type="curve" smooth="yes"/>
      <point x="637" y="586"/>
      <point x="547" y="660"/>
      <point x="388" y="660" type="curve" smooth="yes"/>
      <point x="184" y="660" type="line"/>
      <point x="184" y="530" type="line"/>
      <point x="359" y="530" type="line" smooth="yes"/>
      <point x="432" y="530"/>
      <point x="464" y="505"/>
      <point x="464" y="447" type="curve" smooth="yes"/>
      <point x="464" y="388"/>
      <point x="432" y="363"/>
      <point x="359" y="363" type="curve" smooth="yes"/>
      <point x="184" y="363" type="line"/>
      <point x="184" y="241" type="line"/>
    </contour>
    <contour>
      <point x="242" y="0" type="line"/>
      <point x="242" y="660" type="line"/>
      <point x="73" y="660" type="line"/>
      <point x="73" y="0" type="line"/>
    </contour>
    <contour>
      <point x="743" y="2" type="line"/>
      <point x="688" y="13"/>
      <point x="632" y="56"/>
      <point x="586" y="118" type="curve" smooth="yes"/>
      <point x="430" y="327" type="line"/>
      <point x="288" y="289" type="line"/>
      <point x="472" y="25" type="line" smooth="yes"/>
      <point x="511" y="-31"/>
      <point x="557" y="-73"/>
      <point x="649" y="-96" type="curve"/>
    </contour>
  </outline>
</glyph>
<glyph name="S.swsh" format="2">
  <advance width="644"/>
  <anchor x="329" y="660" name="top"/>
  <anchor x="409" y="-100" name="ogonek"/>
  <anchor x="317" y="-100" name="bottom"/>
  <anchor x="300" y="-100" name="bottomC"/>
  <outline>
    <contour>
      <point x="611" y="119" type="curve" smooth="yes"/>
      <point x="611" y="237"/>
      <point x="549" y="296"/>
      <point x="379" y="335" type="curve" smooth="yes"/>
      <point x="263" y="362"/>
      <point x="225" y="390"/>
      <point x="225" y="442" type="curve" smooth="yes"/>
      <point x="225" y="500"/>
      <point x="264" y="535"/>
      <point x="331" y="535" type="curve" smooth="yes"/>
      <point x="412" y="535"/>
      <point x="445" y="489"/>
      <point x="445" y="412" type="curve"/>
      <point x="600" y="471" type="line"/>
      <point x="593" y="610"/>
      <point x="506" y="670"/>
      <point x="334" y="670" type="curve" smooth="yes"/>
      <point x="154" y="670"/>
      <point x="48" y="574"/>
      <point x="48" y="440" type="curve" smooth="yes"/>
      <point x="48" y="314"/>
      <point x="117" y="248"/>
      <point x="298" y="211" type="curve" smooth="yes"/>
      <point x="415" y="186"/>
      <point x="449" y="159"/>
      <point x="449" y="111" type="curve" smooth="yes"/>
      <point x="449" y="58"/>
      <point x="411" y="25"/>
      <point x="327" y="25" type="curve" smooth="yes"/>
      <point x="230" y="25"/>
      <point x="189" y="56"/>
      <point x="189" y="119" type="curve" smooth="yes"/>
      <point x="189" y="131"/>
      <point x="191" y="143"/>
      <point x="194" y="159" type="curve"/>
      <point x="43" y="118" type="line"/>
      <point x="40" y="105"/>
      <point x="38" y="89"/>
      <point x="38" y="67" type="curve" smooth="yes"/>
      <point x="38" y="-40"/>
      <point x="143" y="-110"/>
      <point x="313" y="-110" type="curve" smooth="yes"/>
      <point x="490" y="-110"/>
      <point x="611" y="-28"/>
    </contour>
  </outline>
</glyph>
<glyph name="T.swsh" format="2">
  <advance width="791"/>
  <anchor x="460" y="0" name="bottom"/>
  <anchor x="464" y="660" name="top"/>
  <anchor x="550" y="0" name="ogonek"/>
  <anchor x="463" y="335" name="center"/>
  <anchor x="494" y="0" name="bottomC"/>
  <outline>
    <contour>
      <point x="254" y="364" type="line"/>
      <point x="194" y="370"/>
      <point x="164" y="405"/>
      <point x="164" y="451" type="curve" smooth="yes"/>
      <point x="164" y="499"/>
      <point x="199" y="527"/>
      <point x="267" y="527" type="curve" smooth="yes"/>
      <point x="451" y="527" type="line"/>
      <point x="451" y="660" type="line"/>
      <point x="254" y="660" type="line" smooth="yes"/>
      <point x="96" y="660"/>
      <point x="10" y="584"/>
      <point x="10" y="454" type="curve" smooth="yes"/>
      <point x="10" y="336"/>
      <point x="92" y="256"/>
      <point x="204" y="248" type="curve"/>
    </contour>
    <contour>
      <point x="550" y="0" type="line"/>
      <point x="550" y="660" type="line"/>
      <point x="378" y="660" type="line"/>
      <point x="378" y="0" type="line"/>
    </contour>
    <contour>
      <point x="766" y="527" type="line"/>
      <point x="766" y="660" type="line"/>
      <point x="324" y="660" type="line"/>
      <point x="324" y="527" type="line"/>
    </contour>
  </outline>
</glyph>
<glyph name="Udieresis.titl" format="2">
  <advance width="713"/>
  <outline>
    <contour>
      <point x="451" y="517" type="curve" smooth="yes"/>
      <point x="451" y="554"/>
      <point x="426" y="577"/>
      <point x="385" y="577" type="curve" smooth="yes"/>
      <point x="346" y="577"/>
      <point x="321" y="554"/>
      <point x="321" y="517" type="curve" smooth="yes"/>
      <point x="321" y="481"/>
      <point x="346" y="458"/>
      <point x="385" y="458" type="curve" smooth="yes"/>
      <point x="426" y="458"/>
      <point x="451" y="481"/>
    </contour>
    <contour>
      <point x="393" y="603" type="curve" smooth="yes"/>
      <point x="393" y="639"/>
      <point x="368" y="662"/>
      <point x="328" y="662" type="curve" smooth="yes"/>
      <point x="288" y="662"/>
      <point x="264" y="639"/>
      <point x="264" y="603" type="curve" smooth="yes"/>
      <point x="264" y="566"/>
      <point x="288" y="543"/>
      <point x="328" y="543" type="curve" smooth="yes"/>
      <point x="368" y="543"/>
      <point x="393" y="566"/>
    </contour>
    <contour>
      <point x="480" y="660" type="line"/>
      <point x="480" y="266" type="line" smooth="yes"/>
      <point x="480" y="171"/>
      <point x="439" y="125"/>
      <point x="356" y="125" type="curve" smooth="yes"/>
      <point x="274" y="125"/>
      <point x="234" y="171"/>
      <point x="234" y="266" type="curve" smooth="yes"/>
      <point x="234" y="660" type="line"/>
      <point x="61" y="660" type="line"/>
      <point x="61" y="269" type="line" smooth="yes"/>
      <point x="61" y="83"/>
      <point x="162" y="-10"/>
      <point x="356" y="-10" type="curve" smooth="yes"/>
      <point x="551" y="-10"/>
      <point x="651" y="83"/>
      <point x="651" y="269" type="curve" smooth="yes"/>
      <point x="651" y="660" type="line"/>
    </contour>
  </outline>
</glyph>
<glyph name="Ydieresis.titl" format="2">
  <advance width="657"/>
  <outline>
    <contour>
      <point x="509" y="720" type="curve" smooth="yes"/>
      <point x="509" y="767"/>
      <point x="478" y="796"/>
      <point x="425" y="796" type="curve" smooth="yes"/>
      <point x="372" y="796"/>
      <point x="341" y="767"/>
      <point x="341" y="720" type="curve" smooth="yes"/>
      <point x="341" y="672"/>
      <point x="372" y="643"/>
      <point x="425" y="643" type="curve" smooth="yes"/>
      <point x="478" y="643"/>
      <point x="509" y="672"/>
    </contour>
    <contour>
      <point x="315" y="720" type="curve" smooth="yes"/>
      <point x="315" y="767"/>
      <point x="283" y="796"/>
      <point x="230" y="796" type="curve" smooth="yes"/>
      <point x="178" y="796"/>
      <point x="147" y="767"/>
      <point x="147" y="720" type="curve" smooth="yes"/>
      <point x="147" y="672"/>
      <point x="178" y="643"/>
      <point x="230" y="643" type="curve" smooth="yes"/>
      <point x="283" y="643"/>
      <point x="315" y="672"/>
    </contour>
    <contour>
      <point x="472" y="660" type="line"/>
      <point x="379" y="479" type="line"/>
      <point x="329" y="369" type="line"/>
      <point x="280" y="479" type="line"/>
      <point x="187" y="660" type="line"/>
      <point x="9" y="660" type="line"/>
      <point x="242" y="241" type="line"/>
      <point x="242" y="0" type="line"/>
      <point x="414" y="0" type="line"/>
      <point x="414" y="241" type="line"/>
      <point x="647" y="660" type="line"/>
    </contour>
  </outline>
</glyph>
<glyph name="acutecmb.cap" format="2">
  <anchor x="0" y="660" name="_top"/>
  <outline>
    <contour>
      <point x="-72" y="723" type="line"/>
      <point x="52" y="723" type="line"/>
      <point x="141" y="886" type="line"/>
      <point x="-11" y="886" type="line"/>
    </contour>
  </outline>
</glyph>
<glyph name="ae.sc" format="2">
  <advance width="856"/>
  <anchor x="450" y="560" name="top"/>
  <anchor x="450" y="0" name="bottom"/>
  <outline>
    <contour>
      <point x="234" y="560" type="line"/>
      <point x="-6" y="0" type="line"/>
      <point x="154" y="0" type="line"/>
      <point x="370" y="560" type="line"/>
    </contour>
    <contour>
      <point x="179" y="272" type="line"/>
      <point x="125" y="158" type="line"/>
      <point x="458" y="158" type="line"/>
      <point x="458" y="272" type="line"/>
    </contour>
    <contour>
      <point x="453" y="117" type="line"/>
      <point x="453" y="0" type="line"/>
      <point x="823" y="0" type="line"/>
      <point x="823" y="117" type="line"/>
    </contour>
    <contour>
      <point x="372" y="560" type="line"/>
      <point x="372" y="0" type="line"/>
      <point x="528" y="0" type="line"/>
      <point x="528" y="560" type="line"/>
    </contour>
    <contour>
      <point x="453" y="337" type="line"/>
      <point x="453" y="223" type="line"/>
      <point x="741" y="223" type="line"/>
      <point x="741" y="337" type="line"/>
    </contour>
    <contour>
      <point x="297" y="560" type="line"/>
      <point x="256" y="446" type="line"/>
      <point x="444" y="446" type="line"/>
      <point x="479" y="443" type="line"/>
      <point x="811" y="443" type="line"/>
      <point x="811" y="560" type="line"/>
    </contour>
  </outline>
</glyph>
<glyph name="ampersand.sc" format="2">
  <advance width="582"/>
  <outline>
    <contour>
      <point x="585" y="95" type="line"/>
      <point x="517" y="94"/>
      <point x="476" y="112"/>
      <point x="357" y="236" type="curve" smooth="yes"/>
      <point x="242" y="358"/>
      <point x="223" y="380"/>
      <point x="223" y="417" type="curve" smooth="yes"/>
      <point x="223" y="446"/>
      <point x="238" y="465"/>
      <point x="269" y="465" type="curve" smooth="yes"/>
      <point x="297" y="465"/>
      <point x="314" y="452"/>
      <point x="314" y="420" type="curve" smooth="yes"/>
      <point x="314" y="382"/>
      <point x="300" y="357"/>
      <point x="225" y="312" type="curve"/>
      <point x="58" y="276"/>
      <point x="21" y="211"/>
      <point x="21" y="138" type="curve" smooth="yes"/>
      <point x="21" y="47"/>
      <point x="95" y="-7"/>
      <point x="239" y="-7" type="curve" smooth="yes"/>
      <point x="333" y="-7"/>
      <point x="399" y="20"/>
      <point x="442" y="79" type="curve"/>
      <point x="496" y="117"/>
      <point x="538" y="173"/>
      <point x="536" y="280" type="curve"/>
      <point x="438" y="287" type="line"/>
      <point x="441" y="208"/>
      <point x="424" y="168"/>
      <point x="389" y="136" type="curve"/>
      <point x="351" y="110"/>
      <point x="309" y="93"/>
      <point x="251" y="93" type="curve" smooth="yes"/>
      <point x="203" y="93"/>
      <point x="163" y="118"/>
      <point x="163" y="158" type="curve" smooth="yes"/>
      <point x="163" y="190"/>
      <point x="184" y="217"/>
      <point x="266" y="256" type="curve"/>
      <point x="403" y="306"/>
      <point x="436" y="359"/>
      <point x="436" y="434" type="curve" smooth="yes"/>
      <point x="436" y="516"/>
      <point x="375" y="568"/>
      <point x="266" y="568" type="curve" smooth="yes"/>
      <point x="138" y="568"/>
      <point x="82" y="494"/>
      <point x="82" y="423" type="curve" smooth="yes"/>
      <point x="82" y="350"/>
      <point x="124" y="304"/>
      <point x="295" y="146" type="curve" smooth="yes"/>
      <point x="436" y="13"/>
      <point x="478" y="-8"/>
      <point x="564" y="-8" type="curve"/>
    </contour>
  </outline>
</glyph>
<glyph name="b.sc" format="2">
  <advance width="627"/>
  <anchor x="299" y="560" name="top"/>
  <anchor x="373" y="0" name="ogonek"/>
  <anchor x="299" y="0" name="bottom"/>
  <anchor x="304" y="0" name="bottomC"/>
  <outline>
    <contour>
      <point x="384" y="0" type="line" smooth="yes"/>
      <point x="521" y="0"/>
      <point x="591" y="53"/>
      <point x="591" y="150" type="curve" smooth="yes"/>
      <point x="591" y="219"/>
      <point x="549" y="270"/>
      <point x="461" y="279" type="curve"/>
      <point x="461" y="282" type="line"/>
      <point x="537" y="296"/>
      <point x="576" y="345"/>
      <point x="576" y="409" type="curve" smooth="yes"/>
      <point x="576" y="507"/>
      <point x="510" y="559"/>
      <point x="371" y="560" type="curve" smooth="yes"/>
      <point x="69" y="560" type="line"/>
      <point x="69" y="0" type="line"/>
    </contour>
    <contour>
      <point x="229" y="229" type="line"/>
      <point x="349" y="229" type="line" smooth="yes"/>
      <point x="396" y="229"/>
      <point x="423" y="210"/>
      <point x="423" y="169" type="curve" smooth="yes"/>
      <point x="423" y="129"/>
      <point x="396" y="110"/>
      <point x="349" y="110" type="curve" smooth="yes"/>
      <point x="229" y="110" type="line"/>
    </contour>
    <contour>
      <point x="229" y="450" type="line"/>
      <point x="332" y="450" type="line" smooth="yes"/>
      <point x="384" y="450"/>
      <point x="408" y="431"/>
      <point x="408" y="391" type="curve" smooth="yes"/>
      <point x="408" y="351"/>
      <point x="384" y="333"/>
      <point x="332" y="333" type="curve" smooth="yes"/>
      <point x="229" y="333" type="line"/>
    </contour>
  </outline>
</glyph>
<glyph name="blackCircle.case" format="2">
  <advance width="804"/>
  <outline>
    <contour>
      <point x="742" y="330" type="curve" smooth="yes"/>
      <point x="742" y="524"/>
      <point x="596" y="670"/>
      <point x="402" y="670" type="curve" smooth="yes"/>
      <point x="208" y="670"/>
      <point x="62" y="524"/>
      <point x="62" y="330" type="curve" smooth="yes"/>
      <point x="62" y="136"/>
      <point x="208" y="-10"/>
      <point x="402" y="-10" type="curve" smooth="yes"/>
      <point x="596" y="-10"/>
      <point x="742" y="136"/>
    </contour>
  </outline>
</glyph>
<glyph name="blackSmallSquare.case" format="2">
  <advance width="804"/>
  <outline>
    <contour>
      <point x="72" y="0" type="line"/>
      <point x="732" y="0" type="line"/>
      <point x="732" y="660" type="line"/>
      <point x="72" y="660" type="line"/>
    </contour>
  </outline>
</glyph>
<glyph name="bowl" format="2">
  <advance width="602"/>
  <outline>
    <contour>
      <point x="80" y="248" type="curve" smooth="yes"/>
      <point x="80" y="85"/>
      <point x="156" y="-10"/>
      <point x="286" y="-10" type="curve" smooth="yes"/>
      <point x="400" y="-10"/>
      <point x="469" y="82"/>
      <point x="469" y="197" type="curve"/>
      <point x="437" y="245" type="line"/>
      <point x="437" y="159"/>
      <point x="402" y="115"/>
      <point x="345" y="115" type="curve" smooth="yes"/>
      <point x="287" y="115"/>
      <point x="251" y="156"/>
      <point x="251" y="250" type="curve" smooth="yes"/>
      <point x="251" y="344"/>
      <point x="287" y="385"/>
      <point x="345" y="385" type="curve" smooth="yes"/>
      <point x="404" y="385"/>
      <point x="437" y="338"/>
      <point x="437" y="255" type="curve"/>
      <point x="461" y="303" type="line"/>
      <point x="461" y="419"/>
      <point x="400" y="510"/>
      <point x="286" y="510" type="curve" smooth="yes"/>
      <point x="158" y="510"/>
      <point x="80" y="414"/>
    </contour>
  </outline>
</glyph>
<glyph name="braceleft.case" format="2">
  <advance width="420"/>
  <outline>
    <contour>
      <point x="153" y="607" type="curve" smooth="yes"/>
      <point x="153" y="488" type="line" smooth="yes"/>
      <point x="153" y="413"/>
      <point x="122" y="384"/>
      <point x="41" y="384" type="curve"/>
      <point x="41" y="313" type="line"/>
      <point x="199" y="313"/>
      <point x="289" y="345"/>
      <point x="289" y="452" type="curve" smooth="yes"/>
      <point x="289" y="587" type="line" smooth="yes"/>
      <point x="289" y="644"/>
      <point x="321" y="668"/>
      <point x="396" y="668" type="curve"/>
      <point x="391" y="777" type="line"/>
      <point x="219" y="777"/>
      <point x="153" y="730"/>
    </contour>
    <contour>
      <point x="41" y="274" type="line"/>
      <point x="122" y="274"/>
      <point x="153" y="245"/>
      <point x="153" y="170" type="curve" smooth="yes"/>
      <point x="153" y="51" type="line" smooth="yes"/>
      <point x="153" y="-72"/>
      <point x="219" y="-119"/>
      <point x="391" y="-119" type="curve"/>
      <point x="396" y="-11" type="line"/>
      <point x="321" y="-11"/>
      <point x="289" y="13"/>
      <point x="289" y="71" type="curve" smooth="yes"/>
      <point x="289" y="206" type="line" smooth="yes"/>
      <point x="289" y="313"/>
      <point x="199" y="345"/>
      <point x="41" y="345" type="curve"/>
    </contour>
  </outline>
</glyph>
<glyph name="bracketleftsuperior" format="2">
  <advance width="252"/>
  <outline>
    <contour>
      <point x="156" y="810" type="line"/>
      <point x="54" y="810" type="line"/>
      <point x="54" y="253" type="line"/>
      <point x="156" y="253" type="line"/>
    </contour>
    <contour>
      <point x="109" y="726" type="line"/>
      <point x="239" y="726" type="line"/>
      <point x="239" y="810" type="line"/>
      <point x="109" y="810" type="line"/>
    </contour>
    <contour>
      <point x="109" y="253" type="line"/>
      <point x="239" y="253" type="line"/>
      <point x="239" y="337" type="line"/>
      <point x="109" y="337" type="line"/>
    </contour>
  </outline>
</glyph>
<glyph name="c.sc" format="2">
  <advance width="607"/>
  <anchor x="336" y="560" name="top"/>
  <anchor x="406" y="0" name="ogonek"/>
  <anchor x="336" y="0" name="bottom"/>
  <anchor x="334" y="0" name="bottomC"/>
  <outline>
    <contour>
      <point x="439" y="209" type="line"/>
      <point x="432" y="149"/>
      <point x="397" y="122"/>
      <point x="332" y="122" type="curve" smooth="yes"/>
      <point x="257" y="122"/>
      <point x="210" y="173"/>
      <point x="210" y="280" type="curve" smooth="yes"/>
      <point x="210" y="387"/>
      <point x="258" y="438"/>
      <point x="331" y="438" type="curve" smooth="yes"/>
      <point x="385" y="438"/>
      <point x="424" y="416"/>
      <point x="432" y="348" type="curve"/>
      <point x="585" y="393" type="line"/>
      <point x="563" y="508"/>
      <point x="459" y="568"/>
      <point x="333" y="568" type="curve" smooth="yes"/>
      <point x="149" y="568"/>
      <point x="40" y="463"/>
      <point x="40" y="280" type="curve" smooth="yes"/>
      <point x="40" y="98"/>
      <point x="148" y="-8"/>
      <point x="327" y="-8" type="curve" smooth="yes"/>
      <point x="476" y="-8"/>
      <point x="573" y="62"/>
      <point x="590" y="168" type="curve"/>
    </contour>
  </outline>
</glyph>
<glyph name="c_t" format="2">
  <advance width="951"/>
  <outline>
    <contour>
      <point x="541" y="143" type="curve"/>
      <point x="389" y="192" type="line"/>
      <point x="379" y="140"/>
      <point x="352" y="111"/>
      <point x="306" y="111" type="curve" smooth="yes"/>
      <point x="246" y="111"/>
      <point x="207" y="149"/>
      <point x="207" y="248" type="curve" smooth="yes"/>
      <point x="207" y="346"/>
      <point x="242" y="389"/>
      <point x="306" y="389" type="curve" smooth="yes"/>
      <point x="349" y="389"/>
      <point x="375" y="360"/>
      <point x="383" y="303" type="curve"/>
      <point x="540" y="355" type="line"/>
      <point x="515" y="409"/>
      <point x="494" y="468"/>
      <point x="494" y="521" type="curve" smooth="yes"/>
      <point x="494" y="585"/>
      <point x="520" y="604"/>
      <point x="554" y="604" type="curve" smooth="yes"/>
      <point x="587" y="604"/>
      <point x="616" y="579"/>
      <point x="616" y="511" type="curve" smooth="yes"/>
      <point x="616" y="150" type="line" smooth="yes"/>
      <point x="616" y="34"/>
      <point x="686" y="-10"/>
      <point x="800" y="-10" type="curve" smooth="yes"/>
      <point x="852" y="-10"/>
      <point x="908" y="5"/>
      <point x="941" y="28" type="curve"/>
      <point x="924" y="133" type="line"/>
      <point x="904" y="119"/>
      <point x="883" y="111"/>
      <point x="852" y="111" type="curve" smooth="yes"/>
      <point x="810" y="111"/>
      <point x="786" y="130"/>
      <point x="786" y="178" type="curve" smooth="yes"/>
      <point x="786" y="541" type="line" smooth="yes"/>
      <point x="786" y="674"/>
      <point x="673" y="724"/>
      <point x="569" y="724" type="curve" smooth="yes"/>
      <point x="450" y="724"/>
      <point x="368" y="666"/>
      <point x="368" y="555" type="curve" smooth="yes"/>
      <point x="368" y="501"/>
      <point x="391" y="471"/>
      <point x="415" y="453" type="curve"/>
      <point x="411" y="485" type="line"/>
      <point x="369" y="503"/>
      <point x="337" y="510"/>
      <point x="300" y="510" type="curve" smooth="yes"/>
      <point x="134" y="510"/>
      <point x="37" y="414"/>
      <point x="37" y="250" type="curve" smooth="yes"/>
      <point x="37" y="86"/>
      <point x="132" y="-10"/>
      <point x="307" y="-10" type="curve" smooth="yes"/>
      <point x="447" y="-10"/>
      <point x="528" y="56"/>
    </contour>
    <contour>
      <point x="936" y="379" type="line"/>
      <point x="936" y="500" type="line"/>
      <point x="680" y="500" type="line"/>
      <point x="680" y="379" type="line"/>
    </contour>
  </outline>
</glyph>
<glyph name="caron.alt" format="2">
  <advance width="239"/>
  <anchor x="67" y="712" name="_topright"/>
  <outline>
    <contour>
      <point x="67" y="712" type="line"/>
      <point x="46" y="473" type="line"/>
      <point x="143" y="473" type="line"/>
      <point x="196" y="712" type="line"/>
    </contour>
  </outline>
</glyph>
<glyph name="caroncmb.cap" format="2">
  <anchor x="0" y="660" name="_top"/>
  <outline>
    <contour>
      <point x="65" y="886" type="line"/>
      <point x="0" y="794" type="line"/>
      <point x="-65" y="886" type="line"/>
      <point x="-183" y="886" type="line"/>
      <point x="-83" y="723" type="line"/>
      <point x="83" y="723" type="line"/>
      <point x="183" y="886" type="line"/>
    </contour>
  </outline>
</glyph>
<glyph name="cent.001" format="2">
  <advance width="570"/>
  <outline>
    <contour>
      <point x="45" y="250" type="curve" smooth="yes"/>
      <point x="45" y="86"/>
      <point x="139" y="-10"/>
      <point x="311" y="-10" type="curve" smooth="yes"/>
      <point x="447" y="-10"/>
      <point x="529" y="52"/>
      <point x="542" y="144" type="curve"/>
      <point x="405" y="182" type="line"/>
      <point x="394" y="129"/>
      <point x="361" y="101"/>
      <point x="309" y="101" type="curve" smooth="yes"/>
      <point x="242" y="101"/>
      <point x="201" y="143"/>
      <point x="201" y="248" type="curve" smooth="yes"/>
      <point x="201" y="352"/>
      <point x="239" y="399"/>
      <point x="311" y="399" type="curve" smooth="yes"/>
      <point x="358" y="399"/>
      <point x="389" y="369"/>
      <point x="399" y="313" type="curve"/>
      <point x="541" y="354" type="line"/>
      <point x="524" y="439"/>
      <point x="461" y="510"/>
      <point x="305" y="510" type="curve" smooth="yes"/>
      <point x="141" y="510"/>
      <point x="45" y="414"/>
    </contour>
    <contour>
      <point x="242" y="43" type="line"/>
      <point x="242" y="-110" type="line"/>
      <point x="359" y="-110" type="line"/>
      <point x="359" y="43" type="line"/>
    </contour>
    <contour>
      <point x="242" y="610" type="line"/>
      <point x="242" y="455" type="line"/>
      <point x="359" y="455" type="line"/>
      <point x="359" y="610" type="line"/>
    </contour>
  </outline>
</glyph>
<glyph name="commasuperior" format="2">
  <advance width="227"/>
  <outline>
    <contour>
      <point x="38" y="392" type="curve" smooth="yes"/>
      <point x="38" y="349"/>
      <point x="75" y="327"/>
      <point x="103" y="327" type="curve" smooth="yes"/>
      <point x="111" y="327"/>
      <point x="115" y="329"/>
      <point x="120" y="332" type="curve"/>
      <point x="124" y="330" type="line"/>
      <point x="115" y="299"/>
      <point x="79" y="271"/>
      <point x="34" y="254" type="curve"/>
      <point x="90" y="215" type="line"/>
      <point x="159" y="244"/>
      <point x="194" y="301"/>
      <point x="194" y="364" type="curve" smooth="yes"/>
      <point x="194" y="421"/>
      <point x="168" y="459"/>
      <point x="113" y="459" type="curve" smooth="yes"/>
      <point x="64" y="459"/>
      <point x="38" y="435"/>
    </contour>
  </outline>
</glyph>
<glyph name="daggersuperior" format="2">
  <advance width="484"/>
  <outline>
    <contour>
      <point x="180" y="730" type="line"/>
      <point x="180" y="209" type="line"/>
      <point x="303" y="209" type="line"/>
      <point x="303" y="730" type="line"/>
    </contour>
    <contour>
      <point x="33" y="585" type="line"/>
      <point x="33" y="481" type="line"/>
      <point x="450" y="481" type="line"/>
      <point x="450" y="585" type="line"/>
    </contour>
  </outline>
</glyph>
<glyph name="dollar.001" format="2">
  <advance width="633"/>
  <outline>
    <contour>
      <point x="47" y="457" type="curve" smooth="yes"/>
      <point x="47" y="213"/>
      <point x="443" y="307"/>
      <point x="443" y="184" type="curve" smooth="yes"/>
      <point x="443" y="140"/>
      <point x="399" y="118"/>
      <point x="320" y="118" type="curve" smooth="yes"/>
      <point x="226" y="118"/>
      <point x="147" y="155"/>
      <point x="110" y="225" type="curve"/>
      <point x="25" y="124" type="line"/>
      <point x="86" y="44"/>
      <point x="173" y="0"/>
      <point x="328" y="0" type="curve" smooth="yes"/>
      <point x="483" y="0"/>
      <point x="601" y="69"/>
      <point x="601" y="192" type="curve" smooth="yes"/>
      <point x="601" y="440"/>
      <point x="206" y="349"/>
      <point x="206" y="468" type="curve" smooth="yes"/>
      <point x="206" y="513"/>
      <point x="251" y="542"/>
      <point x="330" y="542" type="curve" smooth="yes"/>
      <point x="419" y="542"/>
      <point x="475" y="515"/>
      <point x="521" y="442" type="curve"/>
      <point x="607" y="540" type="line"/>
      <point x="546" y="614"/>
      <point x="476" y="660"/>
      <point x="326" y="660" type="curve" smooth="yes"/>
      <point x="148" y="660"/>
      <point x="47" y="574"/>
    </contour>
    <contour>
      <point x="260" y="59" type="line"/>
      <point x="260" y="-106" type="line"/>
      <point x="392" y="-106" type="line"/>
      <point x="392" y="59" type="line"/>
    </contour>
    <contour>
      <point x="391" y="610" type="line"/>
      <point x="391" y="766" type="line"/>
      <point x="259" y="766" type="line"/>
      <point x="259" y="610" type="line"/>
    </contour>
  </outline>
</glyph>
<glyph name="dollar.tf" format="2">
  <advance width="604"/>
  <outline>
    <contour>
      <point x="53" y="458" type="curve" smooth="yes"/>
      <point x="53" y="210"/>
      <point x="432" y="305"/>
      <point x="432" y="184" type="curve" smooth="yes"/>
      <point x="432" y="138"/>
      <point x="395" y="115"/>
      <point x="308" y="115" type="curve" smooth="yes"/>
      <point x="233" y="115"/>
      <point x="146" y="154"/>
      <point x="118" y="225" type="curve"/>
      <point x="26" y="126" type="line"/>
      <point x="83" y="44"/>
      <point x="167" y="0"/>
      <point x="312" y="0" type="curve" smooth="yes"/>
      <point x="458" y="0"/>
      <point x="569" y="69"/>
      <point x="569" y="191" type="curve" smooth="yes"/>
      <point x="569" y="436"/>
      <point x="191" y="344"/>
      <point x="191" y="468" type="curve" smooth="yes"/>
      <point x="191" y="514"/>
      <point x="230" y="544"/>
      <point x="316" y="544" type="curve" smooth="yes"/>
      <point x="394" y="544"/>
      <point x="453" y="516"/>
      <point x="490" y="443" type="curve"/>
      <point x="577" y="539" type="line"/>
      <point x="511" y="614"/>
      <point x="452" y="660"/>
      <point x="312" y="660" type="curve" smooth="yes"/>
      <point x="149" y="660"/>
      <point x="53" y="574"/>
    </contour>
    <contour>
      <point x="263" y="748" type="line"/>
      <point x="263" y="-88" type="line"/>
      <point x="360" y="-88" type="line"/>
      <point x="360" y="748" type="line"/>
    </contour>
  </outline>
</glyph>
<glyph name="eight.tf" format="2">
  <advance width="604"/>
  <outline>
    <contour>
      <point x="65" y="483" type="curve" smooth="yes"/>
      <point x="65" y="414"/>
      <point x="105" y="363"/>
      <point x="166" y="338" type="curve"/>
      <point x="166" y="337" type="line"/>
      <point x="92" y="311"/>
      <point x="46" y="257"/>
      <point x="46" y="181" type="curve" smooth="yes"/>
      <point x="46" y="61"/>
      <point x="143" y="-10"/>
      <point x="302" y="-10" type="curve" smooth="yes"/>
      <point x="461" y="-10"/>
      <point x="558" y="61"/>
      <point x="558" y="181" type="curve" smooth="yes"/>
      <point x="558" y="259"/>
      <point x="510" y="311"/>
      <point x="438" y="337" type="curve"/>
      <point x="438" y="338" type="line"/>
      <point x="501" y="364"/>
      <point x="539" y="415"/>
      <point x="539" y="483" type="curve" smooth="yes"/>
      <point x="539" y="598"/>
      <point x="448" y="668"/>
      <point x="302" y="668" type="curve" smooth="yes"/>
      <point x="156" y="668"/>
      <point x="65" y="598"/>
    </contour>
    <contour>
      <point x="386" y="468" type="curve" smooth="yes"/>
      <point x="386" y="421"/>
      <point x="354" y="393"/>
      <point x="302" y="393" type="curve" smooth="yes"/>
      <point x="250" y="393"/>
      <point x="218" y="421"/>
      <point x="218" y="468" type="curve" smooth="yes"/>
      <point x="218" y="517"/>
      <point x="250" y="544"/>
      <point x="302" y="544" type="curve" smooth="yes"/>
      <point x="354" y="544"/>
      <point x="386" y="517"/>
    </contour>
    <contour>
      <point x="207" y="196" type="curve" smooth="yes"/>
      <point x="207" y="248"/>
      <point x="243" y="278"/>
      <point x="303" y="278" type="curve" smooth="yes"/>
      <point x="362" y="278"/>
      <point x="399" y="248"/>
      <point x="399" y="196" type="curve" smooth="yes"/>
      <point x="399" y="144"/>
      <point x="363" y="114"/>
      <point x="303" y="114" type="curve" smooth="yes"/>
      <point x="242" y="114"/>
      <point x="207" y="144"/>
    </contour>
  </outline>
</glyph>
<glyph name="emdashsuperior" format="2">
  <advance width="676"/>
  <outline>
    <contour>
      <point x="52" y="577" type="line"/>
      <point x="52" y="485" type="line"/>
      <point x="625" y="485" type="line"/>
      <point x="625" y="577" type="line"/>
    </contour>
  </outline>
</glyph>
<glyph name="endashsuperior" format="2">
  <advance width="466"/>
  <outline>
    <contour>
      <point x="52" y="577" type="line"/>
      <point x="52" y="485" type="line"/>
      <point x="414" y="485" type="line"/>
      <point x="414" y="577" type="line"/>
    </contour>
  </outline>
</glyph>
<glyph name="euro.part" format="2">
  <advance width="702"/>
  <outline>
    <contour>
      <point x="101" y="330" type="curve" smooth="yes"/>
      <point x="101" y="117"/>
      <point x="218" y="-10"/>
      <point x="413" y="-10" type="curve" smooth="yes"/>
      <point x="543" y="-10"/>
      <point x="647" y="51"/>
      <point x="677" y="174" type="curve"/>
      <point x="546" y="213" type="line"/>
      <point x="531" y="143"/>
      <point x="480" y="110"/>
      <point x="418" y="110" type="curve" smooth="yes"/>
      <point x="307" y="110"/>
      <point x="258" y="189"/>
      <point x="258" y="330" type="curve" smooth="yes"/>
      <point x="258" y="472"/>
      <point x="314" y="550"/>
      <point x="422" y="550" type="curve" smooth="yes"/>
      <point x="482" y="550"/>
      <point x="536" y="522"/>
      <point x="547" y="454" type="curve"/>
      <point x="673" y="514" type="line"/>
      <point x="643" y="613"/>
      <point x="540" y="670"/>
      <point x="413" y="670" type="curve" smooth="yes"/>
      <point x="219" y="670"/>
      <point x="101" y="543"/>
    </contour>
  </outline>
</glyph>
<glyph name="euro.part.tf" format="2">
  <advance width="604"/>
  <outline>
    <contour>
      <point x="92" y="330" type="curve" smooth="yes"/>
      <point x="92" y="116"/>
      <point x="188" y="-10"/>
      <point x="356" y="-10" type="curve" smooth="yes"/>
      <point x="480" y="-10"/>
      <point x="571" y="60"/>
      <point x="592" y="170" type="curve"/>
      <point x="464" y="206" type="line"/>
      <point x="457" y="141"/>
      <point x="420" y="110"/>
      <point x="358" y="110" type="curve" smooth="yes"/>
      <point x="280" y="110"/>
      <point x="234" y="190"/>
      <point x="234" y="330" type="curve" smooth="yes"/>
      <point x="234" y="472"/>
      <point x="285" y="550"/>
      <point x="367" y="550" type="curve" smooth="yes"/>
      <point x="419" y="550"/>
      <point x="452" y="520"/>
      <point x="459" y="460" type="curve"/>
      <point x="585" y="520" type="line"/>
      <point x="559" y="623"/>
      <point x="489" y="670"/>
      <point x="363" y="670" type="curve" smooth="yes"/>
      <point x="192" y="670"/>
      <point x="92" y="544"/>
    </contour>
  </outline>
</glyph>
<glyph name="five.sc" format="2">
  <advance width="546"/>
  <outline>
    <contour>
      <point x="196" y="312" type="curve"/>
      <point x="194" y="313" type="line"/>
      <point x="198" y="321"/>
      <point x="201" y="339"/>
      <point x="202" y="347" type="curve"/>
      <point x="214" y="441" type="line"/>
      <point x="479" y="441" type="line"/>
      <point x="479" y="560" type="line"/>
      <point x="91" y="560" type="line"/>
      <point x="54" y="237" type="line"/>
      <point x="181" y="222" type="line"/>
      <point x="200" y="246"/>
      <point x="230" y="257"/>
      <point x="268" y="257" type="curve" smooth="yes"/>
      <point x="318" y="257"/>
      <point x="352" y="233"/>
      <point x="352" y="187" type="curve" smooth="yes"/>
      <point x="352" y="144"/>
      <point x="322" y="114"/>
      <point x="270" y="114" type="curve" smooth="yes"/>
      <point x="212" y="114"/>
      <point x="190" y="137"/>
      <point x="174" y="174" type="curve"/>
      <point x="36" y="104" type="line"/>
      <point x="82" y="24"/>
      <point x="163" y="-8"/>
      <point x="276" y="-8" type="curve" smooth="yes"/>
      <point x="419" y="-8"/>
      <point x="503" y="67"/>
      <point x="503" y="189" type="curve" smooth="yes"/>
      <point x="503" y="291"/>
      <point x="433" y="359"/>
      <point x="329" y="359" type="curve" smooth="yes"/>
      <point x="255" y="359"/>
      <point x="219" y="339"/>
    </contour>
  </outline>
</glyph>
<glyph name="florin.tf" format="2">
  <advance width="604"/>
  <outline>
    <contour>
      <point x="289" y="552" type="curve" smooth="yes"/>
      <point x="201" y="66" type="line" smooth="yes"/>
      <point x="192" y="17"/>
      <point x="161" y="-10"/>
      <point x="113" y="-10" type="curve" smooth="yes"/>
      <point x="91" y="-10"/>
      <point x="71" y="-5"/>
      <point x="56" y="6" type="curve"/>
      <point x="34" y="-101" type="line"/>
      <point x="67" y="-122"/>
      <point x="93" y="-128"/>
      <point x="144" y="-128" type="curve" smooth="yes"/>
      <point x="255" y="-128"/>
      <point x="326" y="-66"/>
      <point x="346" y="47" type="curve" smooth="yes"/>
      <point x="433" y="532" type="line" smooth="yes"/>
      <point x="442" y="582"/>
      <point x="473" y="609"/>
      <point x="521" y="609" type="curve" smooth="yes"/>
      <point x="544" y="609"/>
      <point x="562" y="604"/>
      <point x="579" y="593" type="curve"/>
      <point x="600" y="700" type="line"/>
      <point x="568" y="721"/>
      <point x="541" y="727"/>
      <point x="491" y="727" type="curve" smooth="yes"/>
      <point x="379" y="727"/>
      <point x="309" y="665"/>
    </contour>
    <contour>
      <point x="101" y="417" type="line"/>
      <point x="101" y="299" type="line"/>
      <point x="558" y="299" type="line"/>
      <point x="558" y="417" type="line"/>
    </contour>
  </outline>
</glyph>
<glyph name="four.sc" format="2">
  <advance width="612"/>
  <outline>
    <contour>
      <point x="491" y="0" type="line"/>
      <point x="491" y="115" type="line"/>
      <point x="582" y="115" type="line"/>
      <point x="582" y="230" type="line"/>
      <point x="491" y="230" type="line"/>
      <point x="491" y="560" type="line"/>
      <point x="288" y="560" type="line"/>
      <point x="39" y="198" type="line"/>
      <point x="39" y="115" type="line"/>
      <point x="337" y="115" type="line"/>
      <point x="337" y="0" type="line"/>
    </contour>
    <contour>
      <point x="295" y="382" type="line" smooth="yes"/>
      <point x="309" y="405"/>
      <point x="329" y="438"/>
      <point x="339" y="461" type="curve"/>
      <point x="342" y="461" type="line"/>
      <point x="338" y="230" type="line"/>
      <point x="190" y="230" type="line"/>
    </contour>
  </outline>
</glyph>
<glyph name="four.tf" format="2">
  <advance width="604"/>
  <outline>
    <contour>
      <point x="478" y="0" type="line"/>
      <point x="478" y="145" type="line"/>
      <point x="582" y="145" type="line"/>
      <point x="582" y="263" type="line"/>
      <point x="478" y="263" type="line"/>
      <point x="478" y="660" type="line"/>
      <point x="278" y="660" type="line"/>
      <point x="33" y="226" type="line"/>
      <point x="33" y="145" type="line"/>
      <point x="326" y="145" type="line"/>
      <point x="326" y="0" type="line"/>
    </contour>
    <contour>
      <point x="293" y="461" type="line" smooth="yes"/>
      <point x="305" y="482"/>
      <point x="324" y="520"/>
      <point x="333" y="544" type="curve"/>
      <point x="336" y="544" type="line"/>
      <point x="333" y="491"/>
      <point x="332" y="426"/>
      <point x="332" y="386" type="curve" smooth="yes"/>
      <point x="332" y="263" type="line"/>
      <point x="177" y="263" type="line"/>
    </contour>
  </outline>
</glyph>
<glyph name="four.tosf" format="2">
  <advance width="604"/>
  <outline>
    <contour>
      <point x="482" y="-100" type="line"/>
      <point x="482" y="45" type="line"/>
      <point x="582" y="45" type="line"/>
      <point x="582" y="163" type="line"/>
      <point x="482" y="163" type="line"/>
      <point x="482" y="560" type="line"/>
      <point x="282" y="560" type="line"/>
      <point x="30" y="126" type="line"/>
      <point x="30" y="45" type="line"/>
      <point x="330" y="45" type="line"/>
      <point x="330" y="-100" type="line"/>
    </contour>
    <contour>
      <point x="294" y="362" type="line" smooth="yes"/>
      <point x="309" y="386"/>
      <point x="327" y="421"/>
      <point x="337" y="446" type="curve"/>
      <point x="339" y="446" type="line"/>
      <point x="337" y="392"/>
      <point x="335" y="326"/>
      <point x="335" y="286" type="curve" smooth="yes"/>
      <point x="335" y="163" type="line"/>
      <point x="172" y="163" type="line"/>
    </contour>
  </outline>
</glyph>
<glyph name="g.ss01_j.liga" format="2">
  <advance width="909"/>
  <anchor x="310" y="500" name="top"/>
  <outline>
    <contour>
      <point x="416" y="500" type="line"/>
      <point x="409" y="378" type="line"/>
      <point x="397" y="364" type="line"/>
      <point x="397" y="-1" type="line" smooth="yes"/>
      <point x="397" y="-70"/>
      <point x="360" y="-108"/>
      <point x="304" y="-108" type="curve" smooth="yes"/>
      <point x="249" y="-108"/>
      <point x="221" y="-81"/>
      <point x="218" y="-26" type="curve"/>
      <point x="55" y="-69" type="line"/>
      <point x="73" y="-182"/>
      <point x="168" y="-215"/>
      <point x="287" y="-215" type="curve" smooth="yes"/>
      <point x="457" y="-215"/>
      <point x="568" y="-145"/>
      <point x="568" y="40" type="curve" smooth="yes"/>
      <point x="568" y="383" type="line"/>
      <point x="568" y="500" type="line"/>
    </contour>
    <contour>
      <point x="40" y="260" type="curve" smooth="yes"/>
      <point x="40" y="105"/>
      <point x="116" y="14"/>
      <point x="246" y="14" type="curve" smooth="yes"/>
      <point x="362" y="14"/>
      <point x="432" y="102"/>
      <point x="432" y="211" type="curve"/>
      <point x="397" y="257" type="line"/>
      <point x="397" y="179"/>
      <point x="362" y="138"/>
      <point x="305" y="138" type="curve" smooth="yes"/>
      <point x="247" y="138"/>
      <point x="211" y="177"/>
      <point x="211" y="262" type="curve" smooth="yes"/>
      <point x="211" y="346"/>
      <point x="247" y="385"/>
      <point x="305" y="385" type="curve" smooth="yes"/>
      <point x="363" y="385"/>
      <point x="397" y="342"/>
      <point x="397" y="266" type="curve"/>
      <point x="423" y="313" type="line"/>
      <point x="423" y="423"/>
      <point x="363" y="510"/>
      <point x="246" y="510" type="curve" smooth="yes"/>
      <point x="117" y="510"/>
      <point x="40" y="418"/>
    </contour>
    <contour>
      <point x="689" y="500" type="line"/>
      <point x="689" y="-25" type="line" smooth="yes"/>
      <point x="689" y="-74"/>
      <point x="671" y="-91"/>
      <point x="643" y="-91" type="curve" smooth="yes"/>
      <point x="622" y="-91"/>
      <point x="606" y="-84"/>
      <point x="593" y="-72" type="curve"/>
      <point x="569" y="-193" type="line"/>
      <point x="597" y="-208"/>
      <point x="624" y="-215"/>
      <point x="662" y="-215" type="curve" smooth="yes"/>
      <point x="757" y="-215"/>
      <point x="859" y="-183"/>
      <point x="859" y="-34" type="curve" smooth="yes"/>
      <point x="859" y="500" type="line"/>
    </contour>
    <contour>
      <point x="675" y="639" type="curve" smooth="yes"/>
      <point x="675" y="584"/>
      <point x="705" y="558"/>
      <point x="773" y="558" type="curve" smooth="yes"/>
      <point x="842" y="558"/>
      <point x="873" y="584"/>
      <point x="873" y="639" type="curve" smooth="yes"/>
      <point x="873" y="694"/>
      <point x="842" y="721"/>
      <point x="773" y="721" type="curve" smooth="yes"/>
      <point x="705" y="721"/>
      <point x="675" y="694"/>
    </contour>
  </outline>
</glyph>
<glyph name="gbase" format="2">
  <advance width="567"/>
  <outline>
    <contour>
      <point x="43" y="102" type="curve" smooth="yes"/>
      <point x="43" y="10"/>
      <point x="147" y="-24"/>
      <point x="231" y="-24" type="curve" smooth="yes"/>
      <point x="369" y="-24" type="line" smooth="yes"/>
      <point x="417" y="-24"/>
      <point x="433" y="-36"/>
      <point x="433" y="-56" type="curve" smooth="yes"/>
      <point x="433" y="-84"/>
      <point x="391" y="-105"/>
      <point x="297" y="-105" type="curve" smooth="yes"/>
      <point x="197" y="-105"/>
      <point x="155" y="-89"/>
      <point x="155" y="-60" type="curve" smooth="yes"/>
      <point x="155" y="-36"/>
      <point x="178" y="-24"/>
      <point x="234" y="-24" type="curve"/>
      <point x="193" y="9" type="line"/>
      <point x="74" y="9"/>
      <point x="26" y="-39"/>
      <point x="26" y="-97" type="curve" smooth="yes"/>
      <point x="26" y="-169"/>
      <point x="101" y="-215"/>
      <point x="285" y="-215" type="curve" smooth="yes"/>
      <point x="456" y="-215"/>
      <point x="566" y="-155"/>
      <point x="566" y="-39" type="curve" smooth="yes"/>
      <point x="566" y="61"/>
      <point x="499" y="111"/>
      <point x="381" y="111" type="curve" smooth="yes"/>
      <point x="224" y="111" type="line" smooth="yes"/>
      <point x="179" y="111"/>
      <point x="160" y="124"/>
      <point x="160" y="146" type="curve" smooth="yes"/>
      <point x="160" y="170"/>
      <point x="180" y="183"/>
      <point x="236" y="185" type="curve"/>
      <point x="189" y="216" type="line"/>
      <point x="107" y="214"/>
      <point x="43" y="168"/>
    </contour>
    <contour>
      <point x="45" y="340" type="curve" smooth="yes"/>
      <point x="45" y="231"/>
      <point x="133" y="171"/>
      <point x="290" y="171" type="curve" smooth="yes"/>
      <point x="447" y="171"/>
      <point x="535" y="231"/>
      <point x="535" y="340" type="curve" smooth="yes"/>
      <point x="535" y="450"/>
      <point x="447" y="510"/>
      <point x="290" y="510" type="curve" smooth="yes"/>
      <point x="133" y="510"/>
      <point x="45" y="450"/>
    </contour>
    <contour>
      <point x="366" y="340" type="curve" smooth="yes"/>
      <point x="366" y="296"/>
      <point x="338" y="269"/>
      <point x="290" y="269" type="curve" smooth="yes"/>
      <point x="242" y="269"/>
      <point x="214" y="296"/>
      <point x="214" y="340" type="curve" smooth="yes"/>
      <point x="214" y="385"/>
      <point x="242" y="412"/>
      <point x="290" y="412" type="curve" smooth="yes"/>
      <point x="338" y="412"/>
      <point x="366" y="385"/>
    </contour>
  </outline>
</glyph>
<glyph name="germandbls.sc" format="2">
  <advance width="668"/>
  <anchor x="355" y="560" name="top"/>
  <anchor x="494" y="0" name="ogonek"/>
  <anchor x="355" y="0" name="bottom"/>
  <anchor x="447" y="0" name="bottomC"/>
  <outline>
    <contour>
      <point x="239" y="0" type="line"/>
      <point x="239" y="330" type="line" smooth="yes"/>
      <point x="239" y="396"/>
      <point x="286" y="438"/>
      <point x="343" y="438" type="curve" smooth="yes"/>
      <point x="461" y="438" type="line"/>
      <point x="324" y="309" type="line"/>
      <point x="415" y="257" type="line"/>
      <point x="612" y="441" type="line"/>
      <point x="612" y="560" type="line"/>
      <point x="321" y="560" type="line" smooth="yes"/>
      <point x="173" y="560"/>
      <point x="69" y="470"/>
      <point x="69" y="333" type="curve" smooth="yes"/>
      <point x="69" y="0" type="line"/>
    </contour>
    <contour>
      <point x="641" y="161" type="curve" smooth="yes"/>
      <point x="641" y="269"/>
      <point x="563" y="309"/>
      <point x="457" y="309" type="curve" smooth="yes"/>
      <point x="324" y="309" type="line"/>
      <point x="324" y="216" type="line"/>
      <point x="411" y="216" type="line" smooth="yes"/>
      <point x="462" y="216"/>
      <point x="492" y="204"/>
      <point x="492" y="163" type="curve" smooth="yes"/>
      <point x="492" y="127"/>
      <point x="464" y="106"/>
      <point x="418" y="106" type="curve" smooth="yes"/>
      <point x="384" y="106"/>
      <point x="353" y="118"/>
      <point x="327" y="138" type="curve"/>
      <point x="290" y="45" type="line"/>
      <point x="319" y="16"/>
      <point x="372" y="-4"/>
      <point x="450" y="-4" type="curve" smooth="yes"/>
      <point x="563" y="-4"/>
      <point x="641" y="53"/>
    </contour>
  </outline>
</glyph>
<glyph name="h.sc" format="2">
  <advance width="681"/>
  <anchor x="341" y="560" name="top"/>
  <anchor x="611" y="0" name="ogonek"/>
  <anchor x="341" y="0" name="bottom"/>
  <anchor x="526" y="0" name="bottomC"/>
  <outline>
    <contour>
      <point x="444" y="560" type="line"/>
      <point x="444" y="0" type="line"/>
      <point x="611" y="0" type="line"/>
      <point x="611" y="560" type="line"/>
    </contour>
    <contour>
      <point x="69" y="560" type="line"/>
      <point x="69" y="0" type="line"/>
      <point x="236" y="0" type="line"/>
      <point x="236" y="560" type="line"/>
    </contour>
    <contour>
      <point x="154" y="348" type="line"/>
      <point x="154" y="220" type="line"/>
      <point x="529" y="220" type="line"/>
      <point x="529" y="348" type="line"/>
    </contour>
  </outline>
</glyph>
<glyph name="iacute_j.loclNLD" format="2">
  <advance width="581"/>
  <anchor x="146" y="500" name="top"/>
  <anchor x="219" y="6" name="ogonek"/>
  <anchor x="146" y="0" name="bottom"/>
  <anchor x="146" y="0" name="bottomC"/>
  <outline>
    <contour>
      <point x="352" y="500" type="line"/>
      <point x="352" y="-13" type="line" smooth="yes"/>
      <point x="352" y="-72"/>
      <point x="327" y="-93"/>
      <point x="284" y="-93" type="curve" smooth="yes"/>
      <point x="258" y="-93"/>
      <point x="235" y="-85"/>
      <point x="221" y="-73" type="curve"/>
      <point x="197" y="-183" type="line"/>
      <point x="231" y="-204"/>
      <point x="274" y="-215"/>
      <point x="328" y="-215" type="curve" smooth="yes"/>
      <point x="449" y="-215"/>
      <point x="522" y="-163"/>
      <point x="522" y="-28" type="curve" smooth="yes"/>
      <point x="522" y="500" type="line"/>
    </contour>
    <component base="iacute"/>
    <component base="acute" xOffset="186"/>
  </outline>
</glyph>
<glyph name="ij.sc.ss05" format="2">
  <advance width="605"/>
  <outline>
    <contour>
      <point x="59" y="560" type="line"/>
      <point x="59" y="258" type="line"/>
      <point x="229" y="258" type="line"/>
      <point x="229" y="560" type="line"/>
    </contour>
    <contour>
      <point x="376" y="560" type="line"/>
      <point x="376" y="224" type="line" smooth="yes"/>
      <point x="376" y="150"/>
      <point x="350" y="122"/>
      <point x="299" y="122" type="curve" smooth="yes"/>
      <point x="247" y="122"/>
      <point x="220" y="145"/>
      <point x="226" y="202" type="curve"/>
      <point x="61" y="202" type="line"/>
      <point x="44" y="66"/>
      <point x="132" y="-8"/>
      <point x="296" y="-8" type="curve" smooth="yes"/>
      <point x="446" y="-8"/>
      <point x="546" y="75"/>
      <point x="546" y="221" type="curve" smooth="yes"/>
      <point x="546" y="560" type="line"/>
    </contour>
  </outline>
</glyph>
<glyph name="indexring" format="2">
  <advance width="910"/>
  <anchor x="455" y="330" name="indexring"/>
  <outline>
    <contour>
      <point x="836" y="330" type="curve" smooth="yes"/>
      <point x="836" y="551"/>
      <point x="683" y="700"/>
      <point x="455" y="700" type="curve" smooth="yes"/>
      <point x="227" y="700"/>
      <point x="74" y="551"/>
      <point x="74" y="330" type="curve" smooth="yes"/>
      <point x="74" y="109"/>
      <point x="227" y="-40"/>
      <point x="455" y="-40" type="curve" smooth="yes"/>
      <point x="683" y="-40"/>
      <point x="836" y="109"/>
    </contour>
    <contour>
      <point x="163" y="330" type="curve" smooth="yes"/>
      <point x="163" y="504"/>
      <point x="281" y="621"/>
      <point x="455" y="621" type="curve" smooth="yes"/>
      <point x="629" y="621"/>
      <point x="747" y="504"/>
      <point x="747" y="330" type="curve" smooth="yes"/>
      <point x="747" y="156"/>
      <point x="629" y="39"/>
      <point x="455" y="39" type="curve" smooth="yes"/>
      <point x="281" y="39"/>
      <point x="163" y="156"/>
    </contour>
  </outline>
</glyph>
<glyph name="iogonek_j" format="2">
  <advance width="581"/>
  <anchor x="219" y="6" name="ogonek_1"/>
  <anchor x="408" y="-204" name="ogonek_2"/>
  <anchor x="146" y="0" name="bottomC_1"/>
  <anchor x="387" y="-210" name="bottomC_2"/>
  <anchor x="146" y="0" name="bottom_1"/>
  <anchor x="387" y="-210" name="bottom_2"/>
  <anchor x="146" y="711" name="top_1"/>
  <anchor x="436" y="711" name="top_2"/>
  <outline>
    <contour>
      <point x="212" y="-193" type="curve"/>
      <point x="220" y="-106" type="line"/>
      <point x="206" y="-116"/>
      <point x="188" y="-120"/>
      <point x="166" y="-120" type="curve" smooth="yes"/>
      <point x="138" y="-120"/>
      <point x="121" y="-105"/>
      <point x="121" y="-80" type="curve" smooth="yes"/>
      <point x="121" y="-46"/>
      <point x="146" y="-18"/>
      <point x="230" y="0" type="curve"/>
      <point x="155" y="23" type="line"/>
      <point x="54" y="6"/>
      <point x="4" y="-40"/>
      <point x="4" y="-109" type="curve" smooth="yes"/>
      <point x="4" y="-171"/>
      <point x="47" y="-215"/>
      <point x="127" y="-215" type="curve" smooth="yes"/>
      <point x="162" y="-215"/>
      <point x="191" y="-208"/>
    </contour>
    <component base="i"/>
    <component base="j.ogonek" xOffset="244"/>
  </outline>
</glyph>
<glyph name="j.sc" format="2">
  <advance width="571"/>
  <anchor x="427" y="560" name="top"/>
  <anchor x="346" y="0" name="ogonek"/>
  <anchor x="274" y="0" name="bottom"/>
  <anchor x="279" y="0" name="bottomC"/>
  <outline>
    <contour>
      <point x="342" y="560" type="line"/>
      <point x="342" y="229" type="line" smooth="yes"/>
      <point x="342" y="156"/>
      <point x="322" y="122"/>
      <point x="262" y="122" type="curve" smooth="yes"/>
      <point x="206" y="122"/>
      <point x="181" y="154"/>
      <point x="195" y="260" type="curve"/>
      <point x="36" y="233" type="line"/>
      <point x="8" y="93"/>
      <point x="84" y="-8"/>
      <point x="264" y="-8" type="curve" smooth="yes"/>
      <point x="425" y="-8"/>
      <point x="512" y="63"/>
      <point x="512" y="215" type="curve" smooth="yes"/>
      <point x="512" y="560" type="line"/>
    </contour>
  </outline>
</glyph>
<glyph name="longs_l" format="2">
  <advance width="652"/>
  <anchor x="620" y="353" name="center"/>
  <anchor x="515" y="0" name="bottom"/>
  <anchor x="463" y="712" name="top"/>
  <anchor x="539" y="0" name="bottomC"/>
  <anchor x="614" y="712" name="topright"/>
  <anchor x="599" y="0" name="ogonek"/>
  <outline>
    <contour>
      <point x="224" y="0" type="line"/>
      <point x="224" y="533" type="line" smooth="yes"/>
      <point x="224" y="586"/>
      <point x="253" y="607"/>
      <point x="294" y="607" type="curve" smooth="yes"/>
      <point x="312" y="607"/>
      <point x="324" y="604"/>
      <point x="337" y="595" type="curve"/>
      <point x="347" y="701" type="line"/>
      <point x="325" y="719"/>
      <point x="296" y="726"/>
      <point x="250" y="726" type="curve" smooth="yes"/>
      <point x="141" y="726"/>
      <point x="59" y="672"/>
      <point x="59" y="546" type="curve" smooth="yes"/>
      <point x="59" y="0" type="line"/>
    </contour>
    <component base="l" xOffset="325"/>
  </outline>
</glyph>
<glyph name="lslash.sc" format="2">
  <advance width="597"/>
  <anchor x="350" y="0" name="bottom"/>
  <anchor x="188" y="560" name="top"/>
  <anchor x="563" y="0" name="ogonek"/>
  <anchor x="365" y="560" name="topright"/>
  <anchor x="350" y="0" name="bottomC"/>
  <outline>
    <contour>
      <point x="4" y="245" type="line"/>
      <point x="4" y="136" type="line"/>
      <point x="420" y="339" type="line"/>
      <point x="420" y="448" type="line"/>
    </contour>
    <component base="l.sc" xOffset="31"/>
  </outline>
</glyph>
<glyph name="lslash.ss02" format="2">
  <advance width="350"/>
  <anchor x="174" y="0" name="bottom"/>
  <anchor x="178" y="712" name="top"/>
  <anchor x="249" y="6" name="ogonek"/>
  <anchor x="323" y="712" name="topright"/>
  <anchor x="176" y="0" name="bottomC"/>
  <outline>
    <contour>
      <point x="184" y="297" type="line"/>
      <point x="335" y="379" type="line"/>
      <point x="335" y="498" type="line"/>
      <point x="160" y="383" type="line"/>
      <point x="15" y="305" type="line"/>
      <point x="15" y="186" type="line"/>
    </contour>
    <component base="l.ss02" xOffset="29"/>
  </outline>
</glyph>
<glyph name="nine.tf" format="2">
  <advance width="604"/>
  <outline>
    <contour>
      <point x="37" y="446" type="curve" smooth="yes"/>
      <point x="37" y="312"/>
      <point x="127" y="233"/>
      <point x="252" y="236" type="curve" smooth="yes"/>
      <point x="328" y="238"/>
      <point x="385" y="264"/>
      <point x="404" y="323" type="curve"/>
      <point x="408" y="323" type="line"/>
      <point x="408" y="317"/>
      <point x="408" y="312"/>
      <point x="408" y="307" type="curve" smooth="yes"/>
      <point x="408" y="187"/>
      <point x="376" y="120"/>
      <point x="292" y="120" type="curve" smooth="yes"/>
      <point x="233" y="120"/>
      <point x="211" y="147"/>
      <point x="199" y="195" type="curve"/>
      <point x="42" y="134" type="line"/>
      <point x="81" y="37"/>
      <point x="161" y="-10"/>
      <point x="286" y="-10" type="curve" smooth="yes"/>
      <point x="462" y="-10"/>
      <point x="560" y="90"/>
      <point x="560" y="326" type="curve" smooth="yes"/>
      <point x="560" y="552"/>
      <point x="460" y="670"/>
      <point x="289" y="670" type="curve" smooth="yes"/>
      <point x="131" y="670"/>
      <point x="37" y="583"/>
    </contour>
    <contour>
      <point x="377" y="447" type="curve" smooth="yes"/>
      <point x="377" y="393"/>
      <point x="343" y="359"/>
      <point x="286" y="359" type="curve" smooth="yes"/>
      <point x="228" y="359"/>
      <point x="195" y="391"/>
      <point x="195" y="447" type="curve" smooth="yes"/>
      <point x="195" y="503"/>
      <point x="228" y="535"/>
      <point x="286" y="535" type="curve" smooth="yes"/>
      <point x="343" y="535"/>
      <point x="377" y="501"/>
    </contour>
  </outline>
</glyph>
<glyph name="odieresis.titl.sc" format="2">
  <advance width="665"/>
  <outline>
    <contour>
      <point x="72" y="619" type="curve" smooth="yes"/>
      <point x="72" y="573"/>
      <point x="102" y="545"/>
      <point x="154" y="545" type="curve" smooth="yes"/>
      <point x="207" y="545"/>
      <point x="238" y="573"/>
      <point x="238" y="619" type="curve" smooth="yes"/>
      <point x="238" y="666"/>
      <point x="207" y="694"/>
      <point x="154" y="694" type="curve" smooth="yes"/>
      <point x="102" y="694"/>
      <point x="72" y="666"/>
    </contour>
    <contour>
      <point x="430" y="619" type="curve" smooth="yes"/>
      <point x="430" y="573"/>
      <point x="461" y="545"/>
      <point x="512" y="545" type="curve" smooth="yes"/>
      <point x="565" y="545"/>
      <point x="596" y="573"/>
      <point x="596" y="619" type="curve" smooth="yes"/>
      <point x="596" y="666"/>
      <point x="565" y="694"/>
      <point x="512" y="694" type="curve" smooth="yes"/>
      <point x="461" y="694"/>
      <point x="430" y="666"/>
    </contour>
    <contour>
      <point x="41" y="280" type="curve" smooth="yes"/>
      <point x="41" y="100"/>
      <point x="152" y="-8"/>
      <point x="334" y="-8" type="curve" smooth="yes"/>
      <point x="516" y="-8"/>
      <point x="627" y="100"/>
      <point x="627" y="280" type="curve" smooth="yes"/>
      <point x="627" y="460"/>
      <point x="516" y="568"/>
      <point x="334" y="568" type="curve" smooth="yes"/>
      <point x="152" y="568"/>
      <point x="41" y="460"/>
    </contour>
    <contour>
      <point x="456" y="280" type="curve" smooth="yes"/>
      <point x="456" y="173"/>
      <point x="414" y="122"/>
      <point x="334" y="122" type="curve" smooth="yes"/>
      <point x="254" y="122"/>
      <point x="212" y="173"/>
      <point x="212" y="280" type="curve" smooth="yes"/>
      <point x="212" y="387"/>
      <point x="254" y="438"/>
      <point x="334" y="438" type="curve" smooth="yes"/>
      <point x="414" y="438"/>
      <point x="456" y="387"/>
    </contour>
  </outline>
</glyph>
<glyph name="ogonek.A" format="2">
  <advance width="693"/>
  <anchor x="683" y="0" name="_ogonek"/>
  <outline>
    <contour>
      <point x="610" y="32" type="line"/>
      <point x="509" y="16"/>
      <point x="448" y="-28"/>
      <point x="448" y="-102" type="curve" smooth="yes"/>
      <point x="448" y="-179"/>
      <point x="508" y="-215"/>
      <point x="586" y="-215" type="curve" smooth="yes"/>
      <point x="628" y="-215"/>
      <point x="663" y="-209"/>
      <point x="690" y="-192" type="curve"/>
      <point x="667" y="-110" type="line"/>
      <point x="655" y="-118"/>
      <point x="637" y="-120"/>
      <point x="621" y="-120" type="curve" smooth="yes"/>
      <point x="587" y="-120"/>
      <point x="566" y="-104"/>
      <point x="566" y="-76" type="curve" smooth="yes"/>
      <point x="566" y="-42"/>
      <point x="592" y="-16"/>
      <point x="683" y="0" type="curve"/>
    </contour>
  </outline>
</glyph>
<glyph name="ogonek.I" format="2">
  <advance width="320"/>
  <anchor x="249" y="0" name="_ogonek"/>
  <outline>
    <contour>
      <point x="175" y="28" type="line"/>
      <point x="80" y="12"/>
      <point x="20" y="-34"/>
      <point x="20" y="-104" type="curve" smooth="yes"/>
      <point x="20" y="-179"/>
      <point x="80" y="-215"/>
      <point x="158" y="-215" type="curve" smooth="yes"/>
      <point x="203" y="-215"/>
      <point x="235" y="-209"/>
      <point x="263" y="-191" type="curve"/>
      <point x="239" y="-108" type="line"/>
      <point x="226" y="-116"/>
      <point x="210" y="-119"/>
      <point x="191" y="-119" type="curve" smooth="yes"/>
      <point x="157" y="-119"/>
      <point x="138" y="-103"/>
      <point x="138" y="-75" type="curve" smooth="yes"/>
      <point x="138" y="-45"/>
      <point x="163" y="-19"/>
      <point x="249" y="0" type="curve"/>
    </contour>
  </outline>
</glyph>
<glyph name="one.osf" format="2">
  <advance width="427"/>
  <outline>
    <contour>
      <point x="356" y="560" type="line"/>
      <point x="220" y="560" type="line"/>
      <point x="206" y="516"/>
      <point x="190" y="436"/>
      <point x="190" y="390" type="curve" smooth="yes"/>
      <point x="190" y="0" type="line"/>
      <point x="356" y="0" type="line"/>
      <point x="356" y="406" type="line"/>
    </contour>
    <contour>
      <point x="289" y="528" type="curve"/>
      <point x="220" y="560" type="line"/>
      <point x="187" y="511"/>
      <point x="94" y="462"/>
      <point x="22" y="451" type="curve"/>
      <point x="38" y="312" type="line"/>
      <point x="151" y="326"/>
      <point x="254" y="443"/>
    </contour>
  </outline>
</glyph>
<glyph name="one.sc" format="2">
  <advance width="415"/>
  <outline>
    <contour>
      <point x="344" y="560" type="line"/>
      <point x="204" y="560" type="line"/>
      <point x="185" y="473"/>
      <point x="174" y="371"/>
      <point x="174" y="302" type="curve" smooth="yes"/>
      <point x="174" y="0" type="line"/>
      <point x="344" y="0" type="line"/>
      <point x="344" y="406" type="line"/>
    </contour>
    <contour>
      <point x="277" y="524" type="curve"/>
      <point x="204" y="560" type="line"/>
      <point x="164" y="517"/>
      <point x="83" y="479"/>
      <point x="18" y="471" type="curve"/>
      <point x="36" y="339" type="line"/>
      <point x="146" y="353"/>
      <point x="243" y="439"/>
    </contour>
  </outline>
</glyph>
<glyph name="one.tf" format="2">
  <advance width="604"/>
  <outline>
    <contour>
      <point x="415" y="0" type="line"/>
      <point x="415" y="506" type="line"/>
      <point x="415" y="660" type="line"/>
      <point x="278" y="660" type="line"/>
      <point x="265" y="609"/>
      <point x="257" y="544"/>
      <point x="257" y="492" type="curve" smooth="yes"/>
      <point x="257" y="0" type="line"/>
    </contour>
    <contour>
      <point x="571" y="0" type="line"/>
      <point x="571" y="130" type="line"/>
      <point x="78" y="130" type="line"/>
      <point x="78" y="0" type="line"/>
    </contour>
    <contour>
      <point x="347" y="622" type="curve"/>
      <point x="278" y="660" type="line"/>
      <point x="244" y="611"/>
      <point x="142" y="557"/>
      <point x="71" y="549" type="curve"/>
      <point x="87" y="415" type="line"/>
      <point x="201" y="429"/>
      <point x="311" y="537"/>
    </contour>
  </outline>
</glyph>
<glyph name="oslash.sc" format="2">
  <advance width="665"/>
  <anchor x="332" y="560" name="top"/>
  <anchor x="408" y="0" name="ogonek"/>
  <anchor x="332" y="0" name="bottom"/>
  <anchor x="332" y="0" name="bottomC"/>
  <outline>
    <contour>
      <point x="536" y="574" type="line"/>
      <point x="449" y="459" type="line"/>
      <point x="480" y="422" type="line"/>
      <point x="602" y="574" type="line"/>
    </contour>
    <contour>
      <point x="189" y="122" type="line"/>
      <point x="229" y="88" type="line"/>
      <point x="475" y="422" type="line"/>
      <point x="436" y="458" type="line"/>
    </contour>
    <contour>
      <point x="129" y="-18" type="line"/>
      <point x="216" y="97" type="line"/>
      <point x="184" y="133" type="line"/>
      <point x="63" y="-18" type="line"/>
    </contour>
    <component base="o.sc"/>
  </outline>
</glyph>
<glyph name="p.sc" format="2">
  <advance width="608"/>
  <anchor x="308" y="560" name="top"/>
  <anchor x="154" y="0" name="bottom"/>
  <outline>
    <contour>
      <point x="355" y="178" type="line" smooth="yes"/>
      <point x="494" y="178"/>
      <point x="577" y="249"/>
      <point x="577" y="368" type="curve" smooth="yes"/>
      <point x="577" y="490"/>
      <point x="494" y="560"/>
      <point x="355" y="560" type="curve" smooth="yes"/>
      <point x="174" y="560" type="line"/>
      <point x="174" y="442" type="line"/>
      <point x="326" y="442" type="line" smooth="yes"/>
      <point x="382" y="442"/>
      <point x="411" y="418"/>
      <point x="411" y="367" type="curve" smooth="yes"/>
      <point x="411" y="317"/>
      <point x="382" y="293"/>
      <point x="326" y="293" type="curve" smooth="yes"/>
      <point x="174" y="293" type="line"/>
      <point x="174" y="178" type="line"/>
    </contour>
    <contour>
      <point x="236" y="0" type="line"/>
      <point x="236" y="560" type="line"/>
      <point x="69" y="560" type="line"/>
      <point x="69" y="0" type="line"/>
    </contour>
  </outline>
</glyph>
<glyph name="periodsuperior" format="2">
  <advance width="227"/>
  <outline>
    <contour>
      <point x="38" y="393" type="curve" smooth="yes"/>
      <point x="38" y="351"/>
      <point x="65" y="327"/>
      <point x="113" y="327" type="curve" smooth="yes"/>
      <point x="161" y="327"/>
      <point x="188" y="351"/>
      <point x="188" y="393" type="curve" smooth="yes"/>
      <point x="188" y="435"/>
      <point x="161" y="459"/>
      <point x="113" y="459" type="curve" smooth="yes"/>
      <point x="65" y="459"/>
      <point x="38" y="435"/>
    </contour>
  </outline>
</glyph>
<glyph name="q.sc" format="2">
  <advance width="665"/>
  <anchor x="332" y="560" name="top"/>
  <anchor x="517" y="-170" name="ogonek"/>
  <anchor x="332" y="-210" name="bottom"/>
  <anchor x="489" y="-170" name="bottomC"/>
  <outline>
    <contour>
      <point x="289" y="26" type="line"/>
      <point x="269" y="-112"/>
      <point x="345" y="-172"/>
      <point x="473" y="-174" type="curve" smooth="yes"/>
      <point x="531" y="-175"/>
      <point x="583" y="-156"/>
      <point x="616" y="-130" type="curve"/>
      <point x="575" y="-17" type="line"/>
      <point x="551" y="-44"/>
      <point x="522" y="-55"/>
      <point x="475" y="-55" type="curve" smooth="yes"/>
      <point x="408" y="-55"/>
      <point x="369" y="-33"/>
      <point x="376" y="31" type="curve"/>
    </contour>
    <component base="o.sc"/>
  </outline>
</glyph>
<glyph name="question.sc" format="2">
  <advance width="528"/>
  <outline>
    <contour>
      <point x="12" y="419" type="curve"/>
      <point x="169" y="368" type="line"/>
      <point x="175" y="421"/>
      <point x="207" y="445"/>
      <point x="265" y="445" type="curve" smooth="yes"/>
      <point x="318" y="445"/>
      <point x="344" y="424"/>
      <point x="344" y="390" type="curve" smooth="yes"/>
      <point x="344" y="348"/>
      <point x="313" y="326"/>
      <point x="177" y="312" type="curve"/>
      <point x="180" y="197" type="line"/>
      <point x="331" y="197" type="line"/>
      <point x="338" y="270" type="line"/>
      <point x="422" y="276"/>
      <point x="509" y="317"/>
      <point x="509" y="415" type="curve" smooth="yes"/>
      <point x="509" y="520"/>
      <point x="408" y="568"/>
      <point x="267" y="568" type="curve" smooth="yes"/>
      <point x="112" y="568"/>
      <point x="31" y="517"/>
    </contour>
    <component base="period" xScale="0.916" yScale="0.878" xOffset="121"/>
  </outline>
</glyph>
<glyph name="r.sc.ss03" format="2">
  <advance width="628"/>
  <anchor x="306" y="560" name="top"/>
  <anchor x="592" y="0" name="ogonek"/>
  <anchor x="328" y="0" name="bottom"/>
  <anchor x="506" y="0" name="bottomC"/>
  <outline>
    <contour>
      <point x="236" y="0" type="line"/>
      <point x="236" y="194" type="line"/>
      <point x="302" y="194" type="line" smooth="yes"/>
      <point x="352" y="194"/>
      <point x="382" y="178"/>
      <point x="390" y="130" type="curve" smooth="yes"/>
      <point x="399" y="77"/>
      <point x="400" y="33"/>
      <point x="413" y="0" type="curve"/>
      <point x="592" y="0" type="line"/>
      <point x="592" y="4" type="line"/>
      <point x="574" y="36"/>
      <point x="568" y="74"/>
      <point x="557" y="146" type="curve" smooth="yes"/>
      <point x="551" y="188"/>
      <point x="522" y="225"/>
      <point x="461" y="238" type="curve"/>
      <point x="461" y="240" type="line"/>
      <point x="534" y="254"/>
      <point x="583" y="304"/>
      <point x="583" y="387" type="curve" smooth="yes"/>
      <point x="583" y="494"/>
      <point x="497" y="560"/>
      <point x="353" y="560" type="curve" smooth="yes"/>
      <point x="69" y="560" type="line"/>
      <point x="69" y="0" type="line"/>
    </contour>
    <contour>
      <point x="236" y="442" type="line"/>
      <point x="329" y="442" type="line" smooth="yes"/>
      <point x="386" y="442"/>
      <point x="417" y="418"/>
      <point x="417" y="371" type="curve" smooth="yes"/>
      <point x="417" y="324"/>
      <point x="386" y="300"/>
      <point x="329" y="300" type="curve" smooth="yes"/>
      <point x="236" y="300" type="line"/>
    </contour>
  </outline>
</glyph>
<glyph name="r.swsh" format="2">
  <advance width="608"/>
  <anchor x="269" y="500" name="top"/>
  <anchor x="231" y="0" name="ogonek"/>
  <anchor x="147" y="0" name="bottom"/>
  <anchor x="146" y="0" name="bottomC"/>
  <outline>
    <contour>
      <point x="612" y="425" type="line"/>
      <point x="505" y="441"/>
      <point x="492" y="510"/>
      <point x="375" y="510" type="curve" smooth="yes"/>
      <point x="281" y="510"/>
      <point x="201" y="449"/>
      <point x="201" y="262" type="curve"/>
      <point x="231" y="240" type="line"/>
      <point x="231" y="312"/>
      <point x="273" y="371"/>
      <point x="353" y="371" type="curve" smooth="yes"/>
      <point x="422" y="371"/>
      <point x="450" y="320"/>
      <point x="533" y="304" type="curve"/>
    </contour>
    <contour>
      <point x="231" y="0" type="line"/>
      <point x="231" y="317" type="line"/>
      <point x="222" y="337" type="line"/>
      <point x="211" y="500" type="line"/>
      <point x="61" y="500" type="line"/>
      <point x="61" y="0" type="line"/>
    </contour>
  </outline>
</glyph>
<glyph name="s.sc" format="2">
  <advance width="582"/>
  <anchor x="294" y="560" name="top"/>
  <anchor x="374" y="0" name="ogonek"/>
  <anchor x="315" y="0" name="bottom"/>
  <anchor x="301" y="0" name="bottomC"/>
  <outline>
    <contour>
      <point x="38" y="383" type="curve" smooth="yes"/>
      <point x="38" y="163"/>
      <point x="380" y="249"/>
      <point x="380" y="161" type="curve" smooth="yes"/>
      <point x="380" y="130"/>
      <point x="347" y="113"/>
      <point x="290" y="113" type="curve" smooth="yes"/>
      <point x="207" y="113"/>
      <point x="156" y="136"/>
      <point x="99" y="190" type="curve"/>
      <point x="27" y="80" type="line"/>
      <point x="92" y="20"/>
      <point x="174" y="-8"/>
      <point x="292" y="-8" type="curve" smooth="yes"/>
      <point x="448" y="-8"/>
      <point x="550" y="60"/>
      <point x="550" y="174" type="curve" smooth="yes"/>
      <point x="550" y="391"/>
      <point x="208" y="306"/>
      <point x="208" y="395" type="curve" smooth="yes"/>
      <point x="208" y="424"/>
      <point x="238" y="447"/>
      <point x="296" y="447" type="curve" smooth="yes"/>
      <point x="376" y="447"/>
      <point x="417" y="427"/>
      <point x="477" y="370" type="curve"/>
      <point x="550" y="478" type="line"/>
      <point x="484" y="540"/>
      <point x="417" y="568"/>
      <point x="294" y="568" type="curve" smooth="yes"/>
      <point x="136" y="568"/>
      <point x="38" y="494"/>
    </contour>
  </outline>
</glyph>
<glyph name="s_t" format="2">
  <advance width="916"/>
  <outline>
    <contour>
      <point x="506" y="157" type="curve" smooth="yes"/>
      <point x="506" y="247"/>
      <point x="445" y="290"/>
      <point x="304" y="313" type="curve" smooth="yes"/>
      <point x="227" y="326"/>
      <point x="207" y="337"/>
      <point x="207" y="359" type="curve" smooth="yes"/>
      <point x="207" y="379"/>
      <point x="234" y="399"/>
      <point x="284" y="399" type="curve" smooth="yes"/>
      <point x="338" y="399"/>
      <point x="389" y="384"/>
      <point x="418" y="338" type="curve"/>
      <point x="502" y="419" type="line"/>
      <point x="465" y="464"/>
      <point x="457" y="495"/>
      <point x="457" y="532" type="curve" smooth="yes"/>
      <point x="457" y="573"/>
      <point x="477" y="598"/>
      <point x="515" y="598" type="curve" smooth="yes"/>
      <point x="549" y="598"/>
      <point x="581" y="573"/>
      <point x="581" y="505" type="curve" smooth="yes"/>
      <point x="581" y="150" type="line" smooth="yes"/>
      <point x="581" y="34"/>
      <point x="651" y="-10"/>
      <point x="765" y="-10" type="curve" smooth="yes"/>
      <point x="817" y="-10"/>
      <point x="873" y="5"/>
      <point x="906" y="28" type="curve"/>
      <point x="889" y="133" type="line"/>
      <point x="869" y="119"/>
      <point x="848" y="111"/>
      <point x="817" y="111" type="curve" smooth="yes"/>
      <point x="775" y="111"/>
      <point x="751" y="130"/>
      <point x="751" y="178" type="curve" smooth="yes"/>
      <point x="751" y="535" type="line" smooth="yes"/>
      <point x="751" y="674"/>
      <point x="657" y="724"/>
      <point x="540" y="724" type="curve" smooth="yes"/>
      <point x="423" y="724"/>
      <point x="330" y="669"/>
      <point x="330" y="554" type="curve" smooth="yes"/>
      <point x="330" y="504"/>
      <point x="373" y="468"/>
      <point x="406" y="451" type="curve"/>
      <point x="401" y="490" type="line"/>
      <point x="358" y="506"/>
      <point x="309" y="510"/>
      <point x="278" y="510" type="curve" smooth="yes"/>
      <point x="115" y="510"/>
      <point x="36" y="427"/>
      <point x="36" y="346" type="curve" smooth="yes"/>
      <point x="36" y="265"/>
      <point x="94" y="216"/>
      <point x="238" y="189" type="curve" smooth="yes"/>
      <point x="312" y="176"/>
      <point x="336" y="161"/>
      <point x="336" y="139" type="curve" smooth="yes"/>
      <point x="336" y="116"/>
      <point x="307" y="101"/>
      <point x="261" y="101" type="curve" smooth="yes"/>
      <point x="197" y="101"/>
      <point x="141" y="127"/>
      <point x="109" y="171" type="curve"/>
      <point x="23" y="80" type="line"/>
      <point x="73" y="17"/>
      <point x="158" y="-10"/>
      <point x="268" y="-10" type="curve" smooth="yes"/>
      <point x="429" y="-10"/>
      <point x="506" y="65"/>
    </contour>
    <contour>
      <point x="901" y="379" type="line"/>
      <point x="901" y="500" type="line"/>
      <point x="603" y="500" type="line"/>
      <point x="603" y="379" type="line"/>
    </contour>
  </outline>
</glyph>
<glyph name="seven.osf" format="2">
  <advance width="590"/>
  <outline>
    <contour>
      <point x="18" y="430" type="line"/>
      <point x="476" y="430" type="line"/>
      <point x="456" y="482" type="line"/>
      <point x="261" y="314"/>
      <point x="176" y="119"/>
      <point x="176" y="-100" type="curve"/>
      <point x="345" y="-100" type="line"/>
      <point x="345" y="97"/>
      <point x="399" y="276"/>
      <point x="561" y="438" type="curve"/>
      <point x="561" y="560" type="line"/>
      <point x="18" y="560" type="line"/>
    </contour>
  </outline>
</glyph>
<glyph name="six.sc" format="2">
  <advance width="556"/>
  <outline>
    <contour>
      <point x="521" y="180" type="curve" smooth="yes"/>
      <point x="520" y="291"/>
      <point x="436" y="347"/>
      <point x="338" y="347" type="curve" smooth="yes"/>
      <point x="271" y="347"/>
      <point x="215" y="321"/>
      <point x="190" y="276" type="curve"/>
      <point x="188" y="276" type="line"/>
      <point x="188" y="280"/>
      <point x="188" y="285"/>
      <point x="188" y="288" type="curve" smooth="yes"/>
      <point x="188" y="390"/>
      <point x="235" y="444"/>
      <point x="300" y="444" type="curve" smooth="yes"/>
      <point x="349" y="444"/>
      <point x="375" y="424"/>
      <point x="388" y="386" type="curve"/>
      <point x="514" y="445" type="line"/>
      <point x="473" y="531"/>
      <point x="410" y="568"/>
      <point x="298" y="568" type="curve" smooth="yes"/>
      <point x="144" y="568"/>
      <point x="38" y="471"/>
      <point x="38" y="282" type="curve" smooth="yes"/>
      <point x="38" y="91"/>
      <point x="131" y="-8"/>
      <point x="295" y="-8" type="curve" smooth="yes"/>
      <point x="444" y="-8"/>
      <point x="522" y="70"/>
    </contour>
    <contour>
      <point x="217" y="175" type="curve" smooth="yes"/>
      <point x="217" y="217"/>
      <point x="247" y="245"/>
      <point x="295" y="245" type="curve" smooth="yes"/>
      <point x="343" y="245"/>
      <point x="371" y="219"/>
      <point x="371" y="175" type="curve" smooth="yes"/>
      <point x="371" y="131"/>
      <point x="343" y="105"/>
      <point x="295" y="105" type="curve" smooth="yes"/>
      <point x="247" y="105"/>
      <point x="217" y="132"/>
    </contour>
  </outline>
</glyph>
